<svg xmlns="http://www.w3.org/2000/svg" viewBox="0 0 12 10.81"><defs><style>.cls-1{fill:#e02528;}</style></defs><title>Alert</title><g id="Layer_2" data-name="Layer 2"><g id="Isolation_Mode" data-name="Isolation Mode"><path class="cls-1" d="M10.45,10.81H1.55A1.56,1.56,0,0,1,.21,8.48L4.66.78a1.54,1.54,0,0,1,2.68,0l4.45,7.7a1.56,1.56,0,0,1-1.34,2.33M6,1a.55.55,0,0,0-.48.28L1.08,9a.52.52,0,0,0,0,.55.53.53,0,0,0,.47.28h8.9a.53.53,0,0,0,.47-.28.52.52,0,0,0,0-.55L6.48,1.28A.55.55,0,0,0,6,1"/><path class="cls-1" d="M6.09,7a.5.5,0,0,1-.5-.5V3.73a.5.5,0,0,1,.5-.5.5.5,0,0,1,.5.5V6.48a.5.5,0,0,1-.5.5"/><path class="cls-1" d="M6.09,7.55a.6.6,0,1,1-.61.6.6.6,0,0,1,.61-.6"/></g></g></svg>