<svg xmlns="http://www.w3.org/2000/svg" viewBox="0 0 30 30"><defs><style>.cls-1{fill:#fff;}</style></defs><title>Back Home White</title><g id="Layer_2" data-name="Layer 2"><g id="Layer_1-2" data-name="Layer 1"><path class="cls-1" d="M27.38,0H2.62A2.62,2.62,0,0,0,0,2.62V27.38A2.62,2.62,0,0,0,2.62,30H27.38A2.62,2.62,0,0,0,30,27.38V2.62A2.62,2.62,0,0,0,27.38,0Zm0,28.57H2.62a1.19,1.19,0,0,1-1.19-1.19V2.62A1.19,1.19,0,0,1,2.62,1.43H27.38a1.19,1.19,0,0,1,1.19,1.19V27.38A1.19,1.19,0,0,1,27.38,28.57Z"/><polygon class="cls-1" points="24 15.93 23.99 14.07 10.05 14.12 15.51 9.57 14.32 8.13 6 15.07 14.33 21.87 15.5 20.42 10.06 15.98 24 15.93"/></g></g></svg>