<svg xmlns="http://www.w3.org/2000/svg" xmlns:xlink="http://www.w3.org/1999/xlink" viewBox="0 0 35 35"><defs><style>.cls-1,.cls-17,.cls-2,.cls-8{fill:none;}.cls-17,.cls-2{stroke:#039aff;}.cls-17,.cls-2,.cls-8{stroke-miterlimit:10;}.cls-3{isolation:isolate;}.cls-4{opacity:0.2;mix-blend-mode:multiply;}.cls-5{clip-path:url(#clip-path);}.cls-6{opacity:0.2;}.cls-7{clip-path:url(#clip-path-2);}.cls-8{stroke:#000;}.cls-17,.cls-8{stroke-width:1.75px;}.cls-9{clip-path:url(#clip-path-3);}.cls-10{clip-path:url(#clip-path-4);}.cls-11{clip-path:url(#clip-path-5);}.cls-12{clip-path:url(#clip-path-6);}.cls-13{clip-path:url(#clip-path-7);}.cls-14{clip-path:url(#clip-path-8);}.cls-15{clip-path:url(#clip-path-9);}.cls-16{clip-path:url(#clip-path-10);}.cls-18{fill:#e02127;}.cls-19{fill:#fff;}</style><clipPath id="clip-path"><rect class="cls-1" x="-1345.5" y="-4868" width="1400" height="320"/></clipPath><clipPath id="clip-path-2"><rect class="cls-1" x="-1909.5" y="-5436" width="2528" height="1456"/></clipPath><clipPath id="clip-path-3"><rect class="cls-1" x="-4942.5" y="-4868" width="1400" height="320"/></clipPath><clipPath id="clip-path-4"><rect class="cls-1" x="-5506.5" y="-5436" width="2528" height="1456"/></clipPath><clipPath id="clip-path-5"><rect class="cls-1" x="-3134.5" y="-3927" width="1400" height="320"/></clipPath><clipPath id="clip-path-6"><rect class="cls-1" x="-3698.5" y="-4495" width="2528" height="1456"/></clipPath><clipPath id="clip-path-7"><rect class="cls-1" x="-3134.5" y="-4868" width="1400" height="320"/></clipPath><clipPath id="clip-path-8"><rect class="cls-1" x="-3698.5" y="-5436" width="2528" height="1456"/></clipPath><clipPath id="clip-path-9"><rect class="cls-1" x="-1315.5" y="-5208.5" width="1206" height="340"/></clipPath><clipPath id="clip-path-10"><rect class="cls-2" x="-1976.5" y="-5766.5" width="2528" height="1456"/></clipPath></defs><title>Confirm Trash</title><g class="cls-3"><g id="Shadow_Boxes" data-name="Shadow Boxes"><g class="cls-4"><g class="cls-5"><g class="cls-6"><g class="cls-7"><polyline class="cls-8" points="3632.08 0.66 836.24 -4841.88 -1959.6 0.66"/><polyline class="cls-8" points="3632.08 10.66 836.24 -4831.88 -1959.6 10.66"/><polyline class="cls-8" points="3632.08 20.65 836.24 -4821.88 -1959.6 20.65"/><polyline class="cls-8" points="3632.08 30.65 836.24 -4811.88 -1959.6 30.65"/><polyline class="cls-8" points="3632.08 40.65 836.24 -4801.89 -1959.6 40.65"/><polyline class="cls-8" points="3632.08 50.65 836.24 -4791.89 -1959.6 50.65"/><polyline class="cls-8" points="3632.08 60.64 836.24 -4781.89 -1959.6 60.64"/><polyline class="cls-8" points="3632.08 70.64 836.24 -4771.9 -1959.6 70.64"/><polyline class="cls-8" points="3632.08 80.64 836.24 -4761.9 -1959.6 80.64"/><polyline class="cls-8" points="3632.08 90.64 836.24 -4751.9 -1959.6 90.64"/><polyline class="cls-8" points="3632.08 100.63 836.24 -4741.9 -1959.6 100.63"/><polyline class="cls-8" points="3632.08 110.63 836.24 -4731.91 -1959.6 110.63"/><polyline class="cls-8" points="3632.08 120.63 836.24 -4721.91 -1959.6 120.63"/><polyline class="cls-8" points="3632.08 130.62 836.24 -4711.91 -1959.6 130.62"/><polyline class="cls-8" points="3632.08 140.62 836.24 -4701.91 -1959.6 140.62"/><polyline class="cls-8" points="3632.08 150.62 836.24 -4691.92 -1959.6 150.62"/><polyline class="cls-8" points="3632.08 160.62 836.24 -4681.92 -1959.6 160.62"/><polyline class="cls-8" points="3632.08 170.61 836.24 -4671.92 -1959.6 170.61"/><polyline class="cls-8" points="3632.08 180.61 836.24 -4661.93 -1959.6 180.61"/><polyline class="cls-8" points="3632.08 190.61 836.24 -4651.93 -1959.6 190.61"/><polyline class="cls-8" points="3632.08 200.6 836.24 -4641.93 -1959.6 200.6"/><polyline class="cls-8" points="3632.08 210.6 836.24 -4631.93 -1959.6 210.6"/><polyline class="cls-8" points="3632.08 220.6 836.24 -4621.94 -1959.6 220.6"/><polyline class="cls-8" points="3632.08 230.6 836.24 -4611.94 -1959.6 230.6"/><polyline class="cls-8" points="3632.08 240.59 836.24 -4601.94 -1959.6 240.59"/><polyline class="cls-8" points="3632.08 250.59 836.24 -4591.95 -1959.6 250.59"/><polyline class="cls-8" points="3632.08 260.59 836.24 -4581.95 -1959.6 260.59"/><polyline class="cls-8" points="3632.08 270.59 836.24 -4571.95 -1959.6 270.59"/><polyline class="cls-8" points="3632.08 280.58 836.24 -4561.95 -1959.6 280.58"/><polyline class="cls-8" points="3632.08 290.58 836.24 -4551.96 -1959.6 290.58"/><polyline class="cls-8" points="3632.08 300.58 836.24 -4541.96 -1959.6 300.58"/><polyline class="cls-8" points="3632.08 310.57 836.24 -4531.96 -1959.6 310.57"/><polyline class="cls-8" points="3632.08 320.57 836.24 -4521.97 -1959.6 320.57"/><polyline class="cls-8" points="3632.08 330.57 836.24 -4511.97 -1959.6 330.57"/><polyline class="cls-8" points="3632.08 340.57 836.24 -4501.97 -1959.6 340.57"/><polyline class="cls-8" points="3632.08 350.56 836.24 -4491.97 -1959.6 350.56"/><polyline class="cls-8" points="3632.08 360.56 836.24 -4481.98 -1959.6 360.56"/><polyline class="cls-8" points="3632.08 370.56 836.24 -4471.98 -1959.6 370.56"/><polyline class="cls-8" points="3632.08 380.56 836.24 -4461.98 -1959.6 380.56"/><polyline class="cls-8" points="3632.08 390.55 836.24 -4451.99 -1959.6 390.55"/><polyline class="cls-8" points="3632.08 400.55 836.24 -4441.99 -1959.6 400.55"/><polyline class="cls-8" points="3632.08 410.55 836.24 -4431.99 -1959.6 410.55"/><polyline class="cls-8" points="3632.08 420.54 836.24 -4421.99 -1959.6 420.54"/><polyline class="cls-8" points="3632.08 430.54 836.24 -4412 -1959.6 430.54"/><polyline class="cls-8" points="3632.08 440.54 836.24 -4402 -1959.6 440.54"/><polyline class="cls-8" points="3632.08 450.53 836.24 -4392 -1959.6 450.53"/><polyline class="cls-8" points="3632.08 460.53 836.24 -4382 -1959.6 460.53"/><polyline class="cls-8" points="3632.08 470.53 836.24 -4372.01 -1959.6 470.53"/><polyline class="cls-8" points="3632.08 480.53 836.24 -4362.01 -1959.6 480.53"/><polyline class="cls-8" points="3632.08 490.52 836.24 -4352.01 -1959.6 490.52"/><polyline class="cls-8" points="3632.08 500.52 836.24 -4342.02 -1959.6 500.52"/><polyline class="cls-8" points="3632.08 510.52 836.24 -4332.02 -1959.6 510.52"/><polyline class="cls-8" points="3632.08 520.52 836.24 -4322.02 -1959.6 520.52"/><polyline class="cls-8" points="3632.08 530.51 836.24 -4312.02 -1959.6 530.51"/><polyline class="cls-8" points="3632.08 540.51 836.24 -4302.03 -1959.6 540.51"/><polyline class="cls-8" points="3632.08 550.51 836.24 -4292.03 -1959.6 550.51"/><polyline class="cls-8" points="3632.08 560.5 836.24 -4282.03 -1959.6 560.5"/><polyline class="cls-8" points="3632.08 570.5 836.24 -4272.04 -1959.6 570.5"/><polyline class="cls-8" points="3632.08 580.5 836.24 -4262.04 -1959.6 580.5"/><polyline class="cls-8" points="3632.08 590.5 836.24 -4252.04 -1959.6 590.5"/><polyline class="cls-8" points="3632.08 600.49 836.24 -4242.04 -1959.6 600.49"/><polyline class="cls-8" points="3632.08 610.49 836.24 -4232.05 -1959.6 610.49"/><polyline class="cls-8" points="3632.08 620.49 836.24 -4222.05 -1959.6 620.49"/><polyline class="cls-8" points="3632.08 630.48 836.24 -4212.05 -1959.6 630.48"/><polyline class="cls-8" points="3632.08 640.48 836.24 -4202.06 -1959.6 640.48"/><polyline class="cls-8" points="3632.08 650.48 836.24 -4192.06 -1959.6 650.48"/><polyline class="cls-8" points="3632.08 660.48 836.24 -4182.06 -1959.6 660.48"/><polyline class="cls-8" points="3632.08 670.47 836.24 -4172.06 -1959.6 670.47"/><polyline class="cls-8" points="3632.08 680.47 836.24 -4162.07 -1959.6 680.47"/><polyline class="cls-8" points="3632.08 690.47 836.24 -4152.07 -1959.6 690.47"/><polyline class="cls-8" points="3632.08 700.47 836.24 -4142.07 -1959.6 700.47"/></g></g></g></g><g class="cls-4"><g class="cls-9"><g class="cls-6"><g class="cls-10"><polyline class="cls-8" points="35.08 0.66 -2760.76 -4841.88 -5556.6 0.66"/><polyline class="cls-8" points="35.08 10.66 -2760.76 -4831.88 -5556.6 10.66"/><polyline class="cls-8" points="35.08 20.65 -2760.76 -4821.88 -5556.6 20.65"/><polyline class="cls-8" points="35.08 30.65 -2760.76 -4811.88 -5556.6 30.65"/><polyline class="cls-8" points="35.08 40.65 -2760.76 -4801.89 -5556.6 40.65"/><polyline class="cls-8" points="35.08 50.65 -2760.76 -4791.89 -5556.6 50.65"/><polyline class="cls-8" points="35.08 60.64 -2760.76 -4781.89 -5556.6 60.64"/><polyline class="cls-8" points="35.08 70.64 -2760.76 -4771.9 -5556.6 70.64"/><polyline class="cls-8" points="35.08 80.64 -2760.76 -4761.9 -5556.6 80.64"/><polyline class="cls-8" points="35.08 90.64 -2760.76 -4751.9 -5556.6 90.64"/><polyline class="cls-8" points="35.08 100.63 -2760.76 -4741.9 -5556.6 100.63"/><polyline class="cls-8" points="35.08 110.63 -2760.76 -4731.91 -5556.6 110.63"/><polyline class="cls-8" points="35.08 120.63 -2760.76 -4721.91 -5556.6 120.63"/><polyline class="cls-8" points="35.08 130.62 -2760.76 -4711.91 -5556.6 130.62"/><polyline class="cls-8" points="35.08 140.62 -2760.76 -4701.91 -5556.6 140.62"/><polyline class="cls-8" points="35.08 150.62 -2760.76 -4691.92 -5556.6 150.62"/><polyline class="cls-8" points="35.08 160.62 -2760.76 -4681.92 -5556.6 160.62"/><polyline class="cls-8" points="35.08 170.61 -2760.76 -4671.92 -5556.6 170.61"/><polyline class="cls-8" points="35.08 180.61 -2760.76 -4661.93 -5556.6 180.61"/><polyline class="cls-8" points="35.08 190.61 -2760.76 -4651.93 -5556.6 190.61"/><polyline class="cls-8" points="35.08 200.6 -2760.76 -4641.93 -5556.6 200.6"/><polyline class="cls-8" points="35.08 210.6 -2760.76 -4631.93 -5556.6 210.6"/><polyline class="cls-8" points="35.08 220.6 -2760.76 -4621.94 -5556.6 220.6"/><polyline class="cls-8" points="35.08 230.6 -2760.76 -4611.94 -5556.6 230.6"/><polyline class="cls-8" points="35.08 240.59 -2760.76 -4601.94 -5556.6 240.59"/><polyline class="cls-8" points="35.08 250.59 -2760.76 -4591.95 -5556.6 250.59"/><polyline class="cls-8" points="35.08 260.59 -2760.76 -4581.95 -5556.6 260.59"/><polyline class="cls-8" points="35.08 270.59 -2760.76 -4571.95 -5556.6 270.59"/><polyline class="cls-8" points="35.08 280.58 -2760.76 -4561.95 -5556.6 280.58"/><polyline class="cls-8" points="35.08 290.58 -2760.76 -4551.96 -5556.6 290.58"/><polyline class="cls-8" points="35.08 300.58 -2760.76 -4541.96 -5556.6 300.58"/><polyline class="cls-8" points="35.08 310.57 -2760.76 -4531.96 -5556.6 310.57"/><polyline class="cls-8" points="35.08 320.57 -2760.76 -4521.97 -5556.6 320.57"/><polyline class="cls-8" points="35.08 330.57 -2760.76 -4511.97 -5556.6 330.57"/><polyline class="cls-8" points="35.08 340.57 -2760.76 -4501.97 -5556.6 340.57"/><polyline class="cls-8" points="35.08 350.56 -2760.76 -4491.97 -5556.6 350.56"/><polyline class="cls-8" points="35.08 360.56 -2760.76 -4481.98 -5556.6 360.56"/><polyline class="cls-8" points="35.08 370.56 -2760.76 -4471.98 -5556.6 370.56"/><polyline class="cls-8" points="35.08 380.56 -2760.76 -4461.98 -5556.6 380.56"/><polyline class="cls-8" points="35.08 390.55 -2760.76 -4451.99 -5556.6 390.55"/><polyline class="cls-8" points="35.08 400.55 -2760.76 -4441.99 -5556.6 400.55"/><polyline class="cls-8" points="35.08 410.55 -2760.76 -4431.99 -5556.6 410.55"/><polyline class="cls-8" points="35.08 420.54 -2760.76 -4421.99 -5556.6 420.54"/><polyline class="cls-8" points="35.08 430.54 -2760.76 -4412 -5556.6 430.54"/><polyline class="cls-8" points="35.08 440.54 -2760.76 -4402 -5556.6 440.54"/><polyline class="cls-8" points="35.08 450.53 -2760.76 -4392 -5556.6 450.53"/><polyline class="cls-8" points="35.08 460.53 -2760.76 -4382 -5556.6 460.53"/><polyline class="cls-8" points="35.08 470.53 -2760.76 -4372.01 -5556.6 470.53"/><polyline class="cls-8" points="35.08 480.53 -2760.76 -4362.01 -5556.6 480.53"/><polyline class="cls-8" points="35.08 490.52 -2760.76 -4352.01 -5556.6 490.52"/><polyline class="cls-8" points="35.08 500.52 -2760.76 -4342.02 -5556.6 500.52"/><polyline class="cls-8" points="35.08 510.52 -2760.76 -4332.02 -5556.6 510.52"/><polyline class="cls-8" points="35.08 520.52 -2760.76 -4322.02 -5556.6 520.52"/><polyline class="cls-8" points="35.08 530.51 -2760.76 -4312.02 -5556.6 530.51"/><polyline class="cls-8" points="35.08 540.51 -2760.76 -4302.03 -5556.6 540.51"/><polyline class="cls-8" points="35.08 550.51 -2760.76 -4292.03 -5556.6 550.51"/><polyline class="cls-8" points="35.08 560.5 -2760.76 -4282.03 -5556.6 560.5"/><polyline class="cls-8" points="35.08 570.5 -2760.76 -4272.04 -5556.6 570.5"/><polyline class="cls-8" points="35.08 580.5 -2760.76 -4262.04 -5556.6 580.5"/><polyline class="cls-8" points="35.08 590.5 -2760.76 -4252.04 -5556.6 590.5"/><polyline class="cls-8" points="35.08 600.49 -2760.76 -4242.04 -5556.6 600.49"/><polyline class="cls-8" points="35.08 610.49 -2760.76 -4232.05 -5556.6 610.49"/><polyline class="cls-8" points="35.08 620.49 -2760.76 -4222.05 -5556.6 620.49"/><polyline class="cls-8" points="35.08 630.48 -2760.76 -4212.05 -5556.6 630.48"/><polyline class="cls-8" points="35.08 640.48 -2760.76 -4202.06 -5556.6 640.48"/><polyline class="cls-8" points="35.08 650.48 -2760.76 -4192.06 -5556.6 650.48"/><polyline class="cls-8" points="35.08 660.48 -2760.76 -4182.06 -5556.6 660.48"/><polyline class="cls-8" points="35.08 670.47 -2760.76 -4172.06 -5556.6 670.47"/><polyline class="cls-8" points="35.08 680.47 -2760.76 -4162.07 -5556.6 680.47"/><polyline class="cls-8" points="35.08 690.47 -2760.76 -4152.07 -5556.6 690.47"/><polyline class="cls-8" points="35.08 700.47 -2760.76 -4142.07 -5556.6 700.47"/></g></g></g></g><g class="cls-4"><g class="cls-11"><g class="cls-6"><g class="cls-12"><polyline class="cls-8" points="1843.08 1.92 -952.76 -4840.61 -3748.6 1.92"/><polyline class="cls-8" points="1843.08 11.92 -952.76 -4830.62 -3748.6 11.92"/><polyline class="cls-8" points="1843.08 21.92 -952.76 -4820.62 -3748.6 21.92"/><polyline class="cls-8" points="1843.08 31.91 -952.76 -4810.62 -3748.6 31.91"/><polyline class="cls-8" points="1843.08 41.91 -952.76 -4800.63 -3748.6 41.91"/><polyline class="cls-8" points="1843.08 51.91 -952.76 -4790.63 -3748.6 51.91"/><polyline class="cls-8" points="1843.08 61.91 -952.76 -4780.63 -3748.6 61.91"/><polyline class="cls-8" points="1843.08 71.9 -952.76 -4770.63 -3748.6 71.9"/><polyline class="cls-8" points="1843.08 81.9 -952.76 -4760.64 -3748.6 81.9"/><polyline class="cls-8" points="1843.08 91.9 -952.76 -4750.64 -3748.6 91.9"/><polyline class="cls-8" points="1843.08 101.9 -952.76 -4740.64 -3748.6 101.9"/><polyline class="cls-8" points="1843.08 111.89 -952.76 -4730.65 -3748.6 111.89"/><polyline class="cls-8" points="1843.08 121.89 -952.76 -4720.65 -3748.6 121.89"/><polyline class="cls-8" points="1843.08 131.89 -952.76 -4710.65 -3748.6 131.89"/><polyline class="cls-8" points="1843.08 141.88 -952.76 -4700.65 -3748.6 141.88"/><polyline class="cls-8" points="1843.08 151.88 -952.76 -4690.66 -3748.6 151.88"/><polyline class="cls-8" points="1843.08 161.88 -952.76 -4680.66 -3748.6 161.88"/><polyline class="cls-8" points="1843.08 171.88 -952.76 -4670.66 -3748.6 171.88"/><polyline class="cls-8" points="1843.08 181.87 -952.76 -4660.66 -3748.6 181.87"/><polyline class="cls-8" points="1843.08 191.87 -952.76 -4650.67 -3748.6 191.87"/><polyline class="cls-8" points="1843.08 201.87 -952.76 -4640.67 -3748.6 201.87"/><polyline class="cls-8" points="1843.08 211.86 -952.76 -4630.67 -3748.6 211.86"/><polyline class="cls-8" points="1843.08 221.86 -952.76 -4620.67 -3748.6 221.86"/><polyline class="cls-8" points="1843.08 231.86 -952.76 -4610.68 -3748.6 231.86"/><polyline class="cls-8" points="1843.08 241.86 -952.76 -4600.68 -3748.6 241.86"/><polyline class="cls-8" points="1843.08 251.85 -952.76 -4590.68 -3748.6 251.85"/><polyline class="cls-8" points="1843.08 261.85 -952.76 -4580.69 -3748.6 261.85"/><polyline class="cls-8" points="1843.08 271.85 -952.76 -4570.69 -3748.6 271.85"/><polyline class="cls-8" points="1843.08 281.85 -952.76 -4560.69 -3748.6 281.85"/><polyline class="cls-8" points="1843.08 291.84 -952.76 -4550.7 -3748.6 291.84"/><polyline class="cls-8" points="1843.08 301.84 -952.76 -4540.7 -3748.6 301.84"/><polyline class="cls-8" points="1843.08 311.84 -952.76 -4530.7 -3748.6 311.84"/><polyline class="cls-8" points="1843.08 321.83 -952.76 -4520.7 -3748.6 321.83"/><polyline class="cls-8" points="1843.08 331.83 -952.76 -4510.71 -3748.6 331.83"/><polyline class="cls-8" points="1843.08 341.83 -952.76 -4500.71 -3748.6 341.83"/><polyline class="cls-8" points="1843.08 351.82 -952.76 -4490.71 -3748.6 351.82"/><polyline class="cls-8" points="1843.08 361.82 -952.76 -4480.71 -3748.6 361.82"/><polyline class="cls-8" points="1843.08 371.82 -952.76 -4470.72 -3748.6 371.82"/><polyline class="cls-8" points="1843.08 381.82 -952.76 -4460.72 -3748.6 381.82"/><polyline class="cls-8" points="1843.08 391.81 -952.76 -4450.72 -3748.6 391.81"/><polyline class="cls-8" points="1843.08 401.81 -952.76 -4440.73 -3748.6 401.81"/><polyline class="cls-8" points="1843.08 411.81 -952.76 -4430.73 -3748.6 411.81"/><polyline class="cls-8" points="1843.08 421.81 -952.76 -4420.73 -3748.6 421.81"/><polyline class="cls-8" points="1843.08 431.8 -952.76 -4410.73 -3748.6 431.8"/><polyline class="cls-8" points="1843.08 441.8 -952.76 -4400.74 -3748.6 441.8"/><polyline class="cls-8" points="1843.08 451.8 -952.76 -4390.74 -3748.6 451.8"/><polyline class="cls-8" points="1843.08 461.79 -952.76 -4380.74 -3748.6 461.79"/><polyline class="cls-8" points="1843.08 471.79 -952.76 -4370.75 -3748.6 471.79"/><polyline class="cls-8" points="1843.08 481.79 -952.76 -4360.75 -3748.6 481.79"/><polyline class="cls-8" points="1843.08 491.79 -952.76 -4350.75 -3748.6 491.79"/><polyline class="cls-8" points="1843.08 501.78 -952.76 -4340.75 -3748.6 501.78"/><polyline class="cls-8" points="1843.08 511.78 -952.76 -4330.76 -3748.6 511.78"/><polyline class="cls-8" points="1843.08 521.78 -952.76 -4320.76 -3748.6 521.78"/><polyline class="cls-8" points="1843.08 531.77 -952.76 -4310.76 -3748.6 531.77"/><polyline class="cls-8" points="1843.08 541.77 -952.76 -4300.76 -3748.6 541.77"/><polyline class="cls-8" points="1843.08 551.77 -952.76 -4290.77 -3748.6 551.77"/><polyline class="cls-8" points="1843.08 561.77 -952.76 -4280.77 -3748.6 561.77"/><polyline class="cls-8" points="1843.08 571.76 -952.76 -4270.77 -3748.6 571.76"/><polyline class="cls-8" points="1843.08 581.76 -952.76 -4260.78 -3748.6 581.76"/><polyline class="cls-8" points="1843.08 591.76 -952.76 -4250.78 -3748.6 591.76"/><polyline class="cls-8" points="1843.08 601.76 -952.76 -4240.78 -3748.6 601.76"/><polyline class="cls-8" points="1843.08 611.75 -952.76 -4230.78 -3748.6 611.75"/><polyline class="cls-8" points="1843.08 621.75 -952.76 -4220.79 -3748.6 621.75"/><polyline class="cls-8" points="1843.08 631.75 -952.76 -4210.79 -3748.6 631.75"/><polyline class="cls-8" points="1843.08 641.74 -952.76 -4200.79 -3748.6 641.74"/><polyline class="cls-8" points="1843.08 651.74 -952.76 -4190.8 -3748.6 651.74"/><polyline class="cls-8" points="1843.08 661.74 -952.76 -4180.8 -3748.6 661.74"/><polyline class="cls-8" points="1843.08 671.74 -952.76 -4170.8 -3748.6 671.74"/><polyline class="cls-8" points="1843.08 681.73 -952.76 -4160.8 -3748.6 681.73"/><polyline class="cls-8" points="1843.08 691.73 -952.76 -4150.81 -3748.6 691.73"/><polyline class="cls-8" points="1843.08 701.73 -952.76 -4140.81 -3748.6 701.73"/><polyline class="cls-8" points="1843.08 711.73 -952.76 -4130.81 -3748.6 711.73"/><polyline class="cls-8" points="1843.08 721.72 -952.76 -4120.81 -3748.6 721.72"/><polyline class="cls-8" points="1843.08 731.72 -952.76 -4110.82 -3748.6 731.72"/><polyline class="cls-8" points="1843.08 741.72 -952.76 -4100.82 -3748.6 741.72"/><polyline class="cls-8" points="1843.08 751.71 -952.76 -4090.82 -3748.6 751.71"/><polyline class="cls-8" points="1843.08 761.71 -952.76 -4080.83 -3748.6 761.71"/><polyline class="cls-8" points="1843.08 771.71 -952.76 -4070.83 -3748.6 771.71"/><polyline class="cls-8" points="1843.08 781.7 -952.76 -4060.83 -3748.6 781.7"/><polyline class="cls-8" points="1843.08 791.7 -952.76 -4050.83 -3748.6 791.7"/><polyline class="cls-8" points="1843.08 801.7 -952.76 -4040.84 -3748.6 801.7"/><polyline class="cls-8" points="1843.08 811.7 -952.76 -4030.84 -3748.6 811.7"/><polyline class="cls-8" points="1843.08 821.69 -952.76 -4020.84 -3748.6 821.69"/><polyline class="cls-8" points="1843.08 831.69 -952.76 -4010.85 -3748.6 831.69"/><polyline class="cls-8" points="1843.08 841.69 -952.76 -4000.85 -3748.6 841.69"/><polyline class="cls-8" points="1843.08 851.69 -952.76 -3990.85 -3748.6 851.69"/><polyline class="cls-8" points="1843.08 861.68 -952.76 -3980.85 -3748.6 861.68"/><polyline class="cls-8" points="1843.08 871.68 -952.76 -3970.86 -3748.6 871.68"/><polyline class="cls-8" points="1843.08 881.68 -952.76 -3960.86 -3748.6 881.68"/><polyline class="cls-8" points="1843.08 891.67 -952.76 -3950.86 -3748.6 891.67"/><polyline class="cls-8" points="1843.08 901.67 -952.76 -3940.87 -3748.6 901.67"/><polyline class="cls-8" points="1843.08 911.67 -952.76 -3930.87 -3748.6 911.67"/><polyline class="cls-8" points="1843.08 921.67 -952.76 -3920.87 -3748.6 921.67"/><polyline class="cls-8" points="1843.08 931.66 -952.76 -3910.87 -3748.6 931.66"/><polyline class="cls-8" points="1843.08 941.66 -952.76 -3900.88 -3748.6 941.66"/><polyline class="cls-8" points="1843.08 951.66 -952.76 -3890.88 -3748.6 951.66"/><polyline class="cls-8" points="1843.08 961.65 -952.76 -3880.88 -3748.6 961.65"/><polyline class="cls-8" points="1843.08 971.65 -952.76 -3870.88 -3748.6 971.65"/><polyline class="cls-8" points="1843.08 981.65 -952.76 -3860.89 -3748.6 981.65"/><polyline class="cls-8" points="1843.08 991.65 -952.76 -3850.89 -3748.6 991.65"/><polyline class="cls-8" points="1843.08 1001.64 -952.76 -3840.89 -3748.6 1001.64"/><polyline class="cls-8" points="1843.08 1011.64 -952.76 -3830.9 -3748.6 1011.64"/><polyline class="cls-8" points="1843.08 1021.64 -952.76 -3820.9 -3748.6 1021.64"/><polyline class="cls-8" points="1843.08 1031.64 -952.76 -3810.9 -3748.6 1031.64"/><polyline class="cls-8" points="1843.08 1041.63 -952.76 -3800.9 -3748.6 1041.63"/><polyline class="cls-8" points="1843.08 1051.63 -952.76 -3790.91 -3748.6 1051.63"/><polyline class="cls-8" points="1843.08 1061.63 -952.76 -3780.91 -3748.6 1061.63"/><polyline class="cls-8" points="1843.08 1071.62 -952.76 -3770.91 -3748.6 1071.62"/><polyline class="cls-8" points="1843.08 1081.62 -952.76 -3760.91 -3748.6 1081.62"/><polyline class="cls-8" points="1843.08 1091.62 -952.76 -3750.92 -3748.6 1091.62"/><polyline class="cls-8" points="1843.08 1101.62 -952.76 -3740.92 -3748.6 1101.62"/><polyline class="cls-8" points="1843.08 1111.61 -952.76 -3730.92 -3748.6 1111.61"/><polyline class="cls-8" points="1843.08 1121.61 -952.76 -3720.93 -3748.6 1121.61"/><polyline class="cls-8" points="1843.08 1131.61 -952.76 -3710.93 -3748.6 1131.61"/><polyline class="cls-8" points="1843.08 1141.6 -952.76 -3700.93 -3748.6 1141.6"/><polyline class="cls-8" points="1843.08 1151.6 -952.76 -3690.93 -3748.6 1151.6"/><polyline class="cls-8" points="1843.08 1161.6 -952.76 -3680.94 -3748.6 1161.6"/><polyline class="cls-8" points="1843.08 1171.6 -952.76 -3670.94 -3748.6 1171.6"/><polyline class="cls-8" points="1843.08 1181.59 -952.76 -3660.94 -3748.6 1181.59"/><polyline class="cls-8" points="1843.08 1191.59 -952.76 -3650.95 -3748.6 1191.59"/><polyline class="cls-8" points="1843.08 1201.59 -952.76 -3640.95 -3748.6 1201.59"/><polyline class="cls-8" points="1843.08 1211.59 -952.76 -3630.95 -3748.6 1211.59"/><polyline class="cls-8" points="1843.08 1221.58 -952.76 -3620.95 -3748.6 1221.58"/><polyline class="cls-8" points="1843.08 1231.58 -952.76 -3610.96 -3748.6 1231.58"/><polyline class="cls-8" points="1843.08 1241.58 -952.76 -3600.96 -3748.6 1241.58"/><polyline class="cls-8" points="1843.08 1251.57 -952.76 -3590.96 -3748.6 1251.57"/><polyline class="cls-8" points="1843.08 1261.57 -952.76 -3580.97 -3748.6 1261.57"/><polyline class="cls-8" points="1843.08 1271.57 -952.76 -3570.97 -3748.6 1271.57"/><polyline class="cls-8" points="1843.08 1281.57 -952.76 -3560.97 -3748.6 1281.57"/><polyline class="cls-8" points="1843.08 1291.56 -952.76 -3550.97 -3748.6 1291.56"/><polyline class="cls-8" points="1843.08 1301.56 -952.76 -3540.98 -3748.6 1301.56"/><polyline class="cls-8" points="1843.08 1311.56 -952.76 -3530.98 -3748.6 1311.56"/><polyline class="cls-8" points="1843.08 1321.56 -952.76 -3520.98 -3748.6 1321.56"/><polyline class="cls-8" points="1843.08 1331.55 -952.76 -3510.99 -3748.6 1331.55"/><polyline class="cls-8" points="1843.08 1341.55 -952.76 -3500.99 -3748.6 1341.55"/><polyline class="cls-8" points="1843.08 1351.55 -952.76 -3490.99 -3748.6 1351.55"/><polyline class="cls-8" points="1843.08 1361.54 -952.76 -3480.99 -3748.6 1361.54"/><polyline class="cls-8" points="1843.08 1371.54 -952.76 -3471 -3748.6 1371.54"/><polyline class="cls-8" points="1843.08 1381.54 -952.76 -3461 -3748.6 1381.54"/><polyline class="cls-8" points="1843.08 1391.53 -952.76 -3451 -3748.6 1391.53"/><polyline class="cls-8" points="1843.08 1401.53 -952.76 -3441 -3748.6 1401.53"/><polyline class="cls-8" points="1843.08 1411.53 -952.76 -3431.01 -3748.6 1411.53"/><polyline class="cls-8" points="1843.08 1421.53 -952.76 -3421.01 -3748.6 1421.53"/><polyline class="cls-8" points="1843.08 1431.52 -952.76 -3411.01 -3748.6 1431.52"/><polyline class="cls-8" points="1843.08 1441.52 -952.76 -3401.02 -3748.6 1441.52"/><polyline class="cls-8" points="1843.08 1451.52 -952.76 -3391.02 -3748.6 1451.52"/><polyline class="cls-8" points="1843.08 1461.52 -952.76 -3381.02 -3748.6 1461.52"/><polyline class="cls-8" points="1843.08 1471.51 -952.76 -3371.02 -3748.6 1471.51"/><polyline class="cls-8" points="1843.08 1481.51 -952.76 -3361.03 -3748.6 1481.51"/><polyline class="cls-8" points="1843.08 1491.51 -952.76 -3351.03 -3748.6 1491.51"/><polyline class="cls-8" points="1843.08 1501.5 -952.76 -3341.03 -3748.6 1501.5"/><polyline class="cls-8" points="1843.08 1511.5 -952.76 -3331.04 -3748.6 1511.5"/><polyline class="cls-8" points="1843.08 1521.5 -952.76 -3321.04 -3748.6 1521.5"/><polyline class="cls-8" points="1843.08 1531.5 -952.76 -3311.04 -3748.6 1531.5"/><polyline class="cls-8" points="1843.08 1541.49 -952.76 -3301.04 -3748.6 1541.49"/><polyline class="cls-8" points="1843.08 1551.49 -952.76 -3291.05 -3748.6 1551.49"/><polyline class="cls-8" points="1843.08 1561.49 -952.76 -3281.05 -3748.6 1561.49"/><polyline class="cls-8" points="1843.08 1571.48 -952.76 -3271.05 -3748.6 1571.48"/><polyline class="cls-8" points="1843.08 1581.48 -952.76 -3261.06 -3748.6 1581.48"/><polyline class="cls-8" points="1843.08 1591.48 -952.76 -3251.06 -3748.6 1591.48"/><polyline class="cls-8" points="1843.08 1601.48 -952.76 -3241.06 -3748.6 1601.48"/><polyline class="cls-8" points="1843.08 1611.47 -952.76 -3231.06 -3748.6 1611.47"/><polyline class="cls-8" points="1843.08 1621.47 -952.76 -3221.07 -3748.6 1621.47"/><polyline class="cls-8" points="1843.08 1631.47 -952.76 -3211.07 -3748.6 1631.47"/><polyline class="cls-8" points="1843.08 1641.47 -952.76 -3201.07 -3748.6 1641.47"/></g></g></g></g><g class="cls-4"><g class="cls-13"><g class="cls-6"><g class="cls-14"><polyline class="cls-8" points="1843.08 0.66 -952.76 -4841.88 -3748.6 0.66"/><polyline class="cls-8" points="1843.08 10.66 -952.76 -4831.88 -3748.6 10.66"/><polyline class="cls-8" points="1843.08 20.65 -952.76 -4821.88 -3748.6 20.65"/><polyline class="cls-8" points="1843.08 30.65 -952.76 -4811.88 -3748.6 30.65"/><polyline class="cls-8" points="1843.08 40.65 -952.76 -4801.89 -3748.6 40.65"/><polyline class="cls-8" points="1843.08 50.65 -952.76 -4791.89 -3748.6 50.65"/><polyline class="cls-8" points="1843.08 60.64 -952.76 -4781.89 -3748.6 60.64"/><polyline class="cls-8" points="1843.08 70.64 -952.76 -4771.9 -3748.6 70.64"/><polyline class="cls-8" points="1843.08 80.64 -952.76 -4761.9 -3748.6 80.64"/><polyline class="cls-8" points="1843.08 90.64 -952.76 -4751.9 -3748.6 90.64"/><polyline class="cls-8" points="1843.08 100.63 -952.76 -4741.9 -3748.6 100.63"/><polyline class="cls-8" points="1843.08 110.63 -952.76 -4731.91 -3748.6 110.63"/><polyline class="cls-8" points="1843.08 120.63 -952.76 -4721.91 -3748.6 120.63"/><polyline class="cls-8" points="1843.08 130.62 -952.76 -4711.91 -3748.6 130.62"/><polyline class="cls-8" points="1843.08 140.62 -952.76 -4701.91 -3748.6 140.62"/><polyline class="cls-8" points="1843.08 150.62 -952.76 -4691.92 -3748.6 150.62"/><polyline class="cls-8" points="1843.08 160.62 -952.76 -4681.92 -3748.6 160.62"/><polyline class="cls-8" points="1843.08 170.61 -952.76 -4671.92 -3748.6 170.61"/><polyline class="cls-8" points="1843.08 180.61 -952.76 -4661.93 -3748.6 180.61"/><polyline class="cls-8" points="1843.08 190.61 -952.76 -4651.93 -3748.6 190.61"/><polyline class="cls-8" points="1843.08 200.6 -952.76 -4641.93 -3748.6 200.6"/><polyline class="cls-8" points="1843.08 210.6 -952.76 -4631.93 -3748.6 210.6"/><polyline class="cls-8" points="1843.08 220.6 -952.76 -4621.94 -3748.6 220.6"/><polyline class="cls-8" points="1843.08 230.6 -952.76 -4611.94 -3748.6 230.6"/><polyline class="cls-8" points="1843.08 240.59 -952.76 -4601.94 -3748.6 240.59"/><polyline class="cls-8" points="1843.08 250.59 -952.76 -4591.95 -3748.6 250.59"/><polyline class="cls-8" points="1843.08 260.59 -952.76 -4581.95 -3748.6 260.59"/><polyline class="cls-8" points="1843.08 270.59 -952.76 -4571.95 -3748.6 270.59"/><polyline class="cls-8" points="1843.08 280.58 -952.76 -4561.95 -3748.6 280.58"/><polyline class="cls-8" points="1843.08 290.58 -952.76 -4551.96 -3748.6 290.58"/><polyline class="cls-8" points="1843.08 300.58 -952.76 -4541.96 -3748.6 300.58"/><polyline class="cls-8" points="1843.08 310.57 -952.76 -4531.96 -3748.6 310.57"/><polyline class="cls-8" points="1843.08 320.57 -952.76 -4521.97 -3748.6 320.57"/><polyline class="cls-8" points="1843.08 330.57 -952.76 -4511.97 -3748.6 330.57"/><polyline class="cls-8" points="1843.08 340.57 -952.76 -4501.97 -3748.6 340.57"/><polyline class="cls-8" points="1843.08 350.56 -952.76 -4491.97 -3748.6 350.56"/><polyline class="cls-8" points="1843.08 360.56 -952.76 -4481.98 -3748.6 360.56"/><polyline class="cls-8" points="1843.08 370.56 -952.76 -4471.98 -3748.6 370.56"/><polyline class="cls-8" points="1843.08 380.56 -952.76 -4461.98 -3748.6 380.56"/><polyline class="cls-8" points="1843.08 390.55 -952.76 -4451.99 -3748.6 390.55"/><polyline class="cls-8" points="1843.08 400.55 -952.76 -4441.99 -3748.6 400.55"/><polyline class="cls-8" points="1843.08 410.55 -952.76 -4431.99 -3748.6 410.55"/><polyline class="cls-8" points="1843.08 420.54 -952.76 -4421.99 -3748.6 420.54"/><polyline class="cls-8" points="1843.08 430.54 -952.76 -4412 -3748.6 430.54"/><polyline class="cls-8" points="1843.08 440.54 -952.76 -4402 -3748.6 440.54"/><polyline class="cls-8" points="1843.08 450.53 -952.76 -4392 -3748.6 450.53"/><polyline class="cls-8" points="1843.08 460.53 -952.76 -4382 -3748.6 460.53"/><polyline class="cls-8" points="1843.08 470.53 -952.76 -4372.01 -3748.6 470.53"/><polyline class="cls-8" points="1843.08 480.53 -952.76 -4362.01 -3748.6 480.53"/><polyline class="cls-8" points="1843.08 490.52 -952.76 -4352.01 -3748.6 490.52"/><polyline class="cls-8" points="1843.08 500.52 -952.76 -4342.02 -3748.6 500.52"/><polyline class="cls-8" points="1843.08 510.52 -952.76 -4332.02 -3748.6 510.52"/><polyline class="cls-8" points="1843.08 520.52 -952.76 -4322.02 -3748.6 520.52"/><polyline class="cls-8" points="1843.08 530.51 -952.76 -4312.02 -3748.6 530.51"/><polyline class="cls-8" points="1843.08 540.51 -952.76 -4302.03 -3748.6 540.51"/><polyline class="cls-8" points="1843.08 550.51 -952.76 -4292.03 -3748.6 550.51"/><polyline class="cls-8" points="1843.08 560.5 -952.76 -4282.03 -3748.6 560.5"/><polyline class="cls-8" points="1843.08 570.5 -952.76 -4272.04 -3748.6 570.5"/><polyline class="cls-8" points="1843.08 580.5 -952.76 -4262.04 -3748.6 580.5"/><polyline class="cls-8" points="1843.08 590.5 -952.76 -4252.04 -3748.6 590.5"/><polyline class="cls-8" points="1843.08 600.49 -952.76 -4242.04 -3748.6 600.49"/><polyline class="cls-8" points="1843.08 610.49 -952.76 -4232.05 -3748.6 610.49"/><polyline class="cls-8" points="1843.08 620.49 -952.76 -4222.05 -3748.6 620.49"/><polyline class="cls-8" points="1843.08 630.48 -952.76 -4212.05 -3748.6 630.48"/><polyline class="cls-8" points="1843.08 640.48 -952.76 -4202.06 -3748.6 640.48"/><polyline class="cls-8" points="1843.08 650.48 -952.76 -4192.06 -3748.6 650.48"/><polyline class="cls-8" points="1843.08 660.48 -952.76 -4182.06 -3748.6 660.48"/><polyline class="cls-8" points="1843.08 670.47 -952.76 -4172.06 -3748.6 670.47"/><polyline class="cls-8" points="1843.08 680.47 -952.76 -4162.07 -3748.6 680.47"/><polyline class="cls-8" points="1843.08 690.47 -952.76 -4152.07 -3748.6 690.47"/><polyline class="cls-8" points="1843.08 700.47 -952.76 -4142.07 -3748.6 700.47"/></g></g></g></g></g><g id="Layer_1" data-name="Layer 1"><g class="cls-4"><g class="cls-15"><g class="cls-6"><g class="cls-16"><polyline class="cls-17" points="3565.08 0.07 769.24 -4842.47 -2026.6 0.07"/><polyline class="cls-17" points="3565.08 10.07 769.24 -4832.47 -2026.6 10.07"/><polyline class="cls-17" points="3565.08 20.06 769.24 -4822.47 -2026.6 20.06"/><polyline class="cls-17" points="3565.08 30.06 769.24 -4812.48 -2026.6 30.06"/><polyline class="cls-17" points="3565.08 40.06 769.24 -4802.48 -2026.6 40.06"/><polyline class="cls-17" points="3565.08 50.06 769.24 -4792.48 -2026.6 50.06"/><polyline class="cls-17" points="3565.08 60.05 769.24 -4782.49 -2026.6 60.05"/><polyline class="cls-17" points="3565.08 70.05 769.24 -4772.49 -2026.6 70.05"/><polyline class="cls-17" points="3565.08 80.05 769.24 -4762.49 -2026.6 80.05"/><polyline class="cls-17" points="3565.08 90.04 769.24 -4752.49 -2026.6 90.04"/><polyline class="cls-17" points="3565.08 100.04 769.24 -4742.5 -2026.6 100.04"/><polyline class="cls-17" points="3565.08 110.04 769.24 -4732.5 -2026.6 110.04"/><polyline class="cls-17" points="3565.08 120.03 769.24 -4722.5 -2026.6 120.03"/><polyline class="cls-17" points="3565.08 130.03 769.24 -4712.5 -2026.6 130.03"/><polyline class="cls-17" points="3565.08 140.03 769.24 -4702.51 -2026.6 140.03"/><polyline class="cls-17" points="3565.08 150.03 769.24 -4692.51 -2026.6 150.03"/><polyline class="cls-17" points="3565.08 160.02 769.24 -4682.51 -2026.6 160.02"/><polyline class="cls-17" points="3565.08 170.02 769.24 -4672.52 -2026.6 170.02"/><polyline class="cls-17" points="3565.08 180.02 769.24 -4662.52 -2026.6 180.02"/><polyline class="cls-17" points="3565.08 190.02 769.24 -4652.52 -2026.6 190.02"/><polyline class="cls-17" points="3565.08 200.01 769.24 -4642.52 -2026.6 200.01"/><polyline class="cls-17" points="3565.08 210.01 769.24 -4632.53 -2026.6 210.01"/><polyline class="cls-17" points="3565.08 220.01 769.24 -4622.53 -2026.6 220.01"/><polyline class="cls-17" points="3565.08 230 769.24 -4612.53 -2026.6 230"/><polyline class="cls-17" points="3565.08 240 769.24 -4602.54 -2026.6 240"/><polyline class="cls-17" points="3565.08 250 769.24 -4592.54 -2026.6 250"/><polyline class="cls-17" points="3565.08 260 769.24 -4582.54 -2026.6 260"/><polyline class="cls-17" points="3565.08 269.99 769.24 -4572.54 -2026.6 269.99"/><polyline class="cls-17" points="3565.08 279.99 769.24 -4562.55 -2026.6 279.99"/><polyline class="cls-17" points="3565.08 289.99 769.24 -4552.55 -2026.6 289.99"/><polyline class="cls-17" points="3565.08 299.98 769.24 -4542.55 -2026.6 299.98"/><polyline class="cls-17" points="3565.08 309.98 769.24 -4532.56 -2026.6 309.98"/><polyline class="cls-17" points="3565.08 319.98 769.24 -4522.56 -2026.6 319.98"/><polyline class="cls-17" points="3565.08 329.98 769.24 -4512.56 -2026.6 329.98"/><polyline class="cls-17" points="3565.08 339.97 769.24 -4502.56 -2026.6 339.97"/><polyline class="cls-17" points="3565.08 349.97 769.24 -4492.57 -2026.6 349.97"/><polyline class="cls-17" points="3565.08 359.97 769.24 -4482.57 -2026.6 359.97"/><polyline class="cls-17" points="3565.08 369.97 769.24 -4472.57 -2026.6 369.97"/></g><rect class="cls-2" x="-1976.5" y="-5766.5" width="2528" height="1456"/></g></g></g></g><g id="Highlighted_Wells_Groups" data-name="Highlighted Wells Groups"><rect class="cls-18" width="35" height="35"/><path class="cls-19" d="M24.63,10.75H20.88V9.05c0-.3,0-.55-.28-.55h-6c-.82,0-.86,0-.86.55v1.7H10.58a.68.68,0,0,0-.58.66v2.35c0,.31.28.74.58.74h.17V26c0,.3.57.55.87.55h12c.3,0,.29-.25.29-.55V14.5h.75c.3,0,.37-.43.37-.74V11.41C25,11.1,24.93,10.75,24.63,10.75ZM14.88,9.62h4.87v1.13H14.88Zm-3.76,2.26H23.88v1.5H11.12Zm11.63,13.5H11.88V14.5h1.87v7.22a.57.57,0,0,0,1.13,0V14.5h1.87v7.22a.57.57,0,0,0,1.13,0V14.5h1.87v7.22a.57.57,0,0,0,1.13,0V14.5h1.87V25.38Z"/></g></g></svg>