<svg xmlns="http://www.w3.org/2000/svg" viewBox="0 0 50 50"><defs><style>.cls-1{fill:#939598;}</style></defs><g id="Layer_2" data-name="Layer 2"><g id="Layer_1-2" data-name="Layer 1"><path class="cls-1" d="M25,3A22,22,0,1,1,9.44,9.44,21.88,21.88,0,0,1,25,3m0-3A25,25,0,1,0,42.68,7.32,24.93,24.93,0,0,0,25,0ZM16.87,35.49,35.49,16.87a1.53,1.53,0,0,0,.44-1.06,1.5,1.5,0,0,0-2.56-1.06l-9.31,9.31h0l-9.31,9.31a1.45,1.45,0,0,0-.44,1.06,1.47,1.47,0,0,0,.44,1.06,1.49,1.49,0,0,0,1.06.44A1.53,1.53,0,0,0,16.87,35.49Z"/></g></g></svg>