<svg xmlns="http://www.w3.org/2000/svg" viewBox="0 0 51.21 51.21"><defs><style>.cls-1{fill:#333;}</style></defs><g id="Layer_2" data-name="Layer 2"><g id="_0" data-name="0"><g id="New_Symbol_9" data-name="New Symbol 9"><path class="cls-1" d="M43.71,7.5a25.6,25.6,0,1,0,0,36.21A25.6,25.6,0,0,0,43.71,7.5Zm-2.18,34a22.53,22.53,0,1,1,0-31.86A22.54,22.54,0,0,1,41.53,41.53Z"/><path class="cls-1" d="M34.41,15.34,25.6,24.15l-8.81-8.81a1.54,1.54,0,1,0-2.17,2.18l8.81,8.81-8.09,8.08a1.54,1.54,0,0,0,2.18,2.18L25.6,28.5l8.09,8.09a1.54,1.54,0,0,0,2.17-2.18l-8.08-8.08,8.81-8.81a1.54,1.54,0,1,0-2.18-2.18Z"/></g></g></g></svg>