<svg xmlns="http://www.w3.org/2000/svg" xmlns:xlink="http://www.w3.org/1999/xlink" viewBox="0 0 13.5 18"><defs><style>.cls-1,.cls-17,.cls-2,.cls-8{fill:none;}.cls-17,.cls-2{stroke:#039aff;}.cls-17,.cls-2,.cls-8{stroke-miterlimit:10;}.cls-3{isolation:isolate;}.cls-4{opacity:0.2;mix-blend-mode:multiply;}.cls-5{clip-path:url(#clip-path);}.cls-6{opacity:0.2;}.cls-7{clip-path:url(#clip-path-2);}.cls-8{stroke:#000;}.cls-17,.cls-8{stroke-width:1.75px;}.cls-9{clip-path:url(#clip-path-3);}.cls-10{clip-path:url(#clip-path-4);}.cls-11{clip-path:url(#clip-path-5);}.cls-12{clip-path:url(#clip-path-6);}.cls-13{clip-path:url(#clip-path-7);}.cls-14{clip-path:url(#clip-path-8);}.cls-15{clip-path:url(#clip-path-9);}.cls-16{clip-path:url(#clip-path-10);}.cls-18{fill:#bfbfbf;}</style><clipPath id="clip-path"><rect class="cls-1" x="-1296.25" y="-4866.5" width="1400" height="320"/></clipPath><clipPath id="clip-path-2"><rect class="cls-1" x="-1860.25" y="-5434.5" width="2528" height="1456"/></clipPath><clipPath id="clip-path-3"><rect class="cls-1" x="-4893.25" y="-4866.5" width="1400" height="320"/></clipPath><clipPath id="clip-path-4"><rect class="cls-1" x="-5457.25" y="-5434.5" width="2528" height="1456"/></clipPath><clipPath id="clip-path-5"><rect class="cls-1" x="-3085.25" y="-3925.5" width="1400" height="320"/></clipPath><clipPath id="clip-path-6"><rect class="cls-1" x="-3649.25" y="-4493.5" width="2528" height="1456"/></clipPath><clipPath id="clip-path-7"><rect class="cls-1" x="-3085.25" y="-4866.5" width="1400" height="320"/></clipPath><clipPath id="clip-path-8"><rect class="cls-1" x="-3649.25" y="-5434.5" width="2528" height="1456"/></clipPath><clipPath id="clip-path-9"><rect class="cls-1" x="-1266.25" y="-5207" width="1206" height="340"/></clipPath><clipPath id="clip-path-10"><rect class="cls-2" x="-1927.25" y="-5765" width="2528" height="1456"/></clipPath></defs><title>Lock G</title><g class="cls-3"><g id="Shadow_Boxes" data-name="Shadow Boxes"><g class="cls-4"><g class="cls-5"><g class="cls-6"><g class="cls-7"><polyline class="cls-8" points="3681.33 2.16 885.49 -4840.38 -1910.35 2.16"/><polyline class="cls-8" points="3681.33 12.16 885.49 -4830.38 -1910.35 12.16"/><polyline class="cls-8" points="3681.33 22.15 885.49 -4820.38 -1910.35 22.15"/><polyline class="cls-8" points="3681.33 32.15 885.49 -4810.38 -1910.35 32.15"/><polyline class="cls-8" points="3681.33 42.15 885.49 -4800.39 -1910.35 42.15"/><polyline class="cls-8" points="3681.33 52.15 885.49 -4790.39 -1910.35 52.15"/><polyline class="cls-8" points="3681.33 62.14 885.49 -4780.39 -1910.35 62.14"/><polyline class="cls-8" points="3681.33 72.14 885.49 -4770.4 -1910.35 72.14"/><polyline class="cls-8" points="3681.33 82.14 885.49 -4760.4 -1910.35 82.14"/><polyline class="cls-8" points="3681.33 92.14 885.49 -4750.4 -1910.35 92.14"/><polyline class="cls-8" points="3681.33 102.13 885.49 -4740.4 -1910.35 102.13"/><polyline class="cls-8" points="3681.33 112.13 885.49 -4730.41 -1910.35 112.13"/><polyline class="cls-8" points="3681.33 122.13 885.49 -4720.41 -1910.35 122.13"/><polyline class="cls-8" points="3681.33 132.12 885.49 -4710.41 -1910.35 132.12"/><polyline class="cls-8" points="3681.33 142.12 885.49 -4700.41 -1910.35 142.12"/><polyline class="cls-8" points="3681.33 152.12 885.49 -4690.42 -1910.35 152.12"/><polyline class="cls-8" points="3681.33 162.12 885.49 -4680.42 -1910.35 162.12"/><polyline class="cls-8" points="3681.33 172.11 885.49 -4670.42 -1910.35 172.11"/><polyline class="cls-8" points="3681.33 182.11 885.49 -4660.43 -1910.35 182.11"/><polyline class="cls-8" points="3681.33 192.11 885.49 -4650.43 -1910.35 192.11"/><polyline class="cls-8" points="3681.33 202.1 885.49 -4640.43 -1910.35 202.1"/><polyline class="cls-8" points="3681.33 212.1 885.49 -4630.43 -1910.35 212.1"/><polyline class="cls-8" points="3681.33 222.1 885.49 -4620.44 -1910.35 222.1"/><polyline class="cls-8" points="3681.33 232.1 885.49 -4610.44 -1910.35 232.1"/><polyline class="cls-8" points="3681.33 242.09 885.49 -4600.44 -1910.35 242.09"/><polyline class="cls-8" points="3681.33 252.09 885.49 -4590.45 -1910.35 252.09"/><polyline class="cls-8" points="3681.33 262.09 885.49 -4580.45 -1910.35 262.09"/><polyline class="cls-8" points="3681.33 272.09 885.49 -4570.45 -1910.35 272.09"/><polyline class="cls-8" points="3681.33 282.08 885.49 -4560.45 -1910.35 282.08"/><polyline class="cls-8" points="3681.33 292.08 885.49 -4550.46 -1910.35 292.08"/><polyline class="cls-8" points="3681.33 302.08 885.49 -4540.46 -1910.35 302.08"/><polyline class="cls-8" points="3681.33 312.07 885.49 -4530.46 -1910.35 312.07"/><polyline class="cls-8" points="3681.33 322.07 885.49 -4520.47 -1910.35 322.07"/><polyline class="cls-8" points="3681.33 332.07 885.49 -4510.47 -1910.35 332.07"/><polyline class="cls-8" points="3681.33 342.07 885.49 -4500.47 -1910.35 342.07"/><polyline class="cls-8" points="3681.33 352.06 885.49 -4490.47 -1910.35 352.06"/><polyline class="cls-8" points="3681.33 362.06 885.49 -4480.48 -1910.35 362.06"/><polyline class="cls-8" points="3681.33 372.06 885.49 -4470.48 -1910.35 372.06"/><polyline class="cls-8" points="3681.33 382.06 885.49 -4460.48 -1910.35 382.06"/><polyline class="cls-8" points="3681.33 392.05 885.49 -4450.49 -1910.35 392.05"/><polyline class="cls-8" points="3681.33 402.05 885.49 -4440.49 -1910.35 402.05"/><polyline class="cls-8" points="3681.33 412.05 885.49 -4430.49 -1910.35 412.05"/><polyline class="cls-8" points="3681.33 422.04 885.49 -4420.49 -1910.35 422.04"/><polyline class="cls-8" points="3681.33 432.04 885.49 -4410.5 -1910.35 432.04"/><polyline class="cls-8" points="3681.33 442.04 885.49 -4400.5 -1910.35 442.04"/><polyline class="cls-8" points="3681.33 452.03 885.49 -4390.5 -1910.35 452.03"/><polyline class="cls-8" points="3681.33 462.03 885.49 -4380.5 -1910.35 462.03"/><polyline class="cls-8" points="3681.33 472.03 885.49 -4370.51 -1910.35 472.03"/><polyline class="cls-8" points="3681.33 482.03 885.49 -4360.51 -1910.35 482.03"/><polyline class="cls-8" points="3681.33 492.02 885.49 -4350.51 -1910.35 492.02"/><polyline class="cls-8" points="3681.33 502.02 885.49 -4340.52 -1910.35 502.02"/><polyline class="cls-8" points="3681.33 512.02 885.49 -4330.52 -1910.35 512.02"/><polyline class="cls-8" points="3681.33 522.02 885.49 -4320.52 -1910.35 522.02"/><polyline class="cls-8" points="3681.33 532.01 885.49 -4310.52 -1910.35 532.01"/><polyline class="cls-8" points="3681.33 542.01 885.49 -4300.53 -1910.35 542.01"/><polyline class="cls-8" points="3681.33 552.01 885.49 -4290.53 -1910.35 552.01"/><polyline class="cls-8" points="3681.33 562 885.49 -4280.53 -1910.35 562"/><polyline class="cls-8" points="3681.33 572 885.49 -4270.54 -1910.35 572"/><polyline class="cls-8" points="3681.33 582 885.49 -4260.54 -1910.35 582"/><polyline class="cls-8" points="3681.33 592 885.49 -4250.54 -1910.35 592"/><polyline class="cls-8" points="3681.33 601.99 885.49 -4240.54 -1910.35 601.99"/><polyline class="cls-8" points="3681.33 611.99 885.49 -4230.55 -1910.35 611.99"/><polyline class="cls-8" points="3681.33 621.99 885.49 -4220.55 -1910.35 621.99"/><polyline class="cls-8" points="3681.33 631.98 885.49 -4210.55 -1910.35 631.98"/><polyline class="cls-8" points="3681.33 641.98 885.49 -4200.56 -1910.35 641.98"/><polyline class="cls-8" points="3681.33 651.98 885.49 -4190.56 -1910.35 651.98"/><polyline class="cls-8" points="3681.33 661.98 885.49 -4180.56 -1910.35 661.98"/><polyline class="cls-8" points="3681.33 671.97 885.49 -4170.56 -1910.35 671.97"/><polyline class="cls-8" points="3681.33 681.97 885.49 -4160.57 -1910.35 681.97"/><polyline class="cls-8" points="3681.33 691.97 885.49 -4150.57 -1910.35 691.97"/><polyline class="cls-8" points="3681.33 701.97 885.49 -4140.57 -1910.35 701.97"/></g></g></g></g><g class="cls-4"><g class="cls-9"><g class="cls-6"><g class="cls-10"><polyline class="cls-8" points="84.33 2.16 -2711.51 -4840.38 -5507.35 2.16"/><polyline class="cls-8" points="84.33 12.16 -2711.51 -4830.38 -5507.35 12.16"/><polyline class="cls-8" points="84.33 22.15 -2711.51 -4820.38 -5507.35 22.15"/><polyline class="cls-8" points="84.33 32.15 -2711.51 -4810.38 -5507.35 32.15"/><polyline class="cls-8" points="84.33 42.15 -2711.51 -4800.39 -5507.35 42.15"/><polyline class="cls-8" points="84.33 52.15 -2711.51 -4790.39 -5507.35 52.15"/><polyline class="cls-8" points="84.33 62.14 -2711.51 -4780.39 -5507.35 62.14"/><polyline class="cls-8" points="84.33 72.14 -2711.51 -4770.4 -5507.35 72.14"/><polyline class="cls-8" points="84.33 82.14 -2711.51 -4760.4 -5507.35 82.14"/><polyline class="cls-8" points="84.33 92.14 -2711.51 -4750.4 -5507.35 92.14"/><polyline class="cls-8" points="84.33 102.13 -2711.51 -4740.4 -5507.35 102.13"/><polyline class="cls-8" points="84.33 112.13 -2711.51 -4730.41 -5507.35 112.13"/><polyline class="cls-8" points="84.33 122.13 -2711.51 -4720.41 -5507.35 122.13"/><polyline class="cls-8" points="84.33 132.12 -2711.51 -4710.41 -5507.35 132.12"/><polyline class="cls-8" points="84.33 142.12 -2711.51 -4700.41 -5507.35 142.12"/><polyline class="cls-8" points="84.33 152.12 -2711.51 -4690.42 -5507.35 152.12"/><polyline class="cls-8" points="84.33 162.12 -2711.51 -4680.42 -5507.35 162.12"/><polyline class="cls-8" points="84.33 172.11 -2711.51 -4670.42 -5507.35 172.11"/><polyline class="cls-8" points="84.33 182.11 -2711.51 -4660.43 -5507.35 182.11"/><polyline class="cls-8" points="84.33 192.11 -2711.51 -4650.43 -5507.35 192.11"/><polyline class="cls-8" points="84.33 202.1 -2711.51 -4640.43 -5507.35 202.1"/><polyline class="cls-8" points="84.33 212.1 -2711.51 -4630.43 -5507.35 212.1"/><polyline class="cls-8" points="84.33 222.1 -2711.51 -4620.44 -5507.35 222.1"/><polyline class="cls-8" points="84.33 232.1 -2711.51 -4610.44 -5507.35 232.1"/><polyline class="cls-8" points="84.33 242.09 -2711.51 -4600.44 -5507.35 242.09"/><polyline class="cls-8" points="84.33 252.09 -2711.51 -4590.45 -5507.35 252.09"/><polyline class="cls-8" points="84.33 262.09 -2711.51 -4580.45 -5507.35 262.09"/><polyline class="cls-8" points="84.33 272.09 -2711.51 -4570.45 -5507.35 272.09"/><polyline class="cls-8" points="84.33 282.08 -2711.51 -4560.45 -5507.35 282.08"/><polyline class="cls-8" points="84.33 292.08 -2711.51 -4550.46 -5507.35 292.08"/><polyline class="cls-8" points="84.33 302.08 -2711.51 -4540.46 -5507.35 302.08"/><polyline class="cls-8" points="84.33 312.07 -2711.51 -4530.46 -5507.35 312.07"/><polyline class="cls-8" points="84.33 322.07 -2711.51 -4520.47 -5507.35 322.07"/><polyline class="cls-8" points="84.33 332.07 -2711.51 -4510.47 -5507.35 332.07"/><polyline class="cls-8" points="84.33 342.07 -2711.51 -4500.47 -5507.35 342.07"/><polyline class="cls-8" points="84.33 352.06 -2711.51 -4490.47 -5507.35 352.06"/><polyline class="cls-8" points="84.33 362.06 -2711.51 -4480.48 -5507.35 362.06"/><polyline class="cls-8" points="84.33 372.06 -2711.51 -4470.48 -5507.35 372.06"/><polyline class="cls-8" points="84.33 382.06 -2711.51 -4460.48 -5507.35 382.06"/><polyline class="cls-8" points="84.33 392.05 -2711.51 -4450.49 -5507.35 392.05"/><polyline class="cls-8" points="84.33 402.05 -2711.51 -4440.49 -5507.35 402.05"/><polyline class="cls-8" points="84.33 412.05 -2711.51 -4430.49 -5507.35 412.05"/><polyline class="cls-8" points="84.33 422.04 -2711.51 -4420.49 -5507.35 422.04"/><polyline class="cls-8" points="84.33 432.04 -2711.51 -4410.5 -5507.35 432.04"/><polyline class="cls-8" points="84.33 442.04 -2711.51 -4400.5 -5507.35 442.04"/><polyline class="cls-8" points="84.33 452.03 -2711.51 -4390.5 -5507.35 452.03"/><polyline class="cls-8" points="84.33 462.03 -2711.51 -4380.5 -5507.35 462.03"/><polyline class="cls-8" points="84.33 472.03 -2711.51 -4370.51 -5507.35 472.03"/><polyline class="cls-8" points="84.33 482.03 -2711.51 -4360.51 -5507.35 482.03"/><polyline class="cls-8" points="84.33 492.02 -2711.51 -4350.51 -5507.35 492.02"/><polyline class="cls-8" points="84.33 502.02 -2711.51 -4340.52 -5507.35 502.02"/><polyline class="cls-8" points="84.33 512.02 -2711.51 -4330.52 -5507.35 512.02"/><polyline class="cls-8" points="84.33 522.02 -2711.51 -4320.52 -5507.35 522.02"/><polyline class="cls-8" points="84.33 532.01 -2711.51 -4310.52 -5507.35 532.01"/><polyline class="cls-8" points="84.33 542.01 -2711.51 -4300.53 -5507.35 542.01"/><polyline class="cls-8" points="84.33 552.01 -2711.51 -4290.53 -5507.35 552.01"/><polyline class="cls-8" points="84.33 562 -2711.51 -4280.53 -5507.35 562"/><polyline class="cls-8" points="84.33 572 -2711.51 -4270.54 -5507.35 572"/><polyline class="cls-8" points="84.33 582 -2711.51 -4260.54 -5507.35 582"/><polyline class="cls-8" points="84.33 592 -2711.51 -4250.54 -5507.35 592"/><polyline class="cls-8" points="84.33 601.99 -2711.51 -4240.54 -5507.35 601.99"/><polyline class="cls-8" points="84.33 611.99 -2711.51 -4230.55 -5507.35 611.99"/><polyline class="cls-8" points="84.33 621.99 -2711.51 -4220.55 -5507.35 621.99"/><polyline class="cls-8" points="84.33 631.98 -2711.51 -4210.55 -5507.35 631.98"/><polyline class="cls-8" points="84.33 641.98 -2711.51 -4200.56 -5507.35 641.98"/><polyline class="cls-8" points="84.33 651.98 -2711.51 -4190.56 -5507.35 651.98"/><polyline class="cls-8" points="84.33 661.98 -2711.51 -4180.56 -5507.35 661.98"/><polyline class="cls-8" points="84.33 671.97 -2711.51 -4170.56 -5507.35 671.97"/><polyline class="cls-8" points="84.33 681.97 -2711.51 -4160.57 -5507.35 681.97"/><polyline class="cls-8" points="84.33 691.97 -2711.51 -4150.57 -5507.35 691.97"/><polyline class="cls-8" points="84.33 701.97 -2711.51 -4140.57 -5507.35 701.97"/></g></g></g></g><g class="cls-4"><g class="cls-11"><g class="cls-6"><g class="cls-12"><polyline class="cls-8" points="1892.33 3.42 -903.51 -4839.11 -3699.35 3.42"/><polyline class="cls-8" points="1892.33 13.42 -903.51 -4829.12 -3699.35 13.42"/><polyline class="cls-8" points="1892.33 23.42 -903.51 -4819.12 -3699.35 23.42"/><polyline class="cls-8" points="1892.33 33.41 -903.51 -4809.12 -3699.35 33.41"/><polyline class="cls-8" points="1892.33 43.41 -903.51 -4799.13 -3699.35 43.41"/><polyline class="cls-8" points="1892.33 53.41 -903.51 -4789.13 -3699.35 53.41"/><polyline class="cls-8" points="1892.33 63.41 -903.51 -4779.13 -3699.35 63.41"/><polyline class="cls-8" points="1892.33 73.4 -903.51 -4769.13 -3699.35 73.4"/><polyline class="cls-8" points="1892.33 83.4 -903.51 -4759.14 -3699.35 83.4"/><polyline class="cls-8" points="1892.33 93.4 -903.51 -4749.14 -3699.35 93.4"/><polyline class="cls-8" points="1892.33 103.4 -903.51 -4739.14 -3699.35 103.4"/><polyline class="cls-8" points="1892.33 113.39 -903.51 -4729.15 -3699.35 113.39"/><polyline class="cls-8" points="1892.33 123.39 -903.51 -4719.15 -3699.35 123.39"/><polyline class="cls-8" points="1892.33 133.39 -903.51 -4709.15 -3699.35 133.39"/><polyline class="cls-8" points="1892.33 143.38 -903.51 -4699.15 -3699.35 143.38"/><polyline class="cls-8" points="1892.33 153.38 -903.51 -4689.16 -3699.35 153.38"/><polyline class="cls-8" points="1892.33 163.38 -903.51 -4679.16 -3699.35 163.38"/><polyline class="cls-8" points="1892.33 173.38 -903.51 -4669.16 -3699.35 173.38"/><polyline class="cls-8" points="1892.33 183.37 -903.51 -4659.16 -3699.35 183.37"/><polyline class="cls-8" points="1892.33 193.37 -903.51 -4649.17 -3699.35 193.37"/><polyline class="cls-8" points="1892.33 203.37 -903.51 -4639.17 -3699.35 203.37"/><polyline class="cls-8" points="1892.33 213.36 -903.51 -4629.17 -3699.35 213.36"/><polyline class="cls-8" points="1892.33 223.36 -903.51 -4619.17 -3699.35 223.36"/><polyline class="cls-8" points="1892.33 233.36 -903.51 -4609.18 -3699.35 233.36"/><polyline class="cls-8" points="1892.33 243.36 -903.51 -4599.18 -3699.35 243.36"/><polyline class="cls-8" points="1892.33 253.35 -903.51 -4589.18 -3699.35 253.35"/><polyline class="cls-8" points="1892.33 263.35 -903.51 -4579.19 -3699.35 263.35"/><polyline class="cls-8" points="1892.33 273.35 -903.51 -4569.19 -3699.35 273.35"/><polyline class="cls-8" points="1892.33 283.35 -903.51 -4559.19 -3699.35 283.35"/><polyline class="cls-8" points="1892.33 293.34 -903.51 -4549.2 -3699.35 293.34"/><polyline class="cls-8" points="1892.33 303.34 -903.51 -4539.2 -3699.35 303.34"/><polyline class="cls-8" points="1892.33 313.34 -903.51 -4529.2 -3699.35 313.34"/><polyline class="cls-8" points="1892.33 323.33 -903.51 -4519.2 -3699.35 323.33"/><polyline class="cls-8" points="1892.33 333.33 -903.51 -4509.21 -3699.35 333.33"/><polyline class="cls-8" points="1892.33 343.33 -903.51 -4499.21 -3699.35 343.33"/><polyline class="cls-8" points="1892.33 353.32 -903.51 -4489.21 -3699.35 353.32"/><polyline class="cls-8" points="1892.33 363.32 -903.51 -4479.21 -3699.35 363.32"/><polyline class="cls-8" points="1892.33 373.32 -903.51 -4469.22 -3699.35 373.32"/><polyline class="cls-8" points="1892.33 383.32 -903.51 -4459.22 -3699.35 383.32"/><polyline class="cls-8" points="1892.33 393.31 -903.51 -4449.22 -3699.35 393.31"/><polyline class="cls-8" points="1892.33 403.31 -903.51 -4439.23 -3699.35 403.31"/><polyline class="cls-8" points="1892.33 413.31 -903.51 -4429.23 -3699.35 413.31"/><polyline class="cls-8" points="1892.33 423.31 -903.51 -4419.23 -3699.35 423.31"/><polyline class="cls-8" points="1892.33 433.3 -903.51 -4409.23 -3699.35 433.3"/><polyline class="cls-8" points="1892.33 443.3 -903.51 -4399.24 -3699.35 443.3"/><polyline class="cls-8" points="1892.33 453.3 -903.51 -4389.24 -3699.35 453.3"/><polyline class="cls-8" points="1892.33 463.29 -903.51 -4379.24 -3699.35 463.29"/><polyline class="cls-8" points="1892.33 473.29 -903.51 -4369.25 -3699.35 473.29"/><polyline class="cls-8" points="1892.33 483.29 -903.51 -4359.25 -3699.35 483.29"/><polyline class="cls-8" points="1892.33 493.29 -903.51 -4349.25 -3699.35 493.29"/><polyline class="cls-8" points="1892.33 503.28 -903.51 -4339.25 -3699.35 503.28"/><polyline class="cls-8" points="1892.33 513.28 -903.51 -4329.26 -3699.35 513.28"/><polyline class="cls-8" points="1892.33 523.28 -903.51 -4319.26 -3699.35 523.28"/><polyline class="cls-8" points="1892.33 533.27 -903.51 -4309.26 -3699.35 533.27"/><polyline class="cls-8" points="1892.33 543.27 -903.51 -4299.26 -3699.35 543.27"/><polyline class="cls-8" points="1892.33 553.27 -903.51 -4289.27 -3699.35 553.27"/><polyline class="cls-8" points="1892.33 563.27 -903.51 -4279.27 -3699.35 563.27"/><polyline class="cls-8" points="1892.33 573.26 -903.51 -4269.27 -3699.35 573.26"/><polyline class="cls-8" points="1892.33 583.26 -903.51 -4259.28 -3699.35 583.26"/><polyline class="cls-8" points="1892.33 593.26 -903.51 -4249.28 -3699.35 593.26"/><polyline class="cls-8" points="1892.33 603.26 -903.51 -4239.28 -3699.35 603.26"/><polyline class="cls-8" points="1892.33 613.25 -903.51 -4229.28 -3699.35 613.25"/><polyline class="cls-8" points="1892.33 623.25 -903.51 -4219.29 -3699.35 623.25"/><polyline class="cls-8" points="1892.33 633.25 -903.51 -4209.29 -3699.35 633.25"/><polyline class="cls-8" points="1892.33 643.24 -903.51 -4199.29 -3699.35 643.24"/><polyline class="cls-8" points="1892.33 653.24 -903.51 -4189.3 -3699.35 653.24"/><polyline class="cls-8" points="1892.33 663.24 -903.51 -4179.3 -3699.35 663.24"/><polyline class="cls-8" points="1892.33 673.24 -903.51 -4169.3 -3699.35 673.24"/><polyline class="cls-8" points="1892.33 683.23 -903.51 -4159.3 -3699.35 683.23"/><polyline class="cls-8" points="1892.33 693.23 -903.51 -4149.31 -3699.35 693.23"/><polyline class="cls-8" points="1892.33 703.23 -903.51 -4139.31 -3699.35 703.23"/><polyline class="cls-8" points="1892.33 713.23 -903.51 -4129.31 -3699.35 713.23"/><polyline class="cls-8" points="1892.33 723.22 -903.51 -4119.31 -3699.35 723.22"/><polyline class="cls-8" points="1892.33 733.22 -903.51 -4109.32 -3699.35 733.22"/><polyline class="cls-8" points="1892.33 743.22 -903.51 -4099.32 -3699.35 743.22"/><polyline class="cls-8" points="1892.33 753.21 -903.51 -4089.32 -3699.35 753.21"/><polyline class="cls-8" points="1892.33 763.21 -903.51 -4079.33 -3699.35 763.21"/><polyline class="cls-8" points="1892.33 773.21 -903.51 -4069.33 -3699.35 773.21"/><polyline class="cls-8" points="1892.33 783.2 -903.51 -4059.33 -3699.35 783.2"/><polyline class="cls-8" points="1892.33 793.2 -903.51 -4049.33 -3699.35 793.2"/><polyline class="cls-8" points="1892.33 803.2 -903.51 -4039.34 -3699.35 803.2"/><polyline class="cls-8" points="1892.33 813.2 -903.51 -4029.34 -3699.35 813.2"/><polyline class="cls-8" points="1892.33 823.19 -903.51 -4019.34 -3699.35 823.19"/><polyline class="cls-8" points="1892.33 833.19 -903.51 -4009.35 -3699.35 833.19"/><polyline class="cls-8" points="1892.33 843.19 -903.51 -3999.35 -3699.35 843.19"/><polyline class="cls-8" points="1892.33 853.19 -903.51 -3989.35 -3699.35 853.19"/><polyline class="cls-8" points="1892.33 863.18 -903.51 -3979.35 -3699.35 863.18"/><polyline class="cls-8" points="1892.33 873.18 -903.51 -3969.36 -3699.35 873.18"/><polyline class="cls-8" points="1892.33 883.18 -903.51 -3959.36 -3699.35 883.18"/><polyline class="cls-8" points="1892.33 893.17 -903.51 -3949.36 -3699.35 893.17"/><polyline class="cls-8" points="1892.33 903.17 -903.51 -3939.37 -3699.35 903.17"/><polyline class="cls-8" points="1892.33 913.17 -903.51 -3929.37 -3699.35 913.17"/><polyline class="cls-8" points="1892.33 923.17 -903.51 -3919.37 -3699.35 923.17"/><polyline class="cls-8" points="1892.33 933.16 -903.51 -3909.37 -3699.35 933.16"/><polyline class="cls-8" points="1892.33 943.16 -903.51 -3899.38 -3699.35 943.16"/><polyline class="cls-8" points="1892.33 953.16 -903.51 -3889.38 -3699.35 953.16"/><polyline class="cls-8" points="1892.33 963.15 -903.51 -3879.38 -3699.35 963.15"/><polyline class="cls-8" points="1892.33 973.15 -903.51 -3869.38 -3699.35 973.15"/><polyline class="cls-8" points="1892.33 983.15 -903.51 -3859.39 -3699.35 983.15"/><polyline class="cls-8" points="1892.33 993.15 -903.51 -3849.39 -3699.35 993.15"/><polyline class="cls-8" points="1892.33 1003.14 -903.51 -3839.39 -3699.35 1003.14"/><polyline class="cls-8" points="1892.33 1013.14 -903.51 -3829.4 -3699.35 1013.14"/><polyline class="cls-8" points="1892.33 1023.14 -903.51 -3819.4 -3699.35 1023.14"/><polyline class="cls-8" points="1892.33 1033.14 -903.51 -3809.4 -3699.35 1033.14"/><polyline class="cls-8" points="1892.33 1043.13 -903.51 -3799.4 -3699.35 1043.13"/><polyline class="cls-8" points="1892.33 1053.13 -903.51 -3789.41 -3699.35 1053.13"/><polyline class="cls-8" points="1892.33 1063.13 -903.51 -3779.41 -3699.35 1063.13"/><polyline class="cls-8" points="1892.33 1073.12 -903.51 -3769.41 -3699.35 1073.12"/><polyline class="cls-8" points="1892.33 1083.12 -903.51 -3759.41 -3699.35 1083.12"/><polyline class="cls-8" points="1892.33 1093.12 -903.51 -3749.42 -3699.35 1093.12"/><polyline class="cls-8" points="1892.33 1103.12 -903.51 -3739.42 -3699.35 1103.12"/><polyline class="cls-8" points="1892.33 1113.11 -903.51 -3729.42 -3699.35 1113.11"/><polyline class="cls-8" points="1892.33 1123.11 -903.51 -3719.43 -3699.35 1123.11"/><polyline class="cls-8" points="1892.33 1133.11 -903.51 -3709.43 -3699.35 1133.11"/><polyline class="cls-8" points="1892.33 1143.1 -903.51 -3699.43 -3699.35 1143.1"/><polyline class="cls-8" points="1892.33 1153.1 -903.51 -3689.43 -3699.35 1153.1"/><polyline class="cls-8" points="1892.33 1163.1 -903.51 -3679.44 -3699.35 1163.1"/><polyline class="cls-8" points="1892.33 1173.1 -903.51 -3669.44 -3699.35 1173.1"/><polyline class="cls-8" points="1892.33 1183.09 -903.51 -3659.44 -3699.35 1183.09"/><polyline class="cls-8" points="1892.33 1193.09 -903.51 -3649.45 -3699.35 1193.09"/><polyline class="cls-8" points="1892.33 1203.09 -903.51 -3639.45 -3699.35 1203.09"/><polyline class="cls-8" points="1892.33 1213.09 -903.51 -3629.45 -3699.35 1213.09"/><polyline class="cls-8" points="1892.33 1223.08 -903.51 -3619.45 -3699.35 1223.08"/><polyline class="cls-8" points="1892.33 1233.08 -903.51 -3609.46 -3699.35 1233.08"/><polyline class="cls-8" points="1892.33 1243.08 -903.51 -3599.46 -3699.35 1243.08"/><polyline class="cls-8" points="1892.33 1253.07 -903.51 -3589.46 -3699.35 1253.07"/><polyline class="cls-8" points="1892.33 1263.07 -903.51 -3579.47 -3699.35 1263.07"/><polyline class="cls-8" points="1892.33 1273.07 -903.51 -3569.47 -3699.35 1273.07"/><polyline class="cls-8" points="1892.33 1283.07 -903.51 -3559.47 -3699.35 1283.07"/><polyline class="cls-8" points="1892.33 1293.06 -903.51 -3549.47 -3699.35 1293.06"/><polyline class="cls-8" points="1892.33 1303.06 -903.51 -3539.48 -3699.35 1303.06"/><polyline class="cls-8" points="1892.33 1313.06 -903.51 -3529.48 -3699.35 1313.06"/><polyline class="cls-8" points="1892.33 1323.06 -903.51 -3519.48 -3699.35 1323.06"/><polyline class="cls-8" points="1892.33 1333.05 -903.51 -3509.49 -3699.35 1333.05"/><polyline class="cls-8" points="1892.33 1343.05 -903.51 -3499.49 -3699.35 1343.05"/><polyline class="cls-8" points="1892.33 1353.05 -903.51 -3489.49 -3699.35 1353.05"/><polyline class="cls-8" points="1892.33 1363.04 -903.51 -3479.49 -3699.35 1363.04"/><polyline class="cls-8" points="1892.33 1373.04 -903.51 -3469.5 -3699.35 1373.04"/><polyline class="cls-8" points="1892.33 1383.04 -903.51 -3459.5 -3699.35 1383.04"/><polyline class="cls-8" points="1892.33 1393.03 -903.51 -3449.5 -3699.35 1393.03"/><polyline class="cls-8" points="1892.33 1403.03 -903.51 -3439.5 -3699.35 1403.03"/><polyline class="cls-8" points="1892.33 1413.03 -903.51 -3429.51 -3699.35 1413.03"/><polyline class="cls-8" points="1892.33 1423.03 -903.51 -3419.51 -3699.35 1423.03"/><polyline class="cls-8" points="1892.33 1433.02 -903.51 -3409.51 -3699.35 1433.02"/><polyline class="cls-8" points="1892.33 1443.02 -903.51 -3399.52 -3699.35 1443.02"/><polyline class="cls-8" points="1892.33 1453.02 -903.51 -3389.52 -3699.35 1453.02"/><polyline class="cls-8" points="1892.33 1463.02 -903.51 -3379.52 -3699.35 1463.02"/><polyline class="cls-8" points="1892.33 1473.01 -903.51 -3369.52 -3699.35 1473.01"/><polyline class="cls-8" points="1892.33 1483.01 -903.51 -3359.53 -3699.35 1483.01"/><polyline class="cls-8" points="1892.33 1493.01 -903.51 -3349.53 -3699.35 1493.01"/><polyline class="cls-8" points="1892.33 1503 -903.51 -3339.53 -3699.35 1503"/><polyline class="cls-8" points="1892.33 1513 -903.51 -3329.54 -3699.35 1513"/><polyline class="cls-8" points="1892.33 1523 -903.51 -3319.54 -3699.35 1523"/><polyline class="cls-8" points="1892.33 1533 -903.51 -3309.54 -3699.35 1533"/><polyline class="cls-8" points="1892.33 1542.99 -903.51 -3299.54 -3699.35 1542.99"/><polyline class="cls-8" points="1892.33 1552.99 -903.51 -3289.55 -3699.35 1552.99"/><polyline class="cls-8" points="1892.33 1562.99 -903.51 -3279.55 -3699.35 1562.99"/><polyline class="cls-8" points="1892.33 1572.98 -903.51 -3269.55 -3699.35 1572.98"/><polyline class="cls-8" points="1892.33 1582.98 -903.51 -3259.56 -3699.35 1582.98"/><polyline class="cls-8" points="1892.33 1592.98 -903.51 -3249.56 -3699.35 1592.98"/><polyline class="cls-8" points="1892.33 1602.98 -903.51 -3239.56 -3699.35 1602.98"/><polyline class="cls-8" points="1892.33 1612.97 -903.51 -3229.56 -3699.35 1612.97"/><polyline class="cls-8" points="1892.33 1622.97 -903.51 -3219.57 -3699.35 1622.97"/><polyline class="cls-8" points="1892.33 1632.97 -903.51 -3209.57 -3699.35 1632.97"/><polyline class="cls-8" points="1892.33 1642.97 -903.51 -3199.57 -3699.35 1642.97"/></g></g></g></g><g class="cls-4"><g class="cls-13"><g class="cls-6"><g class="cls-14"><polyline class="cls-8" points="1892.33 2.16 -903.51 -4840.38 -3699.35 2.16"/><polyline class="cls-8" points="1892.33 12.16 -903.51 -4830.38 -3699.35 12.16"/><polyline class="cls-8" points="1892.33 22.15 -903.51 -4820.38 -3699.35 22.15"/><polyline class="cls-8" points="1892.33 32.15 -903.51 -4810.38 -3699.35 32.15"/><polyline class="cls-8" points="1892.33 42.15 -903.51 -4800.39 -3699.35 42.15"/><polyline class="cls-8" points="1892.33 52.15 -903.51 -4790.39 -3699.35 52.15"/><polyline class="cls-8" points="1892.33 62.14 -903.51 -4780.39 -3699.35 62.14"/><polyline class="cls-8" points="1892.33 72.14 -903.51 -4770.4 -3699.35 72.14"/><polyline class="cls-8" points="1892.33 82.14 -903.51 -4760.4 -3699.35 82.14"/><polyline class="cls-8" points="1892.33 92.14 -903.51 -4750.4 -3699.35 92.14"/><polyline class="cls-8" points="1892.33 102.13 -903.51 -4740.4 -3699.35 102.13"/><polyline class="cls-8" points="1892.33 112.13 -903.51 -4730.41 -3699.35 112.13"/><polyline class="cls-8" points="1892.33 122.13 -903.51 -4720.41 -3699.35 122.13"/><polyline class="cls-8" points="1892.33 132.12 -903.51 -4710.41 -3699.35 132.12"/><polyline class="cls-8" points="1892.33 142.12 -903.51 -4700.41 -3699.35 142.12"/><polyline class="cls-8" points="1892.33 152.12 -903.51 -4690.42 -3699.35 152.12"/><polyline class="cls-8" points="1892.33 162.12 -903.51 -4680.42 -3699.35 162.12"/><polyline class="cls-8" points="1892.33 172.11 -903.51 -4670.42 -3699.35 172.11"/><polyline class="cls-8" points="1892.33 182.11 -903.51 -4660.43 -3699.35 182.11"/><polyline class="cls-8" points="1892.33 192.11 -903.51 -4650.43 -3699.35 192.11"/><polyline class="cls-8" points="1892.33 202.1 -903.51 -4640.43 -3699.35 202.1"/><polyline class="cls-8" points="1892.33 212.1 -903.51 -4630.43 -3699.35 212.1"/><polyline class="cls-8" points="1892.33 222.1 -903.51 -4620.44 -3699.35 222.1"/><polyline class="cls-8" points="1892.33 232.1 -903.51 -4610.44 -3699.35 232.1"/><polyline class="cls-8" points="1892.33 242.09 -903.51 -4600.44 -3699.35 242.09"/><polyline class="cls-8" points="1892.33 252.09 -903.51 -4590.45 -3699.35 252.09"/><polyline class="cls-8" points="1892.33 262.09 -903.51 -4580.45 -3699.35 262.09"/><polyline class="cls-8" points="1892.33 272.09 -903.51 -4570.45 -3699.35 272.09"/><polyline class="cls-8" points="1892.33 282.08 -903.51 -4560.45 -3699.35 282.08"/><polyline class="cls-8" points="1892.33 292.08 -903.51 -4550.46 -3699.35 292.08"/><polyline class="cls-8" points="1892.33 302.08 -903.51 -4540.46 -3699.35 302.08"/><polyline class="cls-8" points="1892.33 312.07 -903.51 -4530.46 -3699.35 312.07"/><polyline class="cls-8" points="1892.33 322.07 -903.51 -4520.47 -3699.35 322.07"/><polyline class="cls-8" points="1892.33 332.07 -903.51 -4510.47 -3699.35 332.07"/><polyline class="cls-8" points="1892.33 342.07 -903.51 -4500.47 -3699.35 342.07"/><polyline class="cls-8" points="1892.33 352.06 -903.51 -4490.47 -3699.35 352.06"/><polyline class="cls-8" points="1892.33 362.06 -903.51 -4480.48 -3699.35 362.06"/><polyline class="cls-8" points="1892.33 372.06 -903.51 -4470.48 -3699.35 372.06"/><polyline class="cls-8" points="1892.33 382.06 -903.51 -4460.48 -3699.35 382.06"/><polyline class="cls-8" points="1892.33 392.05 -903.51 -4450.49 -3699.35 392.05"/><polyline class="cls-8" points="1892.33 402.05 -903.51 -4440.49 -3699.35 402.05"/><polyline class="cls-8" points="1892.33 412.05 -903.51 -4430.49 -3699.35 412.05"/><polyline class="cls-8" points="1892.33 422.04 -903.51 -4420.49 -3699.35 422.04"/><polyline class="cls-8" points="1892.33 432.04 -903.51 -4410.5 -3699.35 432.04"/><polyline class="cls-8" points="1892.33 442.04 -903.51 -4400.5 -3699.35 442.04"/><polyline class="cls-8" points="1892.33 452.03 -903.51 -4390.5 -3699.35 452.03"/><polyline class="cls-8" points="1892.33 462.03 -903.51 -4380.5 -3699.35 462.03"/><polyline class="cls-8" points="1892.33 472.03 -903.51 -4370.51 -3699.35 472.03"/><polyline class="cls-8" points="1892.33 482.03 -903.51 -4360.51 -3699.35 482.03"/><polyline class="cls-8" points="1892.33 492.02 -903.51 -4350.51 -3699.35 492.02"/><polyline class="cls-8" points="1892.33 502.02 -903.51 -4340.52 -3699.35 502.02"/><polyline class="cls-8" points="1892.33 512.02 -903.51 -4330.52 -3699.35 512.02"/><polyline class="cls-8" points="1892.33 522.02 -903.51 -4320.52 -3699.35 522.02"/><polyline class="cls-8" points="1892.33 532.01 -903.51 -4310.52 -3699.35 532.01"/><polyline class="cls-8" points="1892.33 542.01 -903.51 -4300.53 -3699.35 542.01"/><polyline class="cls-8" points="1892.33 552.01 -903.51 -4290.53 -3699.35 552.01"/><polyline class="cls-8" points="1892.33 562 -903.51 -4280.53 -3699.35 562"/><polyline class="cls-8" points="1892.33 572 -903.51 -4270.54 -3699.35 572"/><polyline class="cls-8" points="1892.33 582 -903.51 -4260.54 -3699.35 582"/><polyline class="cls-8" points="1892.33 592 -903.51 -4250.54 -3699.35 592"/><polyline class="cls-8" points="1892.33 601.99 -903.51 -4240.54 -3699.35 601.99"/><polyline class="cls-8" points="1892.33 611.99 -903.51 -4230.55 -3699.35 611.99"/><polyline class="cls-8" points="1892.33 621.99 -903.51 -4220.55 -3699.35 621.99"/><polyline class="cls-8" points="1892.33 631.98 -903.51 -4210.55 -3699.35 631.98"/><polyline class="cls-8" points="1892.33 641.98 -903.51 -4200.56 -3699.35 641.98"/><polyline class="cls-8" points="1892.33 651.98 -903.51 -4190.56 -3699.35 651.98"/><polyline class="cls-8" points="1892.33 661.98 -903.51 -4180.56 -3699.35 661.98"/><polyline class="cls-8" points="1892.33 671.97 -903.51 -4170.56 -3699.35 671.97"/><polyline class="cls-8" points="1892.33 681.97 -903.51 -4160.57 -3699.35 681.97"/><polyline class="cls-8" points="1892.33 691.97 -903.51 -4150.57 -3699.35 691.97"/><polyline class="cls-8" points="1892.33 701.97 -903.51 -4140.57 -3699.35 701.97"/></g></g></g></g></g><g id="Layer_1" data-name="Layer 1"><g class="cls-4"><g class="cls-15"><g class="cls-6"><g class="cls-16"><polyline class="cls-17" points="3614.33 1.57 818.49 -4840.97 -1977.35 1.57"/><polyline class="cls-17" points="3614.33 11.57 818.49 -4830.97 -1977.35 11.57"/><polyline class="cls-17" points="3614.33 21.56 818.49 -4820.97 -1977.35 21.56"/><polyline class="cls-17" points="3614.33 31.56 818.49 -4810.98 -1977.35 31.56"/><polyline class="cls-17" points="3614.33 41.56 818.49 -4800.98 -1977.35 41.56"/><polyline class="cls-17" points="3614.33 51.56 818.49 -4790.98 -1977.35 51.56"/><polyline class="cls-17" points="3614.33 61.55 818.49 -4780.99 -1977.35 61.55"/><polyline class="cls-17" points="3614.33 71.55 818.49 -4770.99 -1977.35 71.55"/><polyline class="cls-17" points="3614.33 81.55 818.49 -4760.99 -1977.35 81.55"/><polyline class="cls-17" points="3614.33 91.54 818.49 -4750.99 -1977.35 91.54"/><polyline class="cls-17" points="3614.33 101.54 818.49 -4741 -1977.35 101.54"/><polyline class="cls-17" points="3614.33 111.54 818.49 -4731 -1977.35 111.54"/><polyline class="cls-17" points="3614.33 121.53 818.49 -4721 -1977.35 121.53"/><polyline class="cls-17" points="3614.33 131.53 818.49 -4711 -1977.35 131.53"/><polyline class="cls-17" points="3614.33 141.53 818.49 -4701.01 -1977.35 141.53"/><polyline class="cls-17" points="3614.33 151.53 818.49 -4691.01 -1977.35 151.53"/><polyline class="cls-17" points="3614.33 161.52 818.49 -4681.01 -1977.35 161.52"/><polyline class="cls-17" points="3614.33 171.52 818.49 -4671.02 -1977.35 171.52"/><polyline class="cls-17" points="3614.33 181.52 818.49 -4661.02 -1977.35 181.52"/><polyline class="cls-17" points="3614.33 191.52 818.49 -4651.02 -1977.35 191.52"/><polyline class="cls-17" points="3614.33 201.51 818.49 -4641.02 -1977.35 201.51"/><polyline class="cls-17" points="3614.33 211.51 818.49 -4631.03 -1977.35 211.51"/><polyline class="cls-17" points="3614.33 221.51 818.49 -4621.03 -1977.35 221.51"/><polyline class="cls-17" points="3614.33 231.5 818.49 -4611.03 -1977.35 231.5"/><polyline class="cls-17" points="3614.33 241.5 818.49 -4601.04 -1977.35 241.5"/><polyline class="cls-17" points="3614.33 251.5 818.49 -4591.04 -1977.35 251.5"/><polyline class="cls-17" points="3614.33 261.5 818.49 -4581.04 -1977.35 261.5"/><polyline class="cls-17" points="3614.33 271.49 818.49 -4571.04 -1977.35 271.49"/><polyline class="cls-17" points="3614.33 281.49 818.49 -4561.05 -1977.35 281.49"/><polyline class="cls-17" points="3614.33 291.49 818.49 -4551.05 -1977.35 291.49"/><polyline class="cls-17" points="3614.33 301.48 818.49 -4541.05 -1977.35 301.48"/><polyline class="cls-17" points="3614.33 311.48 818.49 -4531.06 -1977.35 311.48"/><polyline class="cls-17" points="3614.33 321.48 818.49 -4521.06 -1977.35 321.48"/><polyline class="cls-17" points="3614.33 331.48 818.49 -4511.06 -1977.35 331.48"/><polyline class="cls-17" points="3614.33 341.47 818.49 -4501.06 -1977.35 341.47"/><polyline class="cls-17" points="3614.33 351.47 818.49 -4491.07 -1977.35 351.47"/><polyline class="cls-17" points="3614.33 361.47 818.49 -4481.07 -1977.35 361.47"/><polyline class="cls-17" points="3614.33 371.47 818.49 -4471.07 -1977.35 371.47"/></g><rect class="cls-2" x="-1927.25" y="-5765" width="2528" height="1456"/></g></g></g></g><g id="Highlighted_Wells_Groups" data-name="Highlighted Wells Groups"><path class="cls-18" d="M12.38,7.88H11.25V4.5a4.5,4.5,0,0,0-9,0V7.88H1.12A1.12,1.12,0,0,0,0,9v7.88A1.12,1.12,0,0,0,1.12,18H12.38a1.12,1.12,0,0,0,1.12-1.12V9A1.12,1.12,0,0,0,12.38,7.88ZM4.5,4.5A2.25,2.25,0,0,1,9,4.5V7.88H4.5Z"/></g></g></svg>