<svg xmlns="http://www.w3.org/2000/svg" viewBox="0 0 30 30"><defs><style>.cls-1{fill:#fff;}</style></defs><title>Menu White</title><g id="Layer_2" data-name="Layer 2"><g id="Layer_1-2" data-name="Layer 1"><rect class="cls-1" x="6" y="14" width="18" height="2"/><rect class="cls-1" x="6" y="7" width="18" height="2"/><rect class="cls-1" x="6" y="21" width="18" height="2"/><path class="cls-1" d="M27.38,0H2.62A2.62,2.62,0,0,0,0,2.62V27.38A2.62,2.62,0,0,0,2.62,30H27.38A2.62,2.62,0,0,0,30,27.38V2.62A2.62,2.62,0,0,0,27.38,0Zm0,28.57H2.62a1.19,1.19,0,0,1-1.19-1.19V2.62A1.19,1.19,0,0,1,2.62,1.43H27.38a1.19,1.19,0,0,1,1.19,1.19V27.38A1.19,1.19,0,0,1,27.38,28.57Z"/></g></g></svg>