<svg xmlns="http://www.w3.org/2000/svg" width="219.357" height="182.764" viewBox="0 0 219.357 182.764"><path d="M10550.651-6076.289a1.423,1.423,0,0,1-1.242,1.581,1.445,1.445,0,0,1-.171.01,1.42,1.42,0,0,1-1.409-1.252l-2.845-23.738a1.424,1.424,0,0,1,1.243-1.581,1.424,1.424,0,0,1,1.581,1.243Zm5.051-23.724a1.42,1.42,0,0,0-1.567-1.258,1.422,1.422,0,0,0-1.259,1.568l2.605,23.739a1.423,1.423,0,0,0,1.412,1.266,1.408,1.408,0,0,0,.156-.008,1.421,1.421,0,0,0,1.258-1.568Zm7.894.014a1.42,1.42,0,0,0-1.556-1.273,1.42,1.42,0,0,0-1.273,1.555l2.369,23.738a1.421,1.421,0,0,0,1.412,1.28,1.4,1.4,0,0,0,.144-.007,1.423,1.423,0,0,0,1.273-1.556Zm7.895.014a1.424,1.424,0,0,0-1.543-1.289,1.421,1.421,0,0,0-1.289,1.543l2.131,23.739a1.422,1.422,0,0,0,1.414,1.294c.043,0,.085,0,.129-.006a1.422,1.422,0,0,0,1.289-1.542Zm7.893.014a1.422,1.422,0,0,0-1.53-1.3,1.421,1.421,0,0,0-1.3,1.529l1.9,23.739a1.421,1.421,0,0,0,1.416,1.309c.037,0,.076,0,.114,0a1.42,1.42,0,0,0,1.3-1.53Zm7.893.015a1.422,1.422,0,0,0-1.518-1.319,1.42,1.42,0,0,0-1.318,1.517l1.657,23.739a1.424,1.424,0,0,0,1.417,1.322c.034,0,.068,0,.1,0a1.42,1.42,0,0,0,1.318-1.517Zm7.893.013a1.423,1.423,0,0,0-1.5-1.334,1.424,1.424,0,0,0-1.334,1.5l1.422,23.738a1.422,1.422,0,0,0,1.418,1.337c.027,0,.058,0,.085,0a1.422,1.422,0,0,0,1.335-1.5Zm6.4-1.334a1.424,1.424,0,0,0-1.351,1.491l1.187,23.738a1.42,1.42,0,0,0,1.418,1.351l.071,0a1.42,1.42,0,0,0,1.349-1.491l-1.186-23.738A1.418,1.418,0,0,0,10601.571-6101.278Zm7.905,0a1.422,1.422,0,0,0-1.363,1.477l.947,23.738a1.421,1.421,0,0,0,1.419,1.365h.059a1.42,1.42,0,0,0,1.363-1.477l-.948-23.739A1.417,1.417,0,0,0,10609.477-6101.278Zm7.95,0h-.045a1.419,1.419,0,0,0-1.377,1.463l.711,23.738a1.42,1.42,0,0,0,1.419,1.379h.044a1.424,1.424,0,0,0,1.379-1.464l-.712-23.738A1.421,1.421,0,0,0,10617.427-6101.28Zm7.862,0a1.42,1.42,0,0,0-1.392,1.45l.474,23.739a1.42,1.42,0,0,0,1.42,1.393h.03a1.421,1.421,0,0,0,1.392-1.45l-.475-23.738A1.422,1.422,0,0,0,10625.289-6101.279Zm7.921,0h-.015a1.422,1.422,0,0,0-1.407,1.436l.237,23.739a1.422,1.422,0,0,0,1.421,1.407h.014a1.422,1.422,0,0,0,1.408-1.436l-.237-23.738A1.422,1.422,0,0,0,10633.21-6101.28Zm7.893,0a1.423,1.423,0,0,0-1.423,1.422v23.738a1.423,1.423,0,0,0,1.423,1.422,1.421,1.421,0,0,0,1.42-1.422v-23.738A1.421,1.421,0,0,0,10641.1-6101.28Zm7.906,0a1.423,1.423,0,0,0-1.437,1.408l-.236,23.738a1.421,1.421,0,0,0,1.406,1.436h.016a1.42,1.42,0,0,0,1.42-1.407l.238-23.739A1.423,1.423,0,0,0,10649.009-6101.28Zm7.906,0a1.421,1.421,0,0,0-1.45,1.393l-.474,23.738a1.421,1.421,0,0,0,1.393,1.45h.028a1.422,1.422,0,0,0,1.421-1.393l.473-23.739A1.419,1.419,0,0,0,10656.915-6101.279Zm7.906,0a1.421,1.421,0,0,0-1.463,1.377l-.713,23.738a1.424,1.424,0,0,0,1.38,1.464h.042a1.422,1.422,0,0,0,1.421-1.379l.711-23.738A1.422,1.422,0,0,0,10664.821-6101.278Zm7.905,0a1.42,1.42,0,0,0-1.476,1.363l-.949,23.739a1.421,1.421,0,0,0,1.362,1.477h.06a1.42,1.42,0,0,0,1.418-1.365l.949-23.738A1.423,1.423,0,0,0,10672.727-6101.278Zm7.907,0a1.42,1.42,0,0,0-1.491,1.349l-1.186,23.738a1.422,1.422,0,0,0,1.35,1.491l.072,0a1.422,1.422,0,0,0,1.418-1.351l1.186-23.738A1.421,1.421,0,0,0,10680.634-6101.278Zm7.905,0a1.419,1.419,0,0,0-1.5,1.334l-1.423,23.739a1.423,1.423,0,0,0,1.335,1.5c.028,0,.058,0,.086,0a1.423,1.423,0,0,0,1.418-1.337l1.422-23.738A1.424,1.424,0,0,0,10688.539-6101.277Zm7.907,0a1.419,1.419,0,0,0-1.517,1.319l-1.66,23.738a1.421,1.421,0,0,0,1.319,1.517c.034,0,.067,0,.1,0a1.423,1.423,0,0,0,1.418-1.322l1.658-23.739A1.421,1.421,0,0,0,10696.446-6101.276Zm7.905,0a1.419,1.419,0,0,0-1.529,1.3l-1.9,23.739a1.422,1.422,0,0,0,1.3,1.53c.037,0,.077,0,.115,0a1.42,1.42,0,0,0,1.414-1.309l1.9-23.739A1.421,1.421,0,0,0,10704.352-6101.274Zm7.906,0a1.422,1.422,0,0,0-1.543,1.289l-2.133,23.738a1.422,1.422,0,0,0,1.289,1.542c.044,0,.086.006.129.006a1.421,1.421,0,0,0,1.414-1.294l2.132-23.739A1.423,1.423,0,0,0,10712.258-6101.274Zm7.905,0a1.421,1.421,0,0,0-1.556,1.273l-2.367,23.738a1.42,1.42,0,0,0,1.272,1.556,1.393,1.393,0,0,0,.143.007,1.419,1.419,0,0,0,1.411-1.28l2.371-23.738A1.422,1.422,0,0,0,10720.163-6101.272Zm7.907,0a1.422,1.422,0,0,0-1.568,1.258l-2.605,23.738a1.421,1.421,0,0,0,1.257,1.568,1.438,1.438,0,0,0,.157.008,1.421,1.421,0,0,0,1.411-1.266l2.605-23.739A1.42,1.42,0,0,0,10728.07-6101.271Zm7.905,0a1.422,1.422,0,0,0-1.581,1.243l-2.842,23.738a1.421,1.421,0,0,0,1.242,1.581,1.445,1.445,0,0,0,.171.01,1.421,1.421,0,0,0,1.408-1.252l2.844-23.738A1.422,1.422,0,0,0,10735.976-6101.27Zm-43.149-28.237a3.007,3.007,0,0,1-.711,2.364,3.006,3.006,0,0,1-2.257,1h-97.513a3.008,3.008,0,0,1-2.258-1,3.012,3.012,0,0,1-.711-2.364l4.538-36.417a3.48,3.48,0,0,1,3.406-3.009h87.562a3.482,3.482,0,0,1,3.407,3.009Zm-6.722.517-4.66-31.982h-80.686l-4.659,31.982Zm3.9-.166-4.535-36.417a.653.653,0,0,0-.587-.517h-87.562a.651.651,0,0,0-.586.517l-4.537,36.417a.173.173,0,0,0,.021.13.183.183,0,0,0,.127.035h.881l4.817-33.062a1.981,1.981,0,0,1,1.871-1.763h82.373a1.983,1.983,0,0,1,1.872,1.763l4.816,33.063h.882a.179.179,0,0,0,.126-.035A.173.173,0,0,0,10690-6129.156Zm58.712,59.19a9.538,9.538,0,0,1-7.537,3.378H10541a9.532,9.532,0,0,1-7.534-3.378,9.531,9.531,0,0,1-1.834-8.079l6.725-33.739a.041.041,0,0,1,0-.015.627.627,0,0,1,.023-.094.053.053,0,0,1,0-.017v0l19.751-66.218,0-.007.006-.015s0,0,0,0c0-.021.014-.041.019-.06s.013-.033.018-.049a.047.047,0,0,0,.007-.015l.024-.055c.007-.018.018-.036.024-.053a.049.049,0,0,0,.007-.013l.012-.023h0l12.07-23.289a1.424,1.424,0,0,1,1.263-.767h6.127l7.881-30.353a1.431,1.431,0,0,1,.188-.706l3.212-5.6a1.418,1.418,0,0,1,1.231-.715h35.661v-.012a1.427,1.427,0,0,1,.066-.431,1.824,1.824,0,0,1-.066-.493c0-.947.678-1.675,2.018-2.165a17.623,17.623,0,0,1,3.225-.748c.191-.029.388-.057.587-.086l.582-4.186a1.6,1.6,0,0,1,1.585-1.379h14.428a1.6,1.6,0,0,1,1.583,1.379l.582,4.186c.2.029.4.057.587.086a17.65,17.65,0,0,1,3.227.748c1.339.49,2.017,1.218,2.017,2.165a1.863,1.863,0,0,1-.067.493,1.428,1.428,0,0,1,.067.431v.012h35.66a1.422,1.422,0,0,1,1.233.715l3.209,5.6a1.421,1.421,0,0,1,.188.706l7.88,30.353h6.129a1.42,1.42,0,0,1,1.261.767l12.084,23.313a.162.162,0,0,1,.007.018.284.284,0,0,1,.018.034c.011.021.02.043.028.066s.009.021.014.032c.011.028.021.057.029.085,0,0,0,.008,0,.012l0,.006,0,0,19.755,66.231v0a.051.051,0,0,1,0,.017.774.774,0,0,1,.023.094.076.076,0,0,1,0,.015l6.726,33.739a1.36,1.36,0,0,1,.026.256A9.495,9.495,0,0,1,10748.717-6069.966Zm-171.087-120.857h126.945l-10.541-40.585H10588.17Zm57.369-53.3c1.884-.141,3.958-.216,6.1-.216s4.218.075,6.1.216l-.281-2.028h-11.644Zm-4.053,3.338c.445.079.964.159,1.57.236a70.971,70.971,0,0,0,8.586.475,70.99,70.99,0,0,0,8.585-.475c.605-.077,1.124-.157,1.568-.236-.444-.079-.963-.159-1.568-.236l-.354-.042-.088.015a1.551,1.551,0,0,1-.223.015,1.577,1.577,0,0,1-.63-.133c-2.161-.214-4.7-.33-7.291-.33s-5.128.116-7.287.33a1.6,1.6,0,0,1-.858.118l-.088-.015-.353.042C10631.91-6240.946,10631.392-6240.866,10630.946-6240.788Zm-41.47,6.536h103.251l-1.58-2.757h-36.035a5.274,5.274,0,0,1-.817.377,17.69,17.69,0,0,1-3.227.748,68.77,68.77,0,0,1-9.966.641,68.8,68.8,0,0,1-9.968-.641,17.664,17.664,0,0,1-3.225-.748,5.2,5.2,0,0,1-.818-.377h-36.035Zm-27.629,55.085h158.508l-10.609-20.469h-4.523l2.564,9.877a1.416,1.416,0,0,1-.252,1.228,1.421,1.421,0,0,1-1.125.552h-130.617a1.423,1.423,0,0,1-1.126-.552,1.425,1.425,0,0,1-.25-1.228l2.563-9.877h-4.522Zm-20.188,66.24h198.886l-18.91-63.4h-161.065Zm206.1,35.438-6.5-32.595h-200.347l-6.5,32.595a6.751,6.751,0,0,0,1.245,5.721,6.749,6.749,0,0,0,5.365,2.338h200.121a6.758,6.758,0,0,0,5.367-2.338A6.757,6.757,0,0,0,10747.762-6077.49Zm-66.532-132.391a2.844,2.844,0,0,0-3.748-1.454,2.841,2.841,0,0,0-1.453,3.749l.37.842H10605.8l.372-.842a2.844,2.844,0,0,0-1.455-3.749,2.842,2.842,0,0,0-3.747,1.454l-2.133,4.833a2.837,2.837,0,0,0,.22,2.7,2.843,2.843,0,0,0,2.381,1.291h79.317a2.847,2.847,0,0,0,2.384-1.291,2.842,2.842,0,0,0,.217-2.7Z" transform="translate(-10531.412 6249.352)" fill="rgba(0,0,0,0.5)"/></svg>