<svg xmlns="http://www.w3.org/2000/svg" width="104.997" height="80.725" viewBox="0 0 104.997 80.725"><g transform="translate(52.499 40.362)"><g transform="translate(-52.499 -40.362)"><g transform="translate(0 14.233)"><path d="M173.584,83.319h-6.732L150.9,64.56,166.852,45.8h6.094L157.632,64.56Z" transform="translate(-102.756 -45.415)" fill="#9c9b9b"/><rect width="5.041" height="37.529" transform="translate(43.837 0.385)" fill="#9c9b9b"/><rect width="4.243" height="19.143" transform="translate(98.17 25.015) rotate(90)" fill="#9c9b9b"/><path d="M232.409,83.319H227.4L240.8,45.8h5.009Z" transform="translate(-154.85 -45.415)" fill="#9c9b9b"/><path d="M284.8,83.319h5.009L276.409,45.8H271.4Z" transform="translate(-184.812 -45.415)" fill="#9c9b9b"/><path d="M12.6,44.882c-2.9-.542-10.273-.191-12.6,0V82.5H5.041V68.14H8.263c6.349,0,9.093-2.552,9.093-2.552s5.264-2.744,5.264-10.337S15.505,45.456,12.6,44.882ZM4.945,63.993c0-4.658.032-14.963.032-14.963,2.074,0,12.379-1.659,12.379,6.8S9.89,63.993,4.945,63.993Z" transform="translate(0 -44.593)" fill="#9c9b9b"/><path d="M81.568,73.844c-.542.7-1.053.734-1.4.51s-.67-.766,0-1.755" transform="translate(-54.321 -63.664)" fill="#9c9b9b"/></g><path d="M44.08,55.213C24.874,35.432,15.845,13.323,24.3,5.155s30.054-.287,48.814,17.93C53.333,3.113,29.6-5.341,20.567,3.432s-.128,32.1,19.781,52.61,44.57,30.15,53.823,21.472C84.854,83.831,62.457,74.1,44.08,55.213Z" transform="translate(-11.602 0.019)" fill="#25b0e0"/><g transform="translate(5.392 14.243)"><path d="M16.9,44.649a28.459,28.459,0,0,0,.542,4.371,27.821,27.821,0,0,1,4.084-.032,25.141,25.141,0,0,1-.51-4.339C19.739,44.617,18.3,44.617,16.9,44.649Z" transform="translate(-16.9 -44.625)" fill="#9c9b9b"/><path d="M41.651,102.724q-1.18-1.978-2.2-3.924a8.614,8.614,0,0,1-3.35,1.563q1.053,1.946,2.265,3.924A11.071,11.071,0,0,0,41.651,102.724Z" transform="translate(-29.974 -81.516)" fill="#25b0e0"/></g><ellipse cx="5.105" cy="5.105" rx="5.105" ry="5.105" transform="translate(32.319 0.325)" fill="#9c9b9b"/><path d="M81,53.5c2.361-3.382,4.69-6.317,6.477-7.625s3.446-1.787,3.924-.957.606,1.755-.447,6.859-4.626,21.854-4.818,22.843-.287,3.19.957,2.361a22.116,22.116,0,0,0,4.658-5.392c.861-1.563,1.149-1.882,1.531-1.468s.638,1.085,0,2.329-4.02,6.7-7.785,9.284-4.881.351-4.084-3.254,3.956-18.5,4.339-20.164c.51-2.169,1.053-5.711,1.212-7.019s-.255-1.34-1.149-.351-1.85,1.978-3.382,3.8" transform="translate(-55.158 -30.304)" fill="#9c9b9b"/></g></g></svg>