<svg xmlns="http://www.w3.org/2000/svg" width="15" height="9" viewBox="0 0 15 9"><path d="M7.5,0C11.642,0,15,4.11,15,4.5S11.642,9,7.5,9,0,4.786,0,4.5,3.358,0,7.5,0Z" fill="#fff"/><path d="M7.5,1A7.666,7.666,0,0,0,3.071,2.729,11.663,11.663,0,0,0,1.2,4.5,11.663,11.663,0,0,0,3.071,6.271,7.666,7.666,0,0,0,7.5,8a7.7,7.7,0,0,0,4.426-1.69A10.738,10.738,0,0,0,13.831,4.5a10.737,10.737,0,0,0-1.905-1.81A7.7,7.7,0,0,0,7.5,1m0-1C11.642,0,15,4.11,15,4.5S11.642,9,7.5,9,0,4.786,0,4.5,3.358,0,7.5,0Z"/><path d="M35.625-187.377A2.627,2.627,0,0,1,33-190a2.628,2.628,0,0,1,2.624-2.625,2.649,2.649,0,0,1,.462.041,1.485,1.485,0,0,0-.466,1.086,1.5,1.5,0,0,0,1.5,1.5,1.486,1.486,0,0,0,1.087-.467,2.65,2.65,0,0,1,.041.465A2.628,2.628,0,0,1,35.625-187.377Z" transform="translate(-28.121 194.502)"/></svg>