<svg xmlns="http://www.w3.org/2000/svg" width="15" height="10.707" viewBox="0 0 15 10.707"><g transform="translate(0 0)"><g transform="translate(-16784 12380.854)"><path d="M7.5,10.561a6.8,6.8,0,0,1-2.048-.33l.814-.814A5.5,5.5,0,0,0,7.5,9.561a7.7,7.7,0,0,0,4.426-1.69,10.7,10.7,0,0,0,1.905-1.81,10.634,10.634,0,0,0-1.905-1.81c-.107-.079-.2-.147-.287-.208l.717-.717A8.607,8.607,0,0,1,15,6.061a7.735,7.735,0,0,1-2.2,2.4A8.844,8.844,0,0,1,7.5,10.561ZM2.664,8.775h0A9.542,9.542,0,0,1,0,6.061,8.628,8.628,0,0,1,2.2,3.7,8.816,8.816,0,0,1,7.5,1.561a6.9,6.9,0,0,1,2.054.325L8.737,2.7A5.672,5.672,0,0,0,7.5,2.561,7.668,7.668,0,0,0,3.071,4.289,11.707,11.707,0,0,0,1.2,6.061,11.724,11.724,0,0,0,3.071,7.832c.1.078.206.154.31.227l-.715.715h0Z" transform="translate(16784 -12381.561)"/><path d="M6.065,8.686A2.639,2.639,0,0,1,5.6,8.644L8.577,5.665q.036-.034.071-.07A2.626,2.626,0,0,1,6.065,8.686ZM3.48,6.52v0A2.627,2.627,0,0,1,6.524,3.475L3.481,6.519Z" transform="translate(16785.439 -12381.561)"/><path d="M.354,10.354l-.707-.707,10-10,.707.707Z" transform="translate(16786.5 -12380.5)"/></g></g></svg>