<svg xmlns="http://www.w3.org/2000/svg" viewBox="0 0 50 50"><defs><style>.cls-1{fill:#fff;}</style></defs><title>ring_s</title><g id="Layer_2" data-name="Layer 2"><g id="Symbol_Editing_Mode" data-name="Symbol Editing Mode"><g id="New_Symbol_8" data-name="New Symbol 8"><circle class="cls-1" cx="25" cy="25" r="23"/><path d="M25,4A21,21,0,1,1,4,25,21,21,0,0,1,25,4m0-4A25,25,0,1,0,50,25,25,25,0,0,0,25,0Z"/><path d="M24.59,32.32c-2.7,0-4.75-.58-6.5-2.35l2.25-2.25a5.84,5.84,0,0,0,4.3,1.5c2.05,0,3.15-.78,3.15-2.2a2,2,0,0,0-.55-1.5,2.65,2.65,0,0,0-1.58-.63l-2.15-.3a6,6,0,0,1-3.45-1.47,4.7,4.7,0,0,1-1.27-3.5c0-3.17,2.35-5.4,6.2-5.4a7.62,7.62,0,0,1,5.75,2.08l-2.2,2.17a5,5,0,0,0-3.65-1.22c-1.85,0-2.75,1-2.75,2.24a1.74,1.74,0,0,0,.52,1.28,3.12,3.12,0,0,0,1.65.7l2.1.3a5.84,5.84,0,0,1,3.4,1.37,5,5,0,0,1,1.37,3.78C31.18,30.37,28.31,32.32,24.59,32.32Z"/></g></g></g></svg>