<svg xmlns="http://www.w3.org/2000/svg" viewBox="0 0 50 50"><defs><style>.cls-1{fill:#fff;}</style></defs><title>ring_u</title><g id="Layer_2" data-name="Layer 2"><g id="Symbol_Editing_Mode" data-name="Symbol Editing Mode"><g id="New_Symbol_5" data-name="New Symbol 5"><circle class="cls-1" cx="25" cy="25" r="23"/><path d="M25,4A21,21,0,1,1,4,25,21,21,0,0,1,25,4m0-4A25,25,0,1,0,50,25,25,25,0,0,0,25,0Z"/><path d="M25,32.29a5,5,0,0,1-5.24-5V17.92h2.78v9.27a2.47,2.47,0,1,0,4.94,0V17.92h2.76v9.37A5,5,0,0,1,25,32.29Z"/></g></g></g></svg>