<svg xmlns="http://www.w3.org/2000/svg" xmlns:xlink="http://www.w3.org/1999/xlink" viewBox="0 0 15 18"><defs><style>.cls-1,.cls-17,.cls-2,.cls-8{fill:none;}.cls-17,.cls-2{stroke:#039aff;}.cls-17,.cls-2,.cls-8{stroke-miterlimit:10;}.cls-3{isolation:isolate;}.cls-4{opacity:0.2;mix-blend-mode:multiply;}.cls-5{clip-path:url(#clip-path);}.cls-6{opacity:0.2;}.cls-7{clip-path:url(#clip-path-2);}.cls-8{stroke:#000;}.cls-17,.cls-8{stroke-width:1.75px;}.cls-9{clip-path:url(#clip-path-3);}.cls-10{clip-path:url(#clip-path-4);}.cls-11{clip-path:url(#clip-path-5);}.cls-12{clip-path:url(#clip-path-6);}.cls-13{clip-path:url(#clip-path-7);}.cls-14{clip-path:url(#clip-path-8);}.cls-15{clip-path:url(#clip-path-9);}.cls-16{clip-path:url(#clip-path-10);}.cls-18{fill:#bfbfbf;}</style><clipPath id="clip-path"><rect class="cls-1" x="-1365.5" y="-4816.5" width="1400" height="320"/></clipPath><clipPath id="clip-path-2"><rect class="cls-1" x="-1929.5" y="-5384.5" width="2528" height="1456"/></clipPath><clipPath id="clip-path-3"><rect class="cls-1" x="-4962.5" y="-4816.5" width="1400" height="320"/></clipPath><clipPath id="clip-path-4"><rect class="cls-1" x="-5526.5" y="-5384.5" width="2528" height="1456"/></clipPath><clipPath id="clip-path-5"><rect class="cls-1" x="-3154.5" y="-3875.5" width="1400" height="320"/></clipPath><clipPath id="clip-path-6"><rect class="cls-1" x="-3718.5" y="-4443.5" width="2528" height="1456"/></clipPath><clipPath id="clip-path-7"><rect class="cls-1" x="-3154.5" y="-4816.5" width="1400" height="320"/></clipPath><clipPath id="clip-path-8"><rect class="cls-1" x="-3718.5" y="-5384.5" width="2528" height="1456"/></clipPath><clipPath id="clip-path-9"><rect class="cls-1" x="-1335.5" y="-5157" width="1206" height="340"/></clipPath><clipPath id="clip-path-10"><rect class="cls-2" x="-1996.5" y="-5715" width="2528" height="1456"/></clipPath></defs><title>Trash G</title><g class="cls-3"><g id="Shadow_Boxes" data-name="Shadow Boxes"><g class="cls-4"><g class="cls-5"><g class="cls-6"><g class="cls-7"><polyline class="cls-8" points="3612.08 2.17 816.24 -4840.36 -1979.6 2.17"/><polyline class="cls-8" points="3612.08 12.17 816.24 -4830.37 -1979.6 12.17"/><polyline class="cls-8" points="3612.08 22.17 816.24 -4820.37 -1979.6 22.17"/><polyline class="cls-8" points="3612.08 32.17 816.24 -4810.37 -1979.6 32.17"/><polyline class="cls-8" points="3612.08 42.16 816.24 -4800.37 -1979.6 42.16"/><polyline class="cls-8" points="3612.08 52.16 816.24 -4790.38 -1979.6 52.16"/><polyline class="cls-8" points="3612.08 62.16 816.24 -4780.38 -1979.6 62.16"/><polyline class="cls-8" points="3612.08 72.15 816.24 -4770.38 -1979.6 72.15"/><polyline class="cls-8" points="3612.08 82.15 816.24 -4760.38 -1979.6 82.15"/><polyline class="cls-8" points="3612.08 92.15 816.24 -4750.39 -1979.6 92.15"/><polyline class="cls-8" points="3612.08 102.15 816.24 -4740.39 -1979.6 102.15"/><polyline class="cls-8" points="3612.08 112.14 816.24 -4730.39 -1979.6 112.14"/><polyline class="cls-8" points="3612.08 122.14 816.24 -4720.4 -1979.6 122.14"/><polyline class="cls-8" points="3612.08 132.14 816.24 -4710.4 -1979.6 132.14"/><polyline class="cls-8" points="3612.08 142.14 816.24 -4700.4 -1979.6 142.14"/><polyline class="cls-8" points="3612.08 152.13 816.24 -4690.4 -1979.6 152.13"/><polyline class="cls-8" points="3612.08 162.13 816.24 -4680.41 -1979.6 162.13"/><polyline class="cls-8" points="3612.08 172.13 816.24 -4670.41 -1979.6 172.13"/><polyline class="cls-8" points="3612.08 182.12 816.24 -4660.41 -1979.6 182.12"/><polyline class="cls-8" points="3612.08 192.12 816.24 -4650.41 -1979.6 192.12"/><polyline class="cls-8" points="3612.08 202.12 816.24 -4640.42 -1979.6 202.12"/><polyline class="cls-8" points="3612.08 212.12 816.24 -4630.42 -1979.6 212.12"/><polyline class="cls-8" points="3612.08 222.11 816.24 -4620.42 -1979.6 222.11"/><polyline class="cls-8" points="3612.08 232.11 816.24 -4610.43 -1979.6 232.11"/><polyline class="cls-8" points="3612.08 242.11 816.24 -4600.43 -1979.6 242.11"/><polyline class="cls-8" points="3612.08 252.1 816.24 -4590.43 -1979.6 252.1"/><polyline class="cls-8" points="3612.08 262.1 816.24 -4580.43 -1979.6 262.1"/><polyline class="cls-8" points="3612.08 272.1 816.24 -4570.44 -1979.6 272.1"/><polyline class="cls-8" points="3612.08 282.1 816.24 -4560.44 -1979.6 282.1"/><polyline class="cls-8" points="3612.08 292.09 816.24 -4550.44 -1979.6 292.09"/><polyline class="cls-8" points="3612.08 302.09 816.24 -4540.45 -1979.6 302.09"/><polyline class="cls-8" points="3612.08 312.09 816.24 -4530.45 -1979.6 312.09"/><polyline class="cls-8" points="3612.08 322.09 816.24 -4520.45 -1979.6 322.09"/><polyline class="cls-8" points="3612.08 332.08 816.24 -4510.45 -1979.6 332.08"/><polyline class="cls-8" points="3612.08 342.08 816.24 -4500.46 -1979.6 342.08"/><polyline class="cls-8" points="3612.08 352.08 816.24 -4490.46 -1979.6 352.08"/><polyline class="cls-8" points="3612.08 362.07 816.24 -4480.46 -1979.6 362.07"/><polyline class="cls-8" points="3612.08 372.07 816.24 -4470.47 -1979.6 372.07"/><polyline class="cls-8" points="3612.08 382.07 816.24 -4460.47 -1979.6 382.07"/><polyline class="cls-8" points="3612.08 392.07 816.24 -4450.47 -1979.6 392.07"/><polyline class="cls-8" points="3612.08 402.06 816.24 -4440.47 -1979.6 402.06"/><polyline class="cls-8" points="3612.08 412.06 816.24 -4430.48 -1979.6 412.06"/><polyline class="cls-8" points="3612.08 422.06 816.24 -4420.48 -1979.6 422.06"/><polyline class="cls-8" points="3612.08 432.06 816.24 -4410.48 -1979.6 432.06"/><polyline class="cls-8" points="3612.08 442.05 816.24 -4400.49 -1979.6 442.05"/><polyline class="cls-8" points="3612.08 452.05 816.24 -4390.49 -1979.6 452.05"/><polyline class="cls-8" points="3612.08 462.05 816.24 -4380.49 -1979.6 462.05"/><polyline class="cls-8" points="3612.08 472.04 816.24 -4370.49 -1979.6 472.04"/><polyline class="cls-8" points="3612.08 482.04 816.24 -4360.5 -1979.6 482.04"/><polyline class="cls-8" points="3612.08 492.04 816.24 -4350.5 -1979.6 492.04"/><polyline class="cls-8" points="3612.08 502.03 816.24 -4340.5 -1979.6 502.03"/><polyline class="cls-8" points="3612.08 512.03 816.24 -4330.5 -1979.6 512.03"/><polyline class="cls-8" points="3612.08 522.03 816.24 -4320.51 -1979.6 522.03"/><polyline class="cls-8" points="3612.08 532.03 816.24 -4310.51 -1979.6 532.03"/><polyline class="cls-8" points="3612.08 542.02 816.24 -4300.51 -1979.6 542.02"/><polyline class="cls-8" points="3612.08 552.02 816.24 -4290.52 -1979.6 552.02"/><polyline class="cls-8" points="3612.08 562.02 816.24 -4280.52 -1979.6 562.02"/><polyline class="cls-8" points="3612.08 572.02 816.24 -4270.52 -1979.6 572.02"/><polyline class="cls-8" points="3612.08 582.01 816.24 -4260.52 -1979.6 582.01"/><polyline class="cls-8" points="3612.08 592.01 816.24 -4250.53 -1979.6 592.01"/><polyline class="cls-8" points="3612.08 602.01 816.24 -4240.53 -1979.6 602.01"/><polyline class="cls-8" points="3612.08 612 816.24 -4230.53 -1979.6 612"/><polyline class="cls-8" points="3612.08 622 816.24 -4220.54 -1979.6 622"/><polyline class="cls-8" points="3612.08 632 816.24 -4210.54 -1979.6 632"/><polyline class="cls-8" points="3612.08 642 816.24 -4200.54 -1979.6 642"/><polyline class="cls-8" points="3612.08 651.99 816.24 -4190.54 -1979.6 651.99"/><polyline class="cls-8" points="3612.08 661.99 816.24 -4180.55 -1979.6 661.99"/><polyline class="cls-8" points="3612.08 671.99 816.24 -4170.55 -1979.6 671.99"/><polyline class="cls-8" points="3612.08 681.98 816.24 -4160.55 -1979.6 681.98"/><polyline class="cls-8" points="3612.08 691.98 816.24 -4150.56 -1979.6 691.98"/><polyline class="cls-8" points="3612.08 701.98 816.24 -4140.56 -1979.6 701.98"/><polyline class="cls-8" points="3612.08 711.98 816.24 -4130.56 -1979.6 711.98"/><polyline class="cls-8" points="3612.08 721.97 816.24 -4120.56 -1979.6 721.97"/><polyline class="cls-8" points="3612.08 731.97 816.24 -4110.57 -1979.6 731.97"/><polyline class="cls-8" points="3612.08 741.97 816.24 -4100.57 -1979.6 741.97"/><polyline class="cls-8" points="3612.08 751.97 816.24 -4090.57 -1979.6 751.97"/></g></g></g></g><g class="cls-4"><g class="cls-9"><g class="cls-6"><g class="cls-10"><polyline class="cls-8" points="15.08 2.17 -2780.76 -4840.36 -5576.6 2.17"/><polyline class="cls-8" points="15.08 12.17 -2780.76 -4830.37 -5576.6 12.17"/><polyline class="cls-8" points="15.08 22.17 -2780.76 -4820.37 -5576.6 22.17"/><polyline class="cls-8" points="15.08 32.17 -2780.76 -4810.37 -5576.6 32.17"/><polyline class="cls-8" points="15.08 42.16 -2780.76 -4800.37 -5576.6 42.16"/><polyline class="cls-8" points="15.08 52.16 -2780.76 -4790.38 -5576.6 52.16"/><polyline class="cls-8" points="15.08 62.16 -2780.76 -4780.38 -5576.6 62.16"/><polyline class="cls-8" points="15.08 72.15 -2780.76 -4770.38 -5576.6 72.15"/><polyline class="cls-8" points="15.08 82.15 -2780.76 -4760.38 -5576.6 82.15"/><polyline class="cls-8" points="15.08 92.15 -2780.76 -4750.39 -5576.6 92.15"/><polyline class="cls-8" points="15.08 102.15 -2780.76 -4740.39 -5576.6 102.15"/><polyline class="cls-8" points="15.08 112.14 -2780.76 -4730.39 -5576.6 112.14"/><polyline class="cls-8" points="15.08 122.14 -2780.76 -4720.4 -5576.6 122.14"/><polyline class="cls-8" points="15.08 132.14 -2780.76 -4710.4 -5576.6 132.14"/><polyline class="cls-8" points="15.08 142.14 -2780.76 -4700.4 -5576.6 142.14"/><polyline class="cls-8" points="15.08 152.13 -2780.76 -4690.4 -5576.6 152.13"/><polyline class="cls-8" points="15.08 162.13 -2780.76 -4680.41 -5576.6 162.13"/><polyline class="cls-8" points="15.08 172.13 -2780.76 -4670.41 -5576.6 172.13"/><polyline class="cls-8" points="15.08 182.12 -2780.76 -4660.41 -5576.6 182.12"/><polyline class="cls-8" points="15.08 192.12 -2780.76 -4650.41 -5576.6 192.12"/><polyline class="cls-8" points="15.08 202.12 -2780.76 -4640.42 -5576.6 202.12"/><polyline class="cls-8" points="15.08 212.12 -2780.76 -4630.42 -5576.6 212.12"/><polyline class="cls-8" points="15.08 222.11 -2780.76 -4620.42 -5576.6 222.11"/><polyline class="cls-8" points="15.08 232.11 -2780.76 -4610.43 -5576.6 232.11"/><polyline class="cls-8" points="15.08 242.11 -2780.76 -4600.43 -5576.6 242.11"/><polyline class="cls-8" points="15.08 252.1 -2780.76 -4590.43 -5576.6 252.1"/><polyline class="cls-8" points="15.08 262.1 -2780.76 -4580.43 -5576.6 262.1"/><polyline class="cls-8" points="15.08 272.1 -2780.76 -4570.44 -5576.6 272.1"/><polyline class="cls-8" points="15.08 282.1 -2780.76 -4560.44 -5576.6 282.1"/><polyline class="cls-8" points="15.08 292.09 -2780.76 -4550.44 -5576.6 292.09"/><polyline class="cls-8" points="15.08 302.09 -2780.76 -4540.45 -5576.6 302.09"/><polyline class="cls-8" points="15.08 312.09 -2780.76 -4530.45 -5576.6 312.09"/><polyline class="cls-8" points="15.08 322.09 -2780.76 -4520.45 -5576.6 322.09"/><polyline class="cls-8" points="15.08 332.08 -2780.76 -4510.45 -5576.6 332.08"/><polyline class="cls-8" points="15.08 342.08 -2780.76 -4500.46 -5576.6 342.08"/><polyline class="cls-8" points="15.08 352.08 -2780.76 -4490.46 -5576.6 352.08"/><polyline class="cls-8" points="15.08 362.07 -2780.76 -4480.46 -5576.6 362.07"/><polyline class="cls-8" points="15.08 372.07 -2780.76 -4470.47 -5576.6 372.07"/><polyline class="cls-8" points="15.08 382.07 -2780.76 -4460.47 -5576.6 382.07"/><polyline class="cls-8" points="15.08 392.07 -2780.76 -4450.47 -5576.6 392.07"/><polyline class="cls-8" points="15.08 402.06 -2780.76 -4440.47 -5576.6 402.06"/><polyline class="cls-8" points="15.08 412.06 -2780.76 -4430.48 -5576.6 412.06"/><polyline class="cls-8" points="15.08 422.06 -2780.76 -4420.48 -5576.6 422.06"/><polyline class="cls-8" points="15.08 432.06 -2780.76 -4410.48 -5576.6 432.06"/><polyline class="cls-8" points="15.08 442.05 -2780.76 -4400.49 -5576.6 442.05"/><polyline class="cls-8" points="15.08 452.05 -2780.76 -4390.49 -5576.6 452.05"/><polyline class="cls-8" points="15.08 462.05 -2780.76 -4380.49 -5576.6 462.05"/><polyline class="cls-8" points="15.08 472.04 -2780.76 -4370.49 -5576.6 472.04"/><polyline class="cls-8" points="15.08 482.04 -2780.76 -4360.5 -5576.6 482.04"/><polyline class="cls-8" points="15.08 492.04 -2780.76 -4350.5 -5576.6 492.04"/><polyline class="cls-8" points="15.08 502.03 -2780.76 -4340.5 -5576.6 502.03"/><polyline class="cls-8" points="15.08 512.03 -2780.76 -4330.5 -5576.6 512.03"/><polyline class="cls-8" points="15.08 522.03 -2780.76 -4320.51 -5576.6 522.03"/><polyline class="cls-8" points="15.08 532.03 -2780.76 -4310.51 -5576.6 532.03"/><polyline class="cls-8" points="15.08 542.02 -2780.76 -4300.51 -5576.6 542.02"/><polyline class="cls-8" points="15.08 552.02 -2780.76 -4290.52 -5576.6 552.02"/><polyline class="cls-8" points="15.08 562.02 -2780.76 -4280.52 -5576.6 562.02"/><polyline class="cls-8" points="15.08 572.02 -2780.76 -4270.52 -5576.6 572.02"/><polyline class="cls-8" points="15.08 582.01 -2780.76 -4260.52 -5576.6 582.01"/><polyline class="cls-8" points="15.08 592.01 -2780.76 -4250.53 -5576.6 592.01"/><polyline class="cls-8" points="15.08 602.01 -2780.76 -4240.53 -5576.6 602.01"/><polyline class="cls-8" points="15.08 612 -2780.76 -4230.53 -5576.6 612"/><polyline class="cls-8" points="15.08 622 -2780.76 -4220.54 -5576.6 622"/><polyline class="cls-8" points="15.08 632 -2780.76 -4210.54 -5576.6 632"/><polyline class="cls-8" points="15.08 642 -2780.76 -4200.54 -5576.6 642"/><polyline class="cls-8" points="15.08 651.99 -2780.76 -4190.54 -5576.6 651.99"/><polyline class="cls-8" points="15.08 661.99 -2780.76 -4180.55 -5576.6 661.99"/><polyline class="cls-8" points="15.08 671.99 -2780.76 -4170.55 -5576.6 671.99"/><polyline class="cls-8" points="15.08 681.98 -2780.76 -4160.55 -5576.6 681.98"/><polyline class="cls-8" points="15.08 691.98 -2780.76 -4150.56 -5576.6 691.98"/><polyline class="cls-8" points="15.08 701.98 -2780.76 -4140.56 -5576.6 701.98"/><polyline class="cls-8" points="15.08 711.98 -2780.76 -4130.56 -5576.6 711.98"/><polyline class="cls-8" points="15.08 721.97 -2780.76 -4120.56 -5576.6 721.97"/><polyline class="cls-8" points="15.08 731.97 -2780.76 -4110.57 -5576.6 731.97"/><polyline class="cls-8" points="15.08 741.97 -2780.76 -4100.57 -5576.6 741.97"/><polyline class="cls-8" points="15.08 751.97 -2780.76 -4090.57 -5576.6 751.97"/></g></g></g></g><g class="cls-4"><g class="cls-11"><g class="cls-6"><g class="cls-12"><polyline class="cls-8" points="1823.08 3.44 -972.76 -4839.1 -3768.6 3.44"/><polyline class="cls-8" points="1823.08 13.43 -972.76 -4829.1 -3768.6 13.43"/><polyline class="cls-8" points="1823.08 23.43 -972.76 -4819.11 -3768.6 23.43"/><polyline class="cls-8" points="1823.08 33.43 -972.76 -4809.11 -3768.6 33.43"/><polyline class="cls-8" points="1823.08 43.43 -972.76 -4799.11 -3768.6 43.43"/><polyline class="cls-8" points="1823.08 53.42 -972.76 -4789.11 -3768.6 53.42"/><polyline class="cls-8" points="1823.08 63.42 -972.76 -4779.12 -3768.6 63.42"/><polyline class="cls-8" points="1823.08 73.42 -972.76 -4769.12 -3768.6 73.42"/><polyline class="cls-8" points="1823.08 83.41 -972.76 -4759.12 -3768.6 83.41"/><polyline class="cls-8" points="1823.08 93.41 -972.76 -4749.13 -3768.6 93.41"/><polyline class="cls-8" points="1823.08 103.41 -972.76 -4739.13 -3768.6 103.41"/><polyline class="cls-8" points="1823.08 113.41 -972.76 -4729.13 -3768.6 113.41"/><polyline class="cls-8" points="1823.08 123.4 -972.76 -4719.13 -3768.6 123.4"/><polyline class="cls-8" points="1823.08 133.4 -972.76 -4709.14 -3768.6 133.4"/><polyline class="cls-8" points="1823.08 143.4 -972.76 -4699.14 -3768.6 143.4"/><polyline class="cls-8" points="1823.08 153.4 -972.76 -4689.14 -3768.6 153.4"/><polyline class="cls-8" points="1823.08 163.39 -972.76 -4679.15 -3768.6 163.39"/><polyline class="cls-8" points="1823.08 173.39 -972.76 -4669.15 -3768.6 173.39"/><polyline class="cls-8" points="1823.08 183.39 -972.76 -4659.15 -3768.6 183.39"/><polyline class="cls-8" points="1823.08 193.38 -972.76 -4649.15 -3768.6 193.38"/><polyline class="cls-8" points="1823.08 203.38 -972.76 -4639.16 -3768.6 203.38"/><polyline class="cls-8" points="1823.08 213.38 -972.76 -4629.16 -3768.6 213.38"/><polyline class="cls-8" points="1823.08 223.38 -972.76 -4619.16 -3768.6 223.38"/><polyline class="cls-8" points="1823.08 233.37 -972.76 -4609.16 -3768.6 233.37"/><polyline class="cls-8" points="1823.08 243.37 -972.76 -4599.17 -3768.6 243.37"/><polyline class="cls-8" points="1823.08 253.37 -972.76 -4589.17 -3768.6 253.37"/><polyline class="cls-8" points="1823.08 263.36 -972.76 -4579.17 -3768.6 263.36"/><polyline class="cls-8" points="1823.08 273.36 -972.76 -4569.17 -3768.6 273.36"/><polyline class="cls-8" points="1823.08 283.36 -972.76 -4559.18 -3768.6 283.36"/><polyline class="cls-8" points="1823.08 293.36 -972.76 -4549.18 -3768.6 293.36"/><polyline class="cls-8" points="1823.08 303.35 -972.76 -4539.18 -3768.6 303.35"/><polyline class="cls-8" points="1823.08 313.35 -972.76 -4529.19 -3768.6 313.35"/><polyline class="cls-8" points="1823.08 323.35 -972.76 -4519.19 -3768.6 323.35"/><polyline class="cls-8" points="1823.08 333.35 -972.76 -4509.19 -3768.6 333.35"/><polyline class="cls-8" points="1823.08 343.34 -972.76 -4499.2 -3768.6 343.34"/><polyline class="cls-8" points="1823.08 353.34 -972.76 -4489.2 -3768.6 353.34"/><polyline class="cls-8" points="1823.08 363.34 -972.76 -4479.2 -3768.6 363.34"/><polyline class="cls-8" points="1823.08 373.33 -972.76 -4469.2 -3768.6 373.33"/><polyline class="cls-8" points="1823.08 383.33 -972.76 -4459.21 -3768.6 383.33"/><polyline class="cls-8" points="1823.08 393.33 -972.76 -4449.21 -3768.6 393.33"/><polyline class="cls-8" points="1823.08 403.32 -972.76 -4439.21 -3768.6 403.32"/><polyline class="cls-8" points="1823.08 413.32 -972.76 -4429.21 -3768.6 413.32"/><polyline class="cls-8" points="1823.08 423.32 -972.76 -4419.22 -3768.6 423.32"/><polyline class="cls-8" points="1823.08 433.32 -972.76 -4409.22 -3768.6 433.32"/><polyline class="cls-8" points="1823.08 443.31 -972.76 -4399.22 -3768.6 443.31"/><polyline class="cls-8" points="1823.08 453.31 -972.76 -4389.23 -3768.6 453.31"/><polyline class="cls-8" points="1823.08 463.31 -972.76 -4379.23 -3768.6 463.31"/><polyline class="cls-8" points="1823.08 473.31 -972.76 -4369.23 -3768.6 473.31"/><polyline class="cls-8" points="1823.08 483.3 -972.76 -4359.23 -3768.6 483.3"/><polyline class="cls-8" points="1823.08 493.3 -972.76 -4349.24 -3768.6 493.3"/><polyline class="cls-8" points="1823.08 503.3 -972.76 -4339.24 -3768.6 503.3"/><polyline class="cls-8" points="1823.08 513.29 -972.76 -4329.24 -3768.6 513.29"/><polyline class="cls-8" points="1823.08 523.29 -972.76 -4319.25 -3768.6 523.29"/><polyline class="cls-8" points="1823.08 533.29 -972.76 -4309.25 -3768.6 533.29"/><polyline class="cls-8" points="1823.08 543.29 -972.76 -4299.25 -3768.6 543.29"/><polyline class="cls-8" points="1823.08 553.28 -972.76 -4289.25 -3768.6 553.28"/><polyline class="cls-8" points="1823.08 563.28 -972.76 -4279.26 -3768.6 563.28"/><polyline class="cls-8" points="1823.08 573.28 -972.76 -4269.26 -3768.6 573.28"/><polyline class="cls-8" points="1823.08 583.27 -972.76 -4259.26 -3768.6 583.27"/><polyline class="cls-8" points="1823.08 593.27 -972.76 -4249.26 -3768.6 593.27"/><polyline class="cls-8" points="1823.08 603.27 -972.76 -4239.27 -3768.6 603.27"/><polyline class="cls-8" points="1823.08 613.27 -972.76 -4229.27 -3768.6 613.27"/><polyline class="cls-8" points="1823.08 623.26 -972.76 -4219.27 -3768.6 623.26"/><polyline class="cls-8" points="1823.08 633.26 -972.76 -4209.28 -3768.6 633.26"/><polyline class="cls-8" points="1823.08 643.26 -972.76 -4199.28 -3768.6 643.26"/><polyline class="cls-8" points="1823.08 653.26 -972.76 -4189.28 -3768.6 653.26"/><polyline class="cls-8" points="1823.08 663.25 -972.76 -4179.28 -3768.6 663.25"/><polyline class="cls-8" points="1823.08 673.25 -972.76 -4169.29 -3768.6 673.25"/><polyline class="cls-8" points="1823.08 683.25 -972.76 -4159.29 -3768.6 683.25"/><polyline class="cls-8" points="1823.08 693.24 -972.76 -4149.29 -3768.6 693.24"/><polyline class="cls-8" points="1823.08 703.24 -972.76 -4139.3 -3768.6 703.24"/><polyline class="cls-8" points="1823.08 713.24 -972.76 -4129.3 -3768.6 713.24"/><polyline class="cls-8" points="1823.08 723.24 -972.76 -4119.3 -3768.6 723.24"/><polyline class="cls-8" points="1823.08 733.23 -972.76 -4109.3 -3768.6 733.23"/><polyline class="cls-8" points="1823.08 743.23 -972.76 -4099.31 -3768.6 743.23"/><polyline class="cls-8" points="1823.08 753.23 -972.76 -4089.31 -3768.6 753.23"/><polyline class="cls-8" points="1823.08 763.23 -972.76 -4079.31 -3768.6 763.23"/><polyline class="cls-8" points="1823.08 773.22 -972.76 -4069.31 -3768.6 773.22"/><polyline class="cls-8" points="1823.08 783.22 -972.76 -4059.32 -3768.6 783.22"/><polyline class="cls-8" points="1823.08 793.22 -972.76 -4049.32 -3768.6 793.22"/><polyline class="cls-8" points="1823.08 803.21 -972.76 -4039.32 -3768.6 803.21"/><polyline class="cls-8" points="1823.08 813.21 -972.76 -4029.33 -3768.6 813.21"/><polyline class="cls-8" points="1823.08 823.21 -972.76 -4019.33 -3768.6 823.21"/><polyline class="cls-8" points="1823.08 833.2 -972.76 -4009.33 -3768.6 833.2"/><polyline class="cls-8" points="1823.08 843.2 -972.76 -3999.33 -3768.6 843.2"/><polyline class="cls-8" points="1823.08 853.2 -972.76 -3989.34 -3768.6 853.2"/><polyline class="cls-8" points="1823.08 863.2 -972.76 -3979.34 -3768.6 863.2"/><polyline class="cls-8" points="1823.08 873.19 -972.76 -3969.34 -3768.6 873.19"/><polyline class="cls-8" points="1823.08 883.19 -972.76 -3959.35 -3768.6 883.19"/><polyline class="cls-8" points="1823.08 893.19 -972.76 -3949.35 -3768.6 893.19"/><polyline class="cls-8" points="1823.08 903.19 -972.76 -3939.35 -3768.6 903.19"/><polyline class="cls-8" points="1823.08 913.18 -972.76 -3929.35 -3768.6 913.18"/><polyline class="cls-8" points="1823.08 923.18 -972.76 -3919.36 -3768.6 923.18"/><polyline class="cls-8" points="1823.08 933.18 -972.76 -3909.36 -3768.6 933.18"/><polyline class="cls-8" points="1823.08 943.17 -972.76 -3899.36 -3768.6 943.17"/><polyline class="cls-8" points="1823.08 953.17 -972.76 -3889.37 -3768.6 953.17"/><polyline class="cls-8" points="1823.08 963.17 -972.76 -3879.37 -3768.6 963.17"/><polyline class="cls-8" points="1823.08 973.17 -972.76 -3869.37 -3768.6 973.17"/><polyline class="cls-8" points="1823.08 983.16 -972.76 -3859.37 -3768.6 983.16"/><polyline class="cls-8" points="1823.08 993.16 -972.76 -3849.38 -3768.6 993.16"/><polyline class="cls-8" points="1823.08 1003.16 -972.76 -3839.38 -3768.6 1003.16"/><polyline class="cls-8" points="1823.08 1013.15 -972.76 -3829.38 -3768.6 1013.15"/><polyline class="cls-8" points="1823.08 1023.15 -972.76 -3819.38 -3768.6 1023.15"/><polyline class="cls-8" points="1823.08 1033.15 -972.76 -3809.39 -3768.6 1033.15"/><polyline class="cls-8" points="1823.08 1043.15 -972.76 -3799.39 -3768.6 1043.15"/><polyline class="cls-8" points="1823.08 1053.14 -972.76 -3789.39 -3768.6 1053.14"/><polyline class="cls-8" points="1823.08 1063.14 -972.76 -3779.4 -3768.6 1063.14"/><polyline class="cls-8" points="1823.08 1073.14 -972.76 -3769.4 -3768.6 1073.14"/><polyline class="cls-8" points="1823.08 1083.14 -972.76 -3759.4 -3768.6 1083.14"/><polyline class="cls-8" points="1823.08 1093.13 -972.76 -3749.4 -3768.6 1093.13"/><polyline class="cls-8" points="1823.08 1103.13 -972.76 -3739.41 -3768.6 1103.13"/><polyline class="cls-8" points="1823.08 1113.13 -972.76 -3729.41 -3768.6 1113.13"/><polyline class="cls-8" points="1823.08 1123.12 -972.76 -3719.41 -3768.6 1123.12"/><polyline class="cls-8" points="1823.08 1133.12 -972.76 -3709.41 -3768.6 1133.12"/><polyline class="cls-8" points="1823.08 1143.12 -972.76 -3699.42 -3768.6 1143.12"/><polyline class="cls-8" points="1823.08 1153.12 -972.76 -3689.42 -3768.6 1153.12"/><polyline class="cls-8" points="1823.08 1163.11 -972.76 -3679.42 -3768.6 1163.11"/><polyline class="cls-8" points="1823.08 1173.11 -972.76 -3669.43 -3768.6 1173.11"/><polyline class="cls-8" points="1823.08 1183.11 -972.76 -3659.43 -3768.6 1183.11"/><polyline class="cls-8" points="1823.08 1193.1 -972.76 -3649.43 -3768.6 1193.1"/><polyline class="cls-8" points="1823.08 1203.1 -972.76 -3639.43 -3768.6 1203.1"/><polyline class="cls-8" points="1823.08 1213.1 -972.76 -3629.44 -3768.6 1213.1"/><polyline class="cls-8" points="1823.08 1223.1 -972.76 -3619.44 -3768.6 1223.1"/><polyline class="cls-8" points="1823.08 1233.09 -972.76 -3609.44 -3768.6 1233.09"/><polyline class="cls-8" points="1823.08 1243.09 -972.76 -3599.45 -3768.6 1243.09"/><polyline class="cls-8" points="1823.08 1253.09 -972.76 -3589.45 -3768.6 1253.09"/><polyline class="cls-8" points="1823.08 1263.09 -972.76 -3579.45 -3768.6 1263.09"/><polyline class="cls-8" points="1823.08 1273.08 -972.76 -3569.45 -3768.6 1273.08"/><polyline class="cls-8" points="1823.08 1283.08 -972.76 -3559.46 -3768.6 1283.08"/><polyline class="cls-8" points="1823.08 1293.08 -972.76 -3549.46 -3768.6 1293.08"/><polyline class="cls-8" points="1823.08 1303.07 -972.76 -3539.46 -3768.6 1303.07"/><polyline class="cls-8" points="1823.08 1313.07 -972.76 -3529.47 -3768.6 1313.07"/><polyline class="cls-8" points="1823.08 1323.07 -972.76 -3519.47 -3768.6 1323.07"/><polyline class="cls-8" points="1823.08 1333.07 -972.76 -3509.47 -3768.6 1333.07"/><polyline class="cls-8" points="1823.08 1343.06 -972.76 -3499.47 -3768.6 1343.06"/><polyline class="cls-8" points="1823.08 1353.06 -972.76 -3489.48 -3768.6 1353.06"/><polyline class="cls-8" points="1823.08 1363.06 -972.76 -3479.48 -3768.6 1363.06"/><polyline class="cls-8" points="1823.08 1373.06 -972.76 -3469.48 -3768.6 1373.06"/><polyline class="cls-8" points="1823.08 1383.05 -972.76 -3459.49 -3768.6 1383.05"/><polyline class="cls-8" points="1823.08 1393.05 -972.76 -3449.49 -3768.6 1393.05"/><polyline class="cls-8" points="1823.08 1403.05 -972.76 -3439.49 -3768.6 1403.05"/><polyline class="cls-8" points="1823.08 1413.04 -972.76 -3429.49 -3768.6 1413.04"/><polyline class="cls-8" points="1823.08 1423.04 -972.76 -3419.5 -3768.6 1423.04"/><polyline class="cls-8" points="1823.08 1433.04 -972.76 -3409.5 -3768.6 1433.04"/><polyline class="cls-8" points="1823.08 1443.03 -972.76 -3399.5 -3768.6 1443.03"/><polyline class="cls-8" points="1823.08 1453.03 -972.76 -3389.5 -3768.6 1453.03"/><polyline class="cls-8" points="1823.08 1463.03 -972.76 -3379.51 -3768.6 1463.03"/><polyline class="cls-8" points="1823.08 1473.03 -972.76 -3369.51 -3768.6 1473.03"/><polyline class="cls-8" points="1823.08 1483.02 -972.76 -3359.51 -3768.6 1483.02"/><polyline class="cls-8" points="1823.08 1493.02 -972.76 -3349.52 -3768.6 1493.02"/><polyline class="cls-8" points="1823.08 1503.02 -972.76 -3339.52 -3768.6 1503.02"/><polyline class="cls-8" points="1823.08 1513.02 -972.76 -3329.52 -3768.6 1513.02"/><polyline class="cls-8" points="1823.08 1523.01 -972.76 -3319.52 -3768.6 1523.01"/><polyline class="cls-8" points="1823.08 1533.01 -972.76 -3309.53 -3768.6 1533.01"/><polyline class="cls-8" points="1823.08 1543.01 -972.76 -3299.53 -3768.6 1543.01"/><polyline class="cls-8" points="1823.08 1553 -972.76 -3289.53 -3768.6 1553"/><polyline class="cls-8" points="1823.08 1563 -972.76 -3279.54 -3768.6 1563"/><polyline class="cls-8" points="1823.08 1573 -972.76 -3269.54 -3768.6 1573"/><polyline class="cls-8" points="1823.08 1583 -972.76 -3259.54 -3768.6 1583"/><polyline class="cls-8" points="1823.08 1592.99 -972.76 -3249.54 -3768.6 1592.99"/><polyline class="cls-8" points="1823.08 1602.99 -972.76 -3239.55 -3768.6 1602.99"/><polyline class="cls-8" points="1823.08 1612.99 -972.76 -3229.55 -3768.6 1612.99"/><polyline class="cls-8" points="1823.08 1622.98 -972.76 -3219.55 -3768.6 1622.98"/><polyline class="cls-8" points="1823.08 1632.98 -972.76 -3209.56 -3768.6 1632.98"/><polyline class="cls-8" points="1823.08 1642.98 -972.76 -3199.56 -3768.6 1642.98"/><polyline class="cls-8" points="1823.08 1652.98 -972.76 -3189.56 -3768.6 1652.98"/><polyline class="cls-8" points="1823.08 1662.97 -972.76 -3179.56 -3768.6 1662.97"/><polyline class="cls-8" points="1823.08 1672.97 -972.76 -3169.57 -3768.6 1672.97"/><polyline class="cls-8" points="1823.08 1682.97 -972.76 -3159.57 -3768.6 1682.97"/><polyline class="cls-8" points="1823.08 1692.97 -972.76 -3149.57 -3768.6 1692.97"/></g></g></g></g><g class="cls-4"><g class="cls-13"><g class="cls-6"><g class="cls-14"><polyline class="cls-8" points="1823.08 2.17 -972.76 -4840.36 -3768.6 2.17"/><polyline class="cls-8" points="1823.08 12.17 -972.76 -4830.37 -3768.6 12.17"/><polyline class="cls-8" points="1823.08 22.17 -972.76 -4820.37 -3768.6 22.17"/><polyline class="cls-8" points="1823.08 32.17 -972.76 -4810.37 -3768.6 32.17"/><polyline class="cls-8" points="1823.08 42.16 -972.76 -4800.37 -3768.6 42.16"/><polyline class="cls-8" points="1823.08 52.16 -972.76 -4790.38 -3768.6 52.16"/><polyline class="cls-8" points="1823.08 62.16 -972.76 -4780.38 -3768.6 62.16"/><polyline class="cls-8" points="1823.08 72.15 -972.76 -4770.38 -3768.6 72.15"/><polyline class="cls-8" points="1823.08 82.15 -972.76 -4760.38 -3768.6 82.15"/><polyline class="cls-8" points="1823.08 92.15 -972.76 -4750.39 -3768.6 92.15"/><polyline class="cls-8" points="1823.08 102.15 -972.76 -4740.39 -3768.6 102.15"/><polyline class="cls-8" points="1823.08 112.14 -972.76 -4730.39 -3768.6 112.14"/><polyline class="cls-8" points="1823.08 122.14 -972.76 -4720.4 -3768.6 122.14"/><polyline class="cls-8" points="1823.08 132.14 -972.76 -4710.4 -3768.6 132.14"/><polyline class="cls-8" points="1823.08 142.14 -972.76 -4700.4 -3768.6 142.14"/><polyline class="cls-8" points="1823.08 152.13 -972.76 -4690.4 -3768.6 152.13"/><polyline class="cls-8" points="1823.08 162.13 -972.76 -4680.41 -3768.6 162.13"/><polyline class="cls-8" points="1823.08 172.13 -972.76 -4670.41 -3768.6 172.13"/><polyline class="cls-8" points="1823.08 182.12 -972.76 -4660.41 -3768.6 182.12"/><polyline class="cls-8" points="1823.08 192.12 -972.76 -4650.41 -3768.6 192.12"/><polyline class="cls-8" points="1823.08 202.12 -972.76 -4640.42 -3768.6 202.12"/><polyline class="cls-8" points="1823.08 212.12 -972.76 -4630.42 -3768.6 212.12"/><polyline class="cls-8" points="1823.08 222.11 -972.76 -4620.42 -3768.6 222.11"/><polyline class="cls-8" points="1823.08 232.11 -972.76 -4610.43 -3768.6 232.11"/><polyline class="cls-8" points="1823.08 242.11 -972.76 -4600.43 -3768.6 242.11"/><polyline class="cls-8" points="1823.08 252.1 -972.76 -4590.43 -3768.6 252.1"/><polyline class="cls-8" points="1823.08 262.1 -972.76 -4580.43 -3768.6 262.1"/><polyline class="cls-8" points="1823.08 272.1 -972.76 -4570.44 -3768.6 272.1"/><polyline class="cls-8" points="1823.08 282.1 -972.76 -4560.44 -3768.6 282.1"/><polyline class="cls-8" points="1823.08 292.09 -972.76 -4550.44 -3768.6 292.09"/><polyline class="cls-8" points="1823.08 302.09 -972.76 -4540.45 -3768.6 302.09"/><polyline class="cls-8" points="1823.08 312.09 -972.76 -4530.45 -3768.6 312.09"/><polyline class="cls-8" points="1823.08 322.09 -972.76 -4520.45 -3768.6 322.09"/><polyline class="cls-8" points="1823.08 332.08 -972.76 -4510.45 -3768.6 332.08"/><polyline class="cls-8" points="1823.08 342.08 -972.76 -4500.46 -3768.6 342.08"/><polyline class="cls-8" points="1823.08 352.08 -972.76 -4490.46 -3768.6 352.08"/><polyline class="cls-8" points="1823.08 362.07 -972.76 -4480.46 -3768.6 362.07"/><polyline class="cls-8" points="1823.08 372.07 -972.76 -4470.47 -3768.6 372.07"/><polyline class="cls-8" points="1823.08 382.07 -972.76 -4460.47 -3768.6 382.07"/><polyline class="cls-8" points="1823.08 392.07 -972.76 -4450.47 -3768.6 392.07"/><polyline class="cls-8" points="1823.08 402.06 -972.76 -4440.47 -3768.6 402.06"/><polyline class="cls-8" points="1823.08 412.06 -972.76 -4430.48 -3768.6 412.06"/><polyline class="cls-8" points="1823.08 422.06 -972.76 -4420.48 -3768.6 422.06"/><polyline class="cls-8" points="1823.08 432.06 -972.76 -4410.48 -3768.6 432.06"/><polyline class="cls-8" points="1823.08 442.05 -972.76 -4400.49 -3768.6 442.05"/><polyline class="cls-8" points="1823.08 452.05 -972.76 -4390.49 -3768.6 452.05"/><polyline class="cls-8" points="1823.08 462.05 -972.76 -4380.49 -3768.6 462.05"/><polyline class="cls-8" points="1823.08 472.04 -972.76 -4370.49 -3768.6 472.04"/><polyline class="cls-8" points="1823.08 482.04 -972.76 -4360.5 -3768.6 482.04"/><polyline class="cls-8" points="1823.08 492.04 -972.76 -4350.5 -3768.6 492.04"/><polyline class="cls-8" points="1823.08 502.03 -972.76 -4340.5 -3768.6 502.03"/><polyline class="cls-8" points="1823.08 512.03 -972.76 -4330.5 -3768.6 512.03"/><polyline class="cls-8" points="1823.08 522.03 -972.76 -4320.51 -3768.6 522.03"/><polyline class="cls-8" points="1823.08 532.03 -972.76 -4310.51 -3768.6 532.03"/><polyline class="cls-8" points="1823.08 542.02 -972.76 -4300.51 -3768.6 542.02"/><polyline class="cls-8" points="1823.08 552.02 -972.76 -4290.52 -3768.6 552.02"/><polyline class="cls-8" points="1823.08 562.02 -972.76 -4280.52 -3768.6 562.02"/><polyline class="cls-8" points="1823.08 572.02 -972.76 -4270.52 -3768.6 572.02"/><polyline class="cls-8" points="1823.08 582.01 -972.76 -4260.52 -3768.6 582.01"/><polyline class="cls-8" points="1823.08 592.01 -972.76 -4250.53 -3768.6 592.01"/><polyline class="cls-8" points="1823.08 602.01 -972.76 -4240.53 -3768.6 602.01"/><polyline class="cls-8" points="1823.08 612 -972.76 -4230.53 -3768.6 612"/><polyline class="cls-8" points="1823.08 622 -972.76 -4220.54 -3768.6 622"/><polyline class="cls-8" points="1823.08 632 -972.76 -4210.54 -3768.6 632"/><polyline class="cls-8" points="1823.08 642 -972.76 -4200.54 -3768.6 642"/><polyline class="cls-8" points="1823.08 651.99 -972.76 -4190.54 -3768.6 651.99"/><polyline class="cls-8" points="1823.08 661.99 -972.76 -4180.55 -3768.6 661.99"/><polyline class="cls-8" points="1823.08 671.99 -972.76 -4170.55 -3768.6 671.99"/><polyline class="cls-8" points="1823.08 681.98 -972.76 -4160.55 -3768.6 681.98"/><polyline class="cls-8" points="1823.08 691.98 -972.76 -4150.56 -3768.6 691.98"/><polyline class="cls-8" points="1823.08 701.98 -972.76 -4140.56 -3768.6 701.98"/><polyline class="cls-8" points="1823.08 711.98 -972.76 -4130.56 -3768.6 711.98"/><polyline class="cls-8" points="1823.08 721.97 -972.76 -4120.56 -3768.6 721.97"/><polyline class="cls-8" points="1823.08 731.97 -972.76 -4110.57 -3768.6 731.97"/><polyline class="cls-8" points="1823.08 741.97 -972.76 -4100.57 -3768.6 741.97"/><polyline class="cls-8" points="1823.08 751.97 -972.76 -4090.57 -3768.6 751.97"/></g></g></g></g></g><g id="Layer_1" data-name="Layer 1"><g class="cls-4"><g class="cls-15"><g class="cls-6"><g class="cls-16"><polyline class="cls-17" points="3545.08 1.58 749.24 -4840.95 -2046.6 1.58"/><polyline class="cls-17" points="3545.08 11.58 749.24 -4830.96 -2046.6 11.58"/><polyline class="cls-17" points="3545.08 21.58 749.24 -4820.96 -2046.6 21.58"/><polyline class="cls-17" points="3545.08 31.57 749.24 -4810.96 -2046.6 31.57"/><polyline class="cls-17" points="3545.08 41.57 749.24 -4800.97 -2046.6 41.57"/><polyline class="cls-17" points="3545.08 51.57 749.24 -4790.97 -2046.6 51.57"/><polyline class="cls-17" points="3545.08 61.57 749.24 -4780.97 -2046.6 61.57"/><polyline class="cls-17" points="3545.08 71.56 749.24 -4770.97 -2046.6 71.56"/><polyline class="cls-17" points="3545.08 81.56 749.24 -4760.98 -2046.6 81.56"/><polyline class="cls-17" points="3545.08 91.56 749.24 -4750.98 -2046.6 91.56"/><polyline class="cls-17" points="3545.08 101.56 749.24 -4740.98 -2046.6 101.56"/><polyline class="cls-17" points="3545.08 111.55 749.24 -4730.99 -2046.6 111.55"/><polyline class="cls-17" points="3545.08 121.55 749.24 -4720.99 -2046.6 121.55"/><polyline class="cls-17" points="3545.08 131.55 749.24 -4710.99 -2046.6 131.55"/><polyline class="cls-17" points="3545.08 141.54 749.24 -4700.99 -2046.6 141.54"/><polyline class="cls-17" points="3545.08 151.54 749.24 -4691 -2046.6 151.54"/><polyline class="cls-17" points="3545.08 161.54 749.24 -4681 -2046.6 161.54"/><polyline class="cls-17" points="3545.08 171.53 749.24 -4671 -2046.6 171.53"/><polyline class="cls-17" points="3545.08 181.53 749.24 -4661 -2046.6 181.53"/><polyline class="cls-17" points="3545.08 191.53 749.24 -4651.01 -2046.6 191.53"/><polyline class="cls-17" points="3545.08 201.53 749.24 -4641.01 -2046.6 201.53"/><polyline class="cls-17" points="3545.08 211.52 749.24 -4631.01 -2046.6 211.52"/><polyline class="cls-17" points="3545.08 221.52 749.24 -4621.02 -2046.6 221.52"/><polyline class="cls-17" points="3545.08 231.52 749.24 -4611.02 -2046.6 231.52"/><polyline class="cls-17" points="3545.08 241.52 749.24 -4601.02 -2046.6 241.52"/><polyline class="cls-17" points="3545.08 251.51 749.24 -4591.02 -2046.6 251.51"/><polyline class="cls-17" points="3545.08 261.51 749.24 -4581.03 -2046.6 261.51"/><polyline class="cls-17" points="3545.08 271.51 749.24 -4571.03 -2046.6 271.51"/><polyline class="cls-17" points="3545.08 281.5 749.24 -4561.03 -2046.6 281.5"/><polyline class="cls-17" points="3545.08 291.5 749.24 -4551.04 -2046.6 291.5"/><polyline class="cls-17" points="3545.08 301.5 749.24 -4541.04 -2046.6 301.5"/><polyline class="cls-17" points="3545.08 311.5 749.24 -4531.04 -2046.6 311.5"/><polyline class="cls-17" points="3545.08 321.49 749.24 -4521.04 -2046.6 321.49"/><polyline class="cls-17" points="3545.08 331.49 749.24 -4511.05 -2046.6 331.49"/><polyline class="cls-17" points="3545.08 341.49 749.24 -4501.05 -2046.6 341.49"/><polyline class="cls-17" points="3545.08 351.48 749.24 -4491.05 -2046.6 351.48"/><polyline class="cls-17" points="3545.08 361.48 749.24 -4481.06 -2046.6 361.48"/><polyline class="cls-17" points="3545.08 371.48 749.24 -4471.06 -2046.6 371.48"/><polyline class="cls-17" points="3545.08 381.48 749.24 -4461.06 -2046.6 381.48"/><polyline class="cls-17" points="3545.08 391.47 749.24 -4451.06 -2046.6 391.47"/><polyline class="cls-17" points="3545.08 401.47 749.24 -4441.07 -2046.6 401.47"/><polyline class="cls-17" points="3545.08 411.47 749.24 -4431.07 -2046.6 411.47"/><polyline class="cls-17" points="3545.08 421.47 749.24 -4421.07 -2046.6 421.47"/></g><rect class="cls-2" x="-1996.5" y="-5715" width="2528" height="1456"/></g></g></g></g><g id="Highlighted_Wells_Groups" data-name="Highlighted Wells Groups"><path class="cls-18" d="M14.63,2.25H10.88V.55c0-.3,0-.55-.28-.55h-6c-.82,0-.86,0-.86.55v1.7H.58A.68.68,0,0,0,0,2.91V5.26C0,5.57.28,6,.58,6H.75V17.45c0,.3.57.55.87.55h12c.3,0,.29-.25.29-.55V6h.75c.3,0,.37-.43.37-.74V2.91C15,2.6,14.93,2.25,14.63,2.25ZM4.88,1.12H9.75V2.25H4.88ZM1.12,3.38H13.88v1.5H1.12Zm11.63,13.5H1.88V6H3.75v7.22a.57.57,0,0,0,1.13,0V6H6.75v7.22a.57.57,0,0,0,1.13,0V6H9.75v7.22a.57.57,0,0,0,1.13,0V6h1.87V16.88Z"/></g></g></svg>