<?xml version="1.0" encoding="utf-8"?>
<!-- Generator: Adobe Illustrator 24.2.3, SVG Export Plug-In . SVG Version: 6.00 Build 0)  -->
<svg version="1.1" id="Layer_1" xmlns="http://www.w3.org/2000/svg" xmlns:xlink="http://www.w3.org/1999/xlink" x="0px" y="0px"
	 viewBox="0 0 10 10" style="enable-background:new 0 0 10 10;" xml:space="preserve">
<style type="text/css">
	.st0{fill:#8DC63F;}
	.st1{fill:#FFFFFF;}
</style>
<path class="st0" d="M10,5c0,2.8-2.2,5-5,5S0,7.8,0,5s2.2-5,5-5S10,2.2,10,5z"/>
<g>
	<path class="st1" d="M4.1,7.3C4,7.3,3.8,7.2,3.7,7.1L2.4,5.8c-0.2-0.2-0.2-0.5,0-0.7s0.5-0.2,0.7,0l1,1l2.8-3.1
		c0.2-0.2,0.5-0.2,0.7,0c0.2,0.2,0.2,0.5,0,0.7L4.5,7.1C4.4,7.2,4.3,7.3,4.1,7.3C4.1,7.3,4.1,7.3,4.1,7.3z"/>
</g>
</svg>
