<?xml version="1.0" encoding="utf-8"?>
<!-- Generator: Adobe Illustrator 16.0.0, SVG Export Plug-In . SVG Version: 6.00 Build 0)  -->
<!DOCTYPE svg PUBLIC "-//W3C//DTD SVG 1.1//EN" "http://www.w3.org/Graphics/SVG/1.1/DTD/svg11.dtd">
<svg version="1.1" xmlns="http://www.w3.org/2000/svg" xmlns:xlink="http://www.w3.org/1999/xlink" x="0px" y="0px"
	 width="529.473px" height="114.494px" viewBox="0 0 529.473 114.494" enable-background="new 0 0 529.473 114.494"
	 xml:space="preserve">
<g id="Layer_2">
	<rect width="529.473" height="114.494"/>
</g>
<g id="Layer_1">
	<g>
		<g>
			<path fill="#FFFFFF" d="M145.66,40.159c9.434,0,17.055,7.621,17.055,17.054c0,9.435-7.621,17.056-17.055,17.056
				c-9.432,0-17.053-7.621-17.053-17.056C128.607,47.78,136.229,40.159,145.66,40.159z M145.66,72.136
				c8.262,0,14.924-6.662,14.924-14.923s-6.662-14.922-14.924-14.922c-8.26,0-14.922,6.661-14.922,14.922
				S137.4,72.136,145.66,72.136z"/>
			<path fill="#FFFFFF" d="M180.303,41.225c0-0.586,0.48-1.065,1.066-1.065h16.096c5.701,0.053,10.285,4.689,10.285,10.392
				c0,5.757-4.584,10.34-10.285,10.396h-15.029v12.258c0,0.586-0.48,1.063-1.066,1.063s-1.066-0.479-1.066-1.063L180.303,41.225
				L180.303,41.225z M182.436,42.291v16.521h14.922c4.584,0,8.262-3.677,8.262-8.261c0-4.529-3.625-8.207-8.154-8.26H182.436z"/>
			<path fill="#FFFFFF" d="M225.869,41.225c0-0.586,0.48-1.065,1.066-1.065h26.648c0.586,0,1.064,0.479,1.064,1.065
				c0,0.587-0.479,1.066-1.064,1.066h-25.582v13.856h20.252c0.586,0,1.066,0.479,1.066,1.065c0,0.587-0.48,1.066-1.066,1.066
				h-20.252v13.854h25.582c0.586,0,1.064,0.479,1.064,1.066c0,0.586-0.479,1.063-1.064,1.063h-26.648
				c-0.586,0-1.066-0.479-1.066-1.063V41.225z"/>
			<path fill="#FFFFFF" d="M272.77,41.225c0-0.586,0.48-1.065,1.066-1.065c0.32,0,0.586,0.159,0.854,0.426l30.058,30.06V41.226
				c0-0.586,0.479-1.065,1.065-1.065c0.587,0,1.066,0.479,1.066,1.065v31.978c0,0.586-0.479,1.064-1.066,1.064
				c-0.373,0-0.639-0.213-0.852-0.428L274.9,43.783v29.419c0,0.586-0.479,1.064-1.064,1.064s-1.066-0.479-1.066-1.064V41.225
				L272.77,41.225z"/>
			<path fill="#FF6E02" d="M352.819,70.004c-3.037,2.665-6.98,4.265-11.298,4.265c-9.436,0-17.057-7.621-17.057-17.056
				c0-9.433,7.621-17.054,17.057-17.054c9.433,0,17.054,7.621,17.054,17.054c0,4.371-1.601,8.313-4.263,11.299l3.941,3.943
				c0.426,0.427,0.426,1.065,0,1.493c-0.426,0.427-1.063,0.427-1.492,0L352.819,70.004z M347.483,63.175
				c0.426-0.426,1.063-0.426,1.489,0l3.791,3.846c2.291-2.61,3.681-6.021,3.681-9.808c0-8.261-6.662-14.922-14.923-14.922
				c-8.264,0-14.926,6.661-14.926,14.922s6.662,14.923,14.926,14.923c3.729,0,7.142-1.386,9.753-3.623
				c-5.759-5.81-3.791-3.791-3.791-3.846C347.057,64.24,347.057,63.603,347.483,63.175z"/>
			<path fill="#FF6E02" d="M376.163,41.225c0-0.586,0.479-1.065,1.063-1.065h16.099c5.701,0.053,10.285,4.689,10.285,10.392
				c0,5.757-4.584,10.34-10.285,10.396h-15.029v12.258c0,0.586-0.479,1.063-1.065,1.063c-0.587,0-1.066-0.479-1.066-1.063
				L376.163,41.225L376.163,41.225z M378.295,42.291v16.521h14.922c4.584,0,8.262-3.677,8.262-8.261c0-4.529-3.625-8.207-8.153-8.26
				H378.295z"/>
			<path fill="#FF6E02" d="M437.186,40.159c4.638,0,8.849,1.865,11.938,4.903c0.268,0.213,0.428,0.532,0.428,0.853
				c0,0.586-0.479,1.065-1.063,1.065c-0.373,0-0.586-0.106-0.855-0.373c-2.719-2.611-6.395-4.316-10.445-4.316
				c-8.262,0-14.922,6.661-14.922,14.922s6.66,14.923,14.922,14.923c4.054,0,7.729-1.599,10.445-4.264
				c0.271-0.268,0.48-0.426,0.855-0.426c0.586,0,1.063,0.479,1.063,1.063c0,0.32-0.104,0.587-0.317,0.802
				c-3.095,3.09-7.355,4.955-12.047,4.955c-9.435,0-17.056-7.621-17.056-17.056C420.131,47.78,427.752,40.159,437.186,40.159z"/>
			<path fill="#FF6E02" d="M467.137,41.225c0-0.586,0.48-1.065,1.066-1.065h16.096c5.703,0.053,10.285,4.689,10.285,10.392
				c0,5.757-4.582,10.34-10.285,10.396h-0.213l11.404,11.403c0.268,0.267,0.426,0.531,0.426,0.854c0,0.586-0.48,1.064-1.064,1.064
				c-0.373,0-0.641-0.213-0.854-0.428l-12.896-12.896H469.27v12.259c0,0.586-0.479,1.065-1.065,1.065s-1.066-0.479-1.066-1.065
				L467.137,41.225L467.137,41.225z M469.27,42.291v16.521h15.029c4.529-0.053,8.154-3.677,8.154-8.261
				c0-4.583-3.678-8.26-8.262-8.26H469.27z"/>
		</g>
	</g>
	<g>
		<g>
			<g>
				<path fill="#FFFFFF" d="M70.937,96.05c-8.098,0-14.686-6.588-14.686-14.686c0-8.096,6.588-14.684,14.686-14.684
					c8.096,0,14.684,6.588,14.684,14.684C85.62,89.462,79.032,96.05,70.937,96.05z M70.937,70.433
					c-6.027,0-10.932,4.904-10.932,10.933s4.904,10.932,10.932,10.932s10.93-4.903,10.93-10.932S76.964,70.433,70.937,70.433z"/>
				<path fill="#FFFFFF" d="M70.937,47.813c-8.098,0-14.686-6.588-14.686-14.686c0-8.096,6.588-14.684,14.686-14.684
					c8.096,0,14.684,6.588,14.684,14.684C85.62,41.226,79.032,47.813,70.937,47.813z M70.937,22.198
					c-6.027,0-10.932,4.903-10.932,10.93c0,6.027,4.904,10.932,10.932,10.932s10.93-4.904,10.93-10.932
					C81.866,27.101,76.964,22.198,70.937,22.198z"/>
				<path fill="#FFFFFF" d="M95.054,71.931c-8.098,0-14.684-6.586-14.684-14.684c0-8.098,6.586-14.686,14.684-14.686
					c8.098,0,14.686,6.588,14.686,14.686C109.74,65.345,103.151,71.931,95.054,71.931z M95.054,46.315
					c-6.027,0-10.932,4.904-10.932,10.932c0,6.027,4.904,10.932,10.932,10.932c6.028,0,10.932-4.904,10.932-10.932
					C105.986,51.219,101.081,46.315,95.054,46.315z"/>
				<path fill="#FFFFFF" d="M46.817,71.931c-8.096,0-14.684-6.586-14.684-14.684c0-8.098,6.588-14.686,14.684-14.686
					c8.098,0,14.686,6.588,14.686,14.686C61.503,65.345,54.915,71.931,46.817,71.931z M46.817,46.315
					c-6.027,0-10.932,4.904-10.932,10.932c0,6.027,4.904,10.932,10.932,10.932c6.028,0,10.932-4.904,10.932-10.932
					C57.749,51.219,52.845,46.315,46.817,46.315z"/>
				<path fill="#FFFFFF" d="M95.054,71.931c-8.098,0-14.684-6.586-14.684-14.684c0-8.098,6.586-14.686,14.684-14.686
					c8.098,0,14.686,6.588,14.686,14.686C109.74,65.345,103.151,71.931,95.054,71.931z M95.054,46.315
					c-6.027,0-10.932,4.904-10.932,10.932c0,6.027,4.904,10.932,10.932,10.932c6.028,0,10.932-4.904,10.932-10.932
					C105.986,51.219,101.081,46.315,95.054,46.315z"/>
				<path fill="#FFFFFF" d="M87.989,54.878c-3.922,0-7.609-1.527-10.383-4.303c-5.727-5.725-5.727-15.041,0-20.766
					c2.773-2.774,6.461-4.301,10.383-4.301c3.922,0,7.611,1.527,10.385,4.301c2.773,2.773,4.301,6.461,4.301,10.383
					c0,3.924-1.527,7.611-4.301,10.385C95.6,53.351,91.913,54.878,87.989,54.878z M87.989,29.261c-2.92,0-5.664,1.139-7.729,3.203
					c-4.262,4.262-4.262,11.197,0,15.459c2.064,2.064,4.809,3.201,7.729,3.201c2.92,0,5.666-1.137,7.729-3.201
					c2.064-2.064,3.201-4.811,3.201-7.73s-1.137-5.664-3.201-7.729C93.655,30.399,90.909,29.261,87.989,29.261z"/>
				<path fill="#FFFFFF" d="M53.882,88.985c-3.922,0-7.609-1.527-10.383-4.301c-5.727-5.728-5.727-15.041,0-20.769
					c2.773-2.772,6.461-4.301,10.383-4.301c3.922,0,7.609,1.526,10.385,4.301c5.725,5.728,5.725,15.041,0,20.769
					C61.491,87.458,57.804,88.985,53.882,88.985z M53.882,63.37c-2.92,0-5.664,1.137-7.729,3.201
					c-4.264,4.262-4.264,11.197,0,15.459c2.064,2.063,4.809,3.201,7.729,3.201s5.666-1.138,7.73-3.201
					c4.262-4.262,4.262-11.197,0-15.459C59.548,64.507,56.802,63.37,53.882,63.37z"/>
				<path fill="#FFFFFF" d="M53.882,54.878c-3.922,0-7.609-1.527-10.383-4.301c-5.727-5.727-5.727-15.043,0-20.768
					c2.773-2.774,6.461-4.301,10.383-4.301l0,0c3.922,0,7.611,1.527,10.385,4.301c5.725,5.725,5.725,15.041,0,20.768
					C61.493,53.351,57.804,54.878,53.882,54.878z M53.882,29.261c-2.92,0-5.664,1.139-7.729,3.203
					c-4.264,4.262-4.264,11.197,0,15.459c2.064,2.064,4.809,3.201,7.729,3.201s5.666-1.137,7.73-3.201
					c4.262-4.262,4.262-11.197,0-15.459C59.548,30.399,56.802,29.261,53.882,29.261z"/>
				<path fill="#FFFFFF" d="M87.989,88.985c-3.922,0-7.609-1.527-10.383-4.301c-2.774-2.774-4.301-6.461-4.301-10.384
					c0-3.924,1.527-7.61,4.301-10.385s6.461-4.301,10.383-4.301c3.924,0,7.611,1.526,10.385,4.301s4.301,6.461,4.301,10.385
					c0,3.923-1.527,7.609-4.301,10.384C95.6,87.458,91.913,88.985,87.989,88.985z M87.989,63.37c-2.918,0-5.664,1.137-7.729,3.201
					c-2.065,2.063-3.201,4.811-3.201,7.729c0,2.918,1.137,5.664,3.201,7.729c2.064,2.064,4.811,3.201,7.729,3.201
					c2.92,0,5.666-1.138,7.729-3.201c2.064-2.064,3.201-4.812,3.201-7.729c0-2.92-1.137-5.666-3.201-7.729
					C93.655,64.507,90.909,63.37,87.989,63.37z"/>
			</g>
			<g>
				<path fill="none" d="M73.306,74.302c0-1.193,0.158-2.359,0.433-3.49c-0.896-0.237-1.832-0.379-2.802-0.379
					c-0.973,0-1.912,0.142-2.811,0.381c1.171,4.818-0.104,10.115-3.859,13.871c-0.844,0.844-1.78,1.556-2.773,2.16
					c1.896,3.254,5.414,5.451,9.443,5.451s7.547-2.197,9.442-5.451c-0.993-0.604-1.929-1.316-2.772-2.16
					C74.833,81.911,73.306,78.224,73.306,74.302z"/>
				<path fill="none" d="M64.642,72.442c-2.8,1.981-4.637,5.238-4.637,8.922c0,0.637,0.066,1.258,0.171,1.865
					c0.506-0.357,0.989-0.752,1.437-1.199C64.217,79.425,65.221,75.823,64.642,72.442z"/>
				<path fill="none" d="M63.331,68.827c-0.466-0.805-1.031-1.568-1.719-2.256c-0.682-0.682-1.442-1.252-2.254-1.723
					c-2.579,4.235-7.228,7.082-12.541,7.082c-1.203,0-2.367-0.16-3.487-0.437c-0.962,3.644-0.028,7.687,2.823,10.534
					c2.064,2.064,4.809,3.201,7.729,3.201c0.962,0,1.9-0.135,2.807-0.373c-0.275-1.123-0.438-2.289-0.438-3.494
					C56.251,76.054,59.095,71.405,63.331,68.827z"/>
				<path fill="none" d="M77.227,72.44c-0.104,0.608-0.167,1.229-0.167,1.86c0,2.918,1.137,5.664,3.201,7.729
					c0.446,0.447,0.93,0.84,1.435,1.197c0.104-0.605,0.171-1.228,0.171-1.863C81.866,77.681,80.028,74.421,77.227,72.44z"/>
				<path fill="none" d="M87.989,63.37c-0.631,0-1.251,0.062-1.861,0.166c1.981,2.803,5.24,4.643,8.926,4.643
					c0.637,0,1.257-0.066,1.864-0.172c-0.357-0.504-0.752-0.988-1.198-1.436C93.655,64.507,90.909,63.37,87.989,63.37z"/>
				<path fill="none" d="M82.515,64.849c-0.812,0.471-1.572,1.041-2.254,1.724c-0.682,0.682-1.251,1.442-1.723,2.254
					c4.236,2.577,7.082,7.227,7.082,12.539c0,1.204-0.162,2.37-0.438,3.493c0.906,0.238,1.846,0.373,2.807,0.373
					c2.92,0,5.666-1.137,7.729-3.2c2.064-2.064,3.201-4.812,3.201-7.729c0-0.963-0.135-1.902-0.374-2.809
					c-1.122,0.275-2.288,0.438-3.493,0.438C89.74,71.931,85.093,69.085,82.515,64.849z"/>
				<path fill="none" d="M87.989,54.878c-1.193,0-2.359-0.158-3.489-0.434c-0.238,0.896-0.378,1.832-0.378,2.803
					c0,0.971,0.14,1.906,0.378,2.803c1.13-0.275,2.296-0.434,3.489-0.434c3.924,0,7.611,1.527,10.385,4.301
					c0.844,0.844,1.556,1.779,2.161,2.773c3.253-1.896,5.45-5.414,5.45-9.443s-2.197-7.547-5.45-9.443
					c-0.605,0.994-1.317,1.93-2.161,2.773C95.601,53.351,91.913,54.878,87.989,54.878z"/>
				<path fill="none" d="M55.743,63.536c-0.609-0.104-1.23-0.166-1.861-0.166c-2.92,0-5.664,1.137-7.729,3.201
					c-0.449,0.449-0.841,0.934-1.196,1.438c0.606,0.104,1.226,0.17,1.86,0.17C50.503,68.179,53.762,66.339,55.743,63.536z"/>
				<path fill="none" d="M78.542,45.665c0.466,0.807,1.03,1.568,1.719,2.258c0.682,0.682,1.442,1.25,2.254,1.723
					c2.578-4.238,7.226-7.084,12.539-7.084c1.205,0,2.371,0.162,3.493,0.438c0.239-0.906,0.374-1.844,0.374-2.807
					c0-2.92-1.137-5.664-3.201-7.729s-4.811-3.203-7.73-3.203c-0.962,0-1.9,0.135-2.807,0.375c0.275,1.121,0.438,2.287,0.438,3.492
					C85.62,38.438,82.776,43.087,78.542,45.665z"/>
				<path fill="none" d="M77.23,42.05c2.8-1.98,4.636-5.238,4.636-8.922c0-0.637-0.066-1.256-0.171-1.863
					c-0.505,0.357-0.988,0.752-1.435,1.199C77.656,35.067,76.652,38.669,77.23,42.05z"/>
				<path fill="none" d="M86.128,50.958c0.609,0.104,1.23,0.166,1.861,0.166c2.92,0,5.666-1.137,7.729-3.201
					c0.446-0.447,0.841-0.932,1.198-1.436c-0.607-0.105-1.228-0.172-1.864-0.172C91.368,46.315,88.109,48.155,86.128,50.958z"/>
				<path fill="none" d="M68.126,43.681c0.898,0.24,1.838,0.379,2.811,0.379s1.911-0.139,2.81-0.379
					c-1.172-4.818,0.104-10.115,3.86-13.871c0.843-0.844,1.779-1.557,2.772-2.162c-1.896-3.253-5.413-5.45-9.442-5.45
					s-7.547,2.197-9.443,5.45c0.994,0.605,1.93,1.318,2.773,2.162C68.021,33.565,69.297,38.862,68.126,43.681z"/>
				<path fill="none" d="M59.358,49.646c0.812-0.473,1.572-1.041,2.254-1.723c0.688-0.689,1.253-1.451,1.719-2.256
					c-4.236-2.58-7.08-7.227-7.08-12.539c0-1.205,0.162-2.371,0.438-3.492c-0.906-0.24-1.845-0.375-2.807-0.375
					c-2.92,0-5.664,1.139-7.729,3.203c-2.851,2.85-3.785,6.893-2.823,10.535c1.12-0.275,2.284-0.438,3.487-0.438
					C52.131,42.562,56.779,45.407,59.358,49.646z"/>
				<path fill="none" d="M64.643,42.05c0.578-3.381-0.426-6.982-3.03-9.586c-0.447-0.447-0.931-0.842-1.437-1.199
					c-0.104,0.607-0.171,1.227-0.171,1.863C60.005,36.812,61.842,40.069,64.643,42.05z"/>
				<path fill="none" d="M53.882,51.124c0.631,0,1.252-0.062,1.861-0.166c-1.981-2.803-5.24-4.643-8.926-4.643
					c-0.635,0-1.254,0.066-1.859,0.17c0.354,0.504,0.746,0.988,1.195,1.438C48.218,49.987,50.962,51.124,53.882,51.124z"/>
				<path fill="none" d="M53.882,59.616c1.193,0,2.359,0.158,3.49,0.432c0.237-0.895,0.377-1.832,0.377-2.801
					c0-0.971-0.14-1.906-0.378-2.803c-1.13,0.275-2.297,0.434-3.489,0.434c-3.922,0-7.609-1.527-10.383-4.301
					c-0.852-0.852-1.561-1.789-2.158-2.775c-3.256,1.896-5.455,5.414-5.455,9.445s2.199,7.551,5.455,9.445
					c0.598-0.986,1.307-1.924,2.158-2.775C46.272,61.144,49.96,59.616,53.882,59.616z"/>
				<path fill="none" d="M75.096,47.204c-1.32,0.391-2.714,0.609-4.159,0.609s-2.839-0.219-4.159-0.609
					c-0.657,1.211-1.488,2.35-2.511,3.373c-1.012,1.012-2.148,1.854-3.37,2.52c0.389,1.316,0.606,2.707,0.606,4.15
					c0,1.441-0.218,2.832-0.607,4.15c1.223,0.666,2.358,1.508,3.371,2.52c1.021,1.023,1.854,2.162,2.51,3.373
					c1.32-0.393,2.715-0.609,4.16-0.609c1.442,0,2.833,0.217,4.15,0.607c0.667-1.223,1.508-2.359,2.52-3.371
					c1.012-1.012,2.148-1.854,3.37-2.52c-0.389-1.318-0.606-2.709-0.606-4.15c0-1.443,0.218-2.834,0.606-4.15
					c-1.222-0.668-2.358-1.508-3.37-2.521C76.584,49.554,75.753,48.413,75.096,47.204z"/>
				<path fill="#FFC131" d="M78.538,68.825c-0.648,1.117-1.093,2.334-1.312,3.615c2.802,1.979,4.64,5.24,4.64,8.924
					c0,0.637-0.066,1.258-0.171,1.863c1.062,0.752,2.238,1.301,3.487,1.631c0.275-1.123,0.438-2.289,0.438-3.494
					C85.62,76.052,82.774,71.403,78.538,68.825z"/>
				<path fill="#FFC131" d="M64.642,72.442c-0.215-1.258-0.654-2.48-1.311-3.615c-4.236,2.578-7.08,7.227-7.08,12.537
					c0,1.205,0.162,2.371,0.438,3.494c1.249-0.33,2.427-0.877,3.487-1.629c-0.104-0.607-0.171-1.229-0.171-1.865
					C60.005,77.681,61.842,74.425,64.642,72.442z"/>
				<path fill="#FFC131" d="M70.937,92.296c-4.029,0-7.548-2.197-9.443-5.451c-1.083,0.66-2.237,1.184-3.451,1.539
					c2.494,4.562,7.338,7.666,12.895,7.666c5.555,0,10.398-3.104,12.893-7.666c-1.214-0.355-2.367-0.879-3.45-1.539
					C78.483,90.099,74.966,92.296,70.937,92.296z"/>
				<path fill="#FFC131" d="M70.937,66.681c-1.445,0-2.84,0.217-4.16,0.609c0.609,1.121,1.054,2.307,1.35,3.523
					c0.898-0.24,1.838-0.381,2.811-0.381c0.97,0,1.906,0.141,2.802,0.379c0.299-1.23,0.744-2.416,1.349-3.523
					C73.77,66.897,72.379,66.681,70.937,66.681z"/>
				<path fill="#FFC131" d="M70.937,47.813c1.445,0,2.839-0.219,4.159-0.609c-0.61-1.123-1.054-2.307-1.35-3.523
					c-0.898,0.24-1.837,0.379-2.81,0.379s-1.912-0.139-2.811-0.379c-0.296,1.215-0.739,2.4-1.349,3.523
					C68.098,47.595,69.491,47.813,70.937,47.813z"/>
				<path fill="#FFC131" d="M63.331,45.667c0.656-1.135,1.096-2.357,1.312-3.617c-2.801-1.98-4.638-5.238-4.638-8.922
					c0-0.637,0.066-1.256,0.171-1.863c-1.061-0.752-2.238-1.299-3.487-1.629c-0.275,1.121-0.438,2.287-0.438,3.492
					C56.251,38.44,59.095,43.087,63.331,45.667z"/>
				<path fill="#FFC131" d="M77.23,42.05c0.216,1.258,0.655,2.482,1.312,3.615c4.234-2.578,7.078-7.227,7.078-12.537
					c0-1.205-0.162-2.371-0.438-3.492c-1.249,0.33-2.427,0.879-3.487,1.629c0.104,0.607,0.171,1.227,0.171,1.863
					C81.866,36.812,80.03,40.069,77.23,42.05z"/>
				<path fill="#FFC131" d="M70.937,22.198c4.029,0,7.547,2.197,9.442,5.45c1.082-0.659,2.236-1.183,3.45-1.539
					c-2.494-4.562-7.338-7.665-12.893-7.665c-5.556,0-10.4,3.103-12.895,7.664c1.214,0.357,2.368,0.881,3.451,1.54
					C63.39,24.395,66.907,22.198,70.937,22.198z"/>
				<path fill="#FFC131" d="M61.503,57.247c0-1.443-0.218-2.834-0.606-4.15c-1.109,0.604-2.295,1.049-3.525,1.348
					c0.238,0.896,0.378,1.832,0.378,2.803c0,0.969-0.14,1.905-0.377,2.801c1.229,0.3,2.415,0.744,3.523,1.351
					C61.285,60.079,61.503,58.688,61.503,57.247z"/>
				<path fill="#FFC131" d="M35.886,57.247c0-4.031,2.199-7.551,5.455-9.445c-0.664-1.094-1.187-2.252-1.539-3.451
					c-4.564,2.494-7.668,7.34-7.668,12.896c0,5.556,3.104,10.402,7.668,12.896c0.353-1.201,0.875-2.357,1.539-3.451
					C38.085,64.798,35.886,61.278,35.886,57.247z"/>
				<path fill="#FFC131" d="M55.743,50.958c1.28-0.219,2.499-0.664,3.615-1.312c-2.579-4.238-7.228-7.084-12.541-7.084
					c-1.203,0-2.367,0.162-3.487,0.438c0.325,1.229,0.867,2.41,1.628,3.486c0.605-0.104,1.225-0.17,1.859-0.17
					C50.503,46.315,53.762,48.155,55.743,50.958z"/>
				<path fill="#FFC131" d="M59.358,64.849c-1.116-0.647-2.335-1.094-3.615-1.312c-1.981,2.803-5.24,4.644-8.926,4.644
					c-0.635,0-1.254-0.066-1.86-0.171c-0.76,1.076-1.302,2.257-1.627,3.486c1.12,0.274,2.284,0.437,3.487,0.437
					C52.131,71.931,56.779,69.085,59.358,64.849z"/>
				<path fill="#FFC131" d="M80.37,57.247c0,1.441,0.218,2.832,0.606,4.15c1.109-0.604,2.293-1.049,3.523-1.349
					c-0.238-0.896-0.378-1.832-0.378-2.803c0-0.971,0.14-1.906,0.378-2.803c-1.23-0.299-2.414-0.744-3.523-1.348
					C80.588,54.413,80.37,55.804,80.37,57.247z"/>
				<path fill="#FF9209" d="M80.37,57.247c0,1.441,0.218,2.832,0.606,4.15c1.109-0.604,2.293-1.049,3.523-1.349
					c-0.238-0.896-0.378-1.832-0.378-2.803c0-0.971,0.14-1.906,0.378-2.803c-1.23-0.299-2.414-0.744-3.523-1.348
					C80.588,54.413,80.37,55.804,80.37,57.247z"/>
				<path fill="#FFC131" d="M86.128,63.536c-1.279,0.219-2.498,0.664-3.613,1.312c2.578,4.235,7.226,7.082,12.539,7.082
					c1.205,0,2.371-0.162,3.493-0.438c-0.33-1.248-0.878-2.427-1.629-3.486c-0.607,0.104-1.228,0.172-1.864,0.172
					C91.368,68.179,88.109,66.339,86.128,63.536z"/>
				<path fill="#FF9209" d="M86.128,63.536c-1.279,0.219-2.498,0.664-3.613,1.312c2.578,4.235,7.226,7.082,12.539,7.082
					c1.205,0,2.371-0.162,3.493-0.438c-0.33-1.248-0.878-2.427-1.629-3.486c-0.607,0.104-1.228,0.172-1.864,0.172
					C91.368,68.179,88.109,66.339,86.128,63.536z"/>
				<path fill="#FFC131" d="M82.515,49.646c1.115,0.648,2.334,1.094,3.613,1.312c1.981-2.803,5.24-4.643,8.926-4.643
					c0.637,0,1.257,0.066,1.864,0.172c0.751-1.061,1.299-2.238,1.629-3.488c-1.122-0.275-2.288-0.438-3.493-0.438
					C89.74,42.562,85.093,45.407,82.515,49.646z"/>
				<path fill="#FF9209" d="M82.515,49.646c1.115,0.648,2.334,1.094,3.613,1.312c1.981-2.803,5.24-4.643,8.926-4.643
					c0.637,0,1.257,0.066,1.864,0.172c0.751-1.061,1.299-2.238,1.629-3.488c-1.122-0.275-2.288-0.438-3.493-0.438
					C89.74,42.562,85.093,45.407,82.515,49.646z"/>
				<path fill="#FFC131" d="M109.739,57.247c0-5.557-3.104-10.4-7.664-12.895c-0.357,1.215-0.881,2.369-1.54,3.451
					c3.253,1.896,5.45,5.414,5.45,9.443c0,4.028-2.197,7.547-5.45,9.442c0.659,1.082,1.183,2.236,1.539,3.449
					C106.637,67.646,109.739,62.802,109.739,57.247z"/>
				<path fill="#FF9209" d="M109.739,57.247c0-5.557-3.104-10.4-7.664-12.895c-0.357,1.215-0.881,2.369-1.54,3.451
					c3.253,1.896,5.45,5.414,5.45,9.443c0,4.028-2.197,7.547-5.45,9.442c0.659,1.082,1.183,2.236,1.539,3.449
					C106.637,67.646,109.739,62.802,109.739,57.247z"/>
				<path fill="#FFC131" d="M73.746,43.681c1.267-0.338,2.442-0.893,3.484-1.631c-0.578-3.381,0.426-6.982,3.03-9.586
					c0.446-0.447,0.93-0.842,1.435-1.199c-0.225-1.299-0.676-2.518-1.316-3.617c-0.993,0.605-1.93,1.318-2.772,2.162
					C73.851,33.565,72.574,38.862,73.746,43.681z"/>
				<path fill="#FFC131" d="M95.72,47.923c-2.064,2.064-4.811,3.201-7.73,3.201c-0.631,0-1.252-0.062-1.861-0.166
					c-0.737,1.043-1.291,2.219-1.628,3.486c1.13,0.275,2.296,0.434,3.489,0.434c3.924,0,7.611-1.527,10.385-4.301
					c0.844-0.844,1.556-1.779,2.161-2.773c-1.1-0.641-2.318-1.092-3.617-1.316C96.561,46.991,96.166,47.476,95.72,47.923z"/>
				<path fill="#FFC131" d="M77.606,50.575c1.012,1.014,2.148,1.854,3.37,2.521c0.362-1.227,0.887-2.381,1.538-3.451
					c-0.812-0.473-1.572-1.041-2.254-1.723c-0.688-0.689-1.253-1.451-1.719-2.258c-1.069,0.652-2.222,1.176-3.446,1.539
					C75.753,48.413,76.584,49.554,77.606,50.575z"/>
				<path fill="#FFC131" d="M87.989,29.261c2.92,0,5.666,1.139,7.729,3.203c2.064,2.064,3.201,4.809,3.201,7.729
					c0,0.963-0.135,1.9-0.374,2.807c1.243,0.305,2.431,0.754,3.528,1.354c0.392-1.334,0.6-2.73,0.6-4.16
					c0-3.922-1.527-7.609-4.301-10.383C95.6,27.037,91.91,25.51,87.988,25.51c-1.43,0-2.826,0.208-4.16,0.601
					c0.6,1.097,1.049,2.283,1.354,3.527C86.089,29.396,87.027,29.261,87.989,29.261z"/>
				<path fill="#FFC131" d="M78.542,45.665c-0.656-1.133-1.096-2.357-1.312-3.615c-1.042,0.738-2.218,1.293-3.484,1.631
					c0.296,1.217,0.739,2.4,1.35,3.523C76.32,46.841,77.473,46.317,78.542,45.665z"/>
				<path fill="#FFC131" d="M81.695,31.265c1.061-0.75,2.238-1.299,3.487-1.629c-0.305-1.244-0.754-2.43-1.354-3.527
					c-1.214,0.356-2.368,0.88-3.45,1.539C81.02,28.747,81.471,29.966,81.695,31.265z"/>
				<path fill="#FFC131" d="M96.918,46.487c1.299,0.225,2.518,0.676,3.617,1.316c0.659-1.082,1.183-2.236,1.54-3.451
					c-1.098-0.6-2.285-1.049-3.528-1.354C98.217,44.249,97.669,45.427,96.918,46.487z"/>
				<path fill="#FFC131" d="M96.918,46.487c1.299,0.225,2.518,0.676,3.617,1.316c0.659-1.082,1.183-2.236,1.54-3.451
					c-1.098-0.6-2.285-1.049-3.528-1.354C98.217,44.249,97.669,45.427,96.918,46.487z"/>
				<path fill="#FFC131" d="M80.977,53.097c1.109,0.604,2.293,1.049,3.523,1.348c0.337-1.268,0.891-2.443,1.628-3.486
					c-1.279-0.219-2.498-0.664-3.613-1.312C81.863,50.716,81.339,51.87,80.977,53.097z"/>
				<path fill="#FFC131" d="M80.977,53.097c1.109,0.604,2.293,1.049,3.523,1.348c0.337-1.268,0.891-2.443,1.628-3.486
					c-1.279-0.219-2.498-0.664-3.613-1.312C81.863,50.716,81.339,51.87,80.977,53.097z"/>
				<path fill="#FFC131" d="M68.126,70.813c-1.267,0.338-2.441,0.893-3.484,1.629c0.579,3.381-0.425,6.981-3.029,9.588
					c-0.447,0.447-0.931,0.842-1.437,1.199c0.225,1.299,0.677,2.516,1.317,3.614c0.993-0.604,1.93-1.315,2.773-2.159
					C68.021,80.929,69.297,75.632,68.126,70.813z"/>
				<path fill="#FFC131" d="M53.882,63.37c0.631,0,1.252,0.062,1.861,0.166c0.737-1.043,1.291-2.221,1.629-3.488
					c-1.131-0.273-2.297-0.432-3.49-0.432c-3.922,0-7.609,1.527-10.383,4.301c-0.852,0.852-1.561,1.789-2.158,2.775
					c1.1,0.641,2.318,1.092,3.616,1.315c0.355-0.504,0.747-0.987,1.196-1.438C48.218,64.507,50.962,63.37,53.882,63.37z"/>
				<path fill="#FFC131" d="M64.267,63.917c-1.013-1.012-2.148-1.854-3.371-2.52c-0.361,1.227-0.886,2.381-1.537,3.451
					c0.812,0.471,1.572,1.041,2.254,1.723c0.688,0.688,1.253,1.451,1.719,2.256c1.069-0.65,2.221-1.176,3.445-1.537
					C66.12,66.079,65.288,64.94,64.267,63.917z"/>
				<path fill="#FFC131" d="M53.882,85.231c-2.92,0-5.664-1.138-7.729-3.201c-2.852-2.85-3.785-6.893-2.823-10.535
					c-1.243-0.305-2.431-0.754-3.528-1.352c-1.465,4.989-0.233,10.61,3.697,14.541c2.773,2.772,6.461,4.301,10.383,4.301
					c1.43,0,2.826-0.209,4.16-0.603c-0.6-1.096-1.049-2.282-1.354-3.524C55.782,85.097,54.844,85.231,53.882,85.231z"/>
				<path fill="#FFC131" d="M60.176,83.229c-1.061,0.752-2.238,1.299-3.487,1.629c0.305,1.242,0.754,2.43,1.354,3.524
					c1.214-0.354,2.368-0.879,3.451-1.539C60.853,85.745,60.4,84.528,60.176,83.229z"/>
				<path fill="#FFC131" d="M63.331,68.827c0.656,1.135,1.096,2.357,1.311,3.615c1.043-0.736,2.218-1.291,3.484-1.629
					c-0.296-1.217-0.74-2.402-1.35-3.523C65.552,67.651,64.4,68.177,63.331,68.827z"/>
				<path fill="#FFC131" d="M57.372,60.048c-0.338,1.268-0.892,2.445-1.629,3.488c1.28,0.219,2.499,0.664,3.615,1.312
					c0.651-1.07,1.176-2.226,1.537-3.451C59.787,60.792,58.602,60.347,57.372,60.048z"/>
				<path fill="#FFC131" d="M44.957,68.009c-1.298-0.225-2.517-0.676-3.616-1.316c-0.664,1.095-1.187,2.25-1.539,3.451
					c1.098,0.599,2.285,1.047,3.528,1.353C43.655,70.265,44.197,69.085,44.957,68.009z"/>
				<path fill="#FFC131" d="M64.643,42.05c1.042,0.738,2.218,1.293,3.483,1.631c1.171-4.818-0.104-10.115-3.859-13.871
					c-0.844-0.844-1.779-1.557-2.773-2.162c-0.641,1.099-1.093,2.318-1.317,3.617c0.506,0.357,0.989,0.752,1.437,1.199
					C64.217,35.067,65.221,38.669,64.643,42.05z"/>
				<path fill="#FFC131" d="M53.882,54.878c1.192,0,2.359-0.158,3.489-0.434c-0.337-1.268-0.891-2.443-1.628-3.486
					c-0.609,0.104-1.23,0.166-1.861,0.166c-2.92,0-5.664-1.137-7.729-3.201c-0.449-0.449-0.841-0.934-1.195-1.438
					c-1.299,0.225-2.518,0.676-3.617,1.316c0.598,0.986,1.307,1.924,2.158,2.775C46.272,53.351,49.96,54.878,53.882,54.878z"/>
				<path fill="#FFC131" d="M64.267,50.577c1.022-1.023,1.854-2.162,2.511-3.373c-1.225-0.363-2.377-0.887-3.446-1.537
					c-0.466,0.805-1.03,1.566-1.719,2.256c-0.682,0.682-1.442,1.25-2.254,1.723c0.651,1.07,1.176,2.225,1.538,3.451
					C62.118,52.431,63.255,51.589,64.267,50.577z"/>
				<path fill="#FFC131" d="M46.153,32.464c2.064-2.064,4.809-3.203,7.729-3.203c0.962,0,1.9,0.135,2.807,0.375
					c0.305-1.244,0.754-2.43,1.354-3.528c-1.334-0.392-2.73-0.6-4.16-0.6c-3.922,0-7.609,1.527-10.383,4.301
					c-3.931,3.93-5.162,9.551-3.697,14.541c1.098-0.6,2.285-1.047,3.528-1.352C42.368,39.356,43.303,35.313,46.153,32.464z"/>
				<path fill="#FFC131" d="M60.176,31.265c0.225-1.299,0.677-2.518,1.317-3.617c-1.083-0.659-2.237-1.183-3.451-1.54
					c-0.6,1.098-1.049,2.284-1.354,3.528C57.938,29.966,59.115,30.513,60.176,31.265z"/>
				<path fill="#FFC131" d="M68.126,43.681c-1.266-0.338-2.441-0.893-3.483-1.631c-0.216,1.26-0.655,2.482-1.312,3.617
					c1.069,0.65,2.222,1.174,3.446,1.537C67.387,46.081,67.83,44.896,68.126,43.681z"/>
				<path fill="#FFC131" d="M59.358,49.646c-1.116,0.648-2.335,1.094-3.615,1.312c0.737,1.043,1.291,2.219,1.628,3.486
					c1.23-0.299,2.416-0.744,3.525-1.348C60.534,51.87,60.01,50.716,59.358,49.646z"/>
				<path fill="#FFC131" d="M44.958,46.485c-0.761-1.076-1.303-2.258-1.628-3.486c-1.243,0.305-2.431,0.752-3.528,1.352
					c0.353,1.199,0.875,2.357,1.539,3.451C42.44,47.161,43.659,46.71,44.958,46.485z"/>
				<path fill="#FFC131" d="M98.921,74.302c0,2.918-1.137,5.664-3.201,7.729s-4.811,3.2-7.73,3.2c-0.961,0-1.9-0.135-2.807-0.373
					c-0.305,1.242-0.754,2.431-1.354,3.525c1.334,0.393,2.73,0.602,4.16,0.602c3.924,0,7.611-1.526,10.385-4.301
					c2.774-2.773,4.301-6.461,4.301-10.383c0-1.43-0.208-2.828-0.601-4.162c-1.097,0.601-2.284,1.049-3.527,1.354
					C98.786,72.399,98.921,73.339,98.921,74.302z"/>
				<path fill="#FFC131" d="M77.06,74.302c0-0.631,0.063-1.252,0.167-1.861c-1.043-0.737-2.221-1.293-3.488-1.629
					c-0.274,1.131-0.433,2.297-0.433,3.49c0,3.922,1.527,7.609,4.301,10.383c0.844,0.844,1.779,1.556,2.772,2.16
					c0.641-1.1,1.092-2.318,1.316-3.617c-0.505-0.356-0.988-0.75-1.435-1.196C78.196,79.966,77.06,77.22,77.06,74.302z"/>
				<path fill="#FFC131" d="M87.989,59.616c-1.193,0-2.359,0.158-3.489,0.434c0.337,1.268,0.891,2.443,1.628,3.486
					c0.61-0.104,1.23-0.166,1.861-0.166c2.92,0,5.666,1.137,7.729,3.201c0.446,0.447,0.841,0.932,1.198,1.436
					c1.299-0.225,2.518-0.676,3.617-1.316c-0.605-0.993-1.317-1.93-2.161-2.772C95.601,61.144,91.913,59.616,87.989,59.616z"/>
				<path fill="#FFC131" d="M77.606,63.917c-1.012,1.012-1.853,2.148-2.52,3.371c1.227,0.361,2.381,0.885,3.451,1.537
					c0.472-0.811,1.041-1.572,1.723-2.254c0.682-0.682,1.442-1.252,2.254-1.723c-0.651-1.07-1.176-2.226-1.538-3.451
					C79.755,62.063,78.618,62.905,77.606,63.917z"/>
				<path fill="#FFC131" d="M73.738,70.812c1.268,0.336,2.445,0.892,3.488,1.629c0.219-1.28,0.663-2.498,1.312-3.614
					c-1.07-0.652-2.225-1.177-3.451-1.537C74.482,68.396,74.037,69.581,73.738,70.812z"/>
				<path fill="#FFC131" d="M81.695,83.228c-0.225,1.299-0.676,2.519-1.316,3.617c1.083,0.66,2.236,1.184,3.45,1.539
					c0.6-1.096,1.049-2.283,1.354-3.525C83.934,84.528,82.757,83.979,81.695,83.228z"/>
				<path fill="#FFC131" d="M96.918,68.007c0.751,1.061,1.299,2.238,1.629,3.486c1.243-0.305,2.431-0.754,3.527-1.354
					c-0.356-1.214-0.88-2.367-1.539-3.449C99.436,67.331,98.217,67.782,96.918,68.007z"/>
				<path fill="#FFC131" d="M96.918,68.007c0.751,1.061,1.299,2.238,1.629,3.486c1.243-0.305,2.431-0.754,3.527-1.354
					c-0.356-1.214-0.88-2.367-1.539-3.449C99.436,67.331,98.217,67.782,96.918,68.007z"/>
				<path fill="#FFC131" d="M82.515,64.849c1.115-0.647,2.334-1.094,3.613-1.312c-0.737-1.043-1.291-2.22-1.628-3.486
					c-1.23,0.3-2.414,0.744-3.523,1.349C81.339,62.624,81.863,63.778,82.515,64.849z"/>
				<path fill="#FFC131" d="M82.515,64.849c1.115-0.647,2.334-1.094,3.613-1.312c-0.737-1.043-1.291-2.22-1.628-3.486
					c-1.23,0.3-2.414,0.744-3.523,1.349C81.339,62.624,81.863,63.778,82.515,64.849z"/>
				<g>
					<path opacity="0.8" fill="#FF6E02" enable-background="new    " d="M96.918,46.487c1.299,0.225,2.518,0.676,3.617,1.316
						c0.659-1.082,1.183-2.236,1.54-3.451c-1.098-0.6-2.285-1.049-3.528-1.354C98.217,44.249,97.669,45.427,96.918,46.487z"/>
					<path opacity="0.8" fill="#FF6E02" enable-background="new    " d="M80.977,53.097c1.109,0.604,2.293,1.049,3.523,1.348
						c0.337-1.268,0.891-2.443,1.628-3.486c-1.279-0.219-2.498-0.664-3.613-1.312C81.863,50.716,81.339,51.87,80.977,53.097z"/>
					<path opacity="0.8" fill="#FF6E02" enable-background="new    " d="M96.918,68.007c0.751,1.061,1.299,2.238,1.629,3.486
						c1.243-0.305,2.431-0.754,3.527-1.354c-0.356-1.214-0.88-2.367-1.539-3.449C99.436,67.331,98.217,67.782,96.918,68.007z"/>
					<path opacity="0.8" fill="#FF6E02" enable-background="new    " d="M82.515,64.849c1.115-0.647,2.334-1.094,3.613-1.312
						c-0.737-1.043-1.291-2.22-1.628-3.486c-1.23,0.3-2.414,0.744-3.523,1.349C81.339,62.624,81.863,63.778,82.515,64.849z"/>
				</g>
			</g>
		</g>
		<path fill="#FF9209" d="M78.542,45.665c-0.656-1.133-1.096-2.357-1.312-3.615c-1.042,0.738-2.218,1.293-3.484,1.631
			c0.296,1.217,0.739,2.4,1.35,3.523C76.32,46.841,77.473,46.317,78.542,45.665z"/>
		<path fill="#FF9209" d="M81.695,31.265c1.061-0.75,2.238-1.299,3.487-1.629c-0.305-1.244-0.754-2.43-1.354-3.527
			c-1.214,0.356-2.368,0.88-3.45,1.539C81.02,28.747,81.471,29.966,81.695,31.265z"/>
		<path fill="#FF9209" d="M60.176,83.229c-1.061,0.752-2.238,1.299-3.487,1.629c0.305,1.242,0.754,2.43,1.354,3.524
			c1.214-0.354,2.368-0.879,3.451-1.539C60.853,85.745,60.4,84.528,60.176,83.229z"/>
		<path fill="#FF9209" d="M63.331,68.827c0.656,1.135,1.096,2.357,1.311,3.615c1.043-0.736,2.218-1.291,3.484-1.629
			c-0.296-1.217-0.74-2.402-1.35-3.523C65.552,67.651,64.4,68.177,63.331,68.827z"/>
		<path fill="#FF9209" d="M57.372,60.048c-0.338,1.268-0.892,2.445-1.629,3.488c1.28,0.219,2.499,0.664,3.615,1.312
			c0.651-1.07,1.176-2.226,1.537-3.451C59.787,60.792,58.602,60.347,57.372,60.048z"/>
		<path fill="#FF9209" d="M44.957,68.009c-1.298-0.225-2.517-0.676-3.616-1.316c-0.664,1.095-1.187,2.25-1.539,3.451
			c1.098,0.599,2.285,1.047,3.528,1.353C43.655,70.265,44.197,69.085,44.957,68.009z"/>
		<path fill="#FF9209" d="M60.176,31.265c0.225-1.299,0.677-2.518,1.317-3.617c-1.083-0.659-2.237-1.183-3.451-1.54
			c-0.6,1.098-1.049,2.284-1.354,3.528C57.938,29.966,59.115,30.513,60.176,31.265z"/>
		<path fill="#FF9209" d="M68.126,43.681c-1.266-0.338-2.441-0.893-3.483-1.631c-0.216,1.26-0.655,2.482-1.312,3.617
			c1.069,0.65,2.222,1.174,3.446,1.537C67.387,46.081,67.83,44.896,68.126,43.681z"/>
		<path fill="#FF9209" d="M59.358,49.646c-1.116,0.648-2.335,1.094-3.615,1.312c0.737,1.043,1.291,2.219,1.628,3.486
			c1.23-0.299,2.416-0.744,3.525-1.348C60.534,51.87,60.01,50.716,59.358,49.646z"/>
		<path fill="#FF9209" d="M44.958,46.485c-0.761-1.076-1.303-2.258-1.628-3.486c-1.243,0.305-2.431,0.752-3.528,1.352
			c0.353,1.199,0.875,2.357,1.539,3.451C42.44,47.161,43.659,46.71,44.958,46.485z"/>
		<path fill="#FF9209" d="M73.738,70.812c1.268,0.336,2.445,0.892,3.488,1.629c0.219-1.28,0.663-2.498,1.312-3.614
			c-1.07-0.652-2.225-1.177-3.451-1.537C74.482,68.396,74.037,69.581,73.738,70.812z"/>
		<path fill="#FF9209" d="M81.695,83.228c-0.225,1.299-0.676,2.519-1.316,3.617c1.083,0.66,2.236,1.184,3.45,1.539
			c0.6-1.096,1.049-2.283,1.354-3.525C83.934,84.528,82.757,83.979,81.695,83.228z"/>
	</g>
</g>
</svg>
