<svg xmlns="http://www.w3.org/2000/svg" width="60" height="60" viewBox="0 0 60 60"><g transform="translate(-480 -120)"><circle cx="30" cy="30" r="30" transform="translate(480 120)" fill="#fff"/><path d="M30,2A28.008,28.008,0,0,0,19.1,55.8,28.008,28.008,0,0,0,40.9,4.2,27.823,27.823,0,0,0,30,2m0-2A30,30,0,1,1,0,30,30,30,0,0,1,30,0Z" transform="translate(480 120)" fill="#199900"/><path d="M0,29a1,1,0,0,1-1-1V0A1,1,0,0,1,0-1,1,1,0,0,1,1,0V28A1,1,0,0,1,0,29Z" transform="translate(510.5 136.5)" fill="#199900"/><path d="M0,29a1,1,0,0,1-1-1V0A1,1,0,0,1,0-1,1,1,0,0,1,1,0V28A1,1,0,0,1,0,29Z" transform="translate(524.5 150.5) rotate(90)" fill="#199900"/></g></svg>