<svg xmlns="http://www.w3.org/2000/svg" width="52.54" height="46.472" viewBox="0 0 52.54 46.472"><g transform="translate(-18658.73 1810.994)"><path d="M24.133,1.508a1,1,0,0,1,1.734,0L49.138,41.98a1,1,0,0,1-.867,1.5H1.729a1,1,0,0,1-.867-1.5Z" transform="translate(18660 -1810)" fill="#e6e6e6"/><path d="M25,1.006a.991.991,0,0,0-.867.5L.862,41.98a1,1,0,0,0,.867,1.5H48.271a1,1,0,0,0,.867-1.5L25.867,1.508a.991.991,0,0,0-.867-.5m0-2a3.008,3.008,0,0,1,2.6,1.5L50.872,40.983a3,3,0,0,1-2.6,4.5H1.729a3,3,0,0,1-2.6-4.5L22.4.511A3.008,3.008,0,0,1,25-.994Z" transform="translate(18660 -1810)"/><path d="M3.686-14.24H-1.23L-.253.69H2.678ZM3.5,7.5V2.98H-1.047V7.5Z" transform="translate(18683.773 -1780.543)"/></g></svg>