<svg xmlns="http://www.w3.org/2000/svg" width="34" height="34" viewBox="0 0 34 34"><g transform="translate(-593 -65)"><rect width="30" height="30" rx="2" transform="translate(595 97) rotate(-90)" fill="#fff"/><path d="M2,0A2,2,0,0,0,0,2V28a2,2,0,0,0,2,2H28a2,2,0,0,0,2-2V2a2,2,0,0,0-2-2H2M2-2H28a4,4,0,0,1,4,4V28a4,4,0,0,1-4,4H2a4,4,0,0,1-4-4V2A4,4,0,0,1,2-2Z" transform="translate(595 97) rotate(-90)"/><path d="M62.539,63.548,51.563,54.768l10.976-8.781,1.249,1.562-9.024,7.219,9.024,7.219Z" transform="translate(555.232 140.164) rotate(-90)"/></g></svg>