<svg xmlns="http://www.w3.org/2000/svg" width="220" height="20.43" viewBox="0 0 220 20.43"><path d="M405.813,432.14A10.214,10.214,0,1,1,395.6,442.354,10.2,10.2,0,0,1,405.813,432.14Zm0,19.152a8.938,8.938,0,1,0-8.938-8.938A8.923,8.923,0,0,0,405.813,451.292Z" transform="translate(-395.599 -432.14)" fill="#444"/><path d="M473,432.778a.641.641,0,0,1,.639-.638h9.641a6.225,6.225,0,0,1,0,12.449h-9v7.342a.639.639,0,0,1-1.278,0Zm1.278.639v9.895h8.937a4.948,4.948,0,0,0,.064-9.895Z" transform="translate(-442.039 -432.14)" fill="#444"/><path d="M541.231,432.778a.64.64,0,0,1,.638-.638H557.83a.638.638,0,0,1,0,1.277H542.508v8.3h12.13a.638.638,0,1,1,0,1.277h-12.13v8.3H557.83a.638.638,0,0,1,0,1.277H541.869a.64.64,0,0,1-.638-.638Z" transform="translate(-482.976 -432.14)" fill="#444"/><path d="M611.455,432.778a.64.64,0,0,1,.639-.638.719.719,0,0,1,.511.255l18,18v-17.62a.638.638,0,0,1,1.277,0v19.153a.64.64,0,0,1-.638.638.721.721,0,0,1-.511-.255l-18-18v17.621a.638.638,0,0,1-1.277,0Z" transform="translate(-525.109 -432.14)" fill="#444"/><path d="M705.842,450.015a10.221,10.221,0,1,1,3.448-7.661,10.094,10.094,0,0,1-2.554,6.768l2.362,2.362a.632.632,0,1,1-.894.894Zm-4.4-5.3a.617.617,0,0,1,.894,0l3.48,3.511a8.937,8.937,0,1,0-6.735,3.064,8.962,8.962,0,0,0,5.841-2.17c-3.448-3.479-3.48-3.479-3.48-3.511A.618.618,0,0,1,701.437,444.717Z" transform="translate(-571.55 -432.14)" fill="#ff6f02" style="mix-blend-mode:multiply;isolation:isolate"/><path d="M766.265,432.778a.64.64,0,0,1,.639-.638h9.64a6.225,6.225,0,0,1,0,12.449h-9v7.342a.638.638,0,0,1-1.277,0Zm1.277.639v9.895h8.938a4.948,4.948,0,0,0,.064-9.895Z" transform="translate(-617.992 -432.14)" fill="#ff6f02" style="mix-blend-mode:multiply;isolation:isolate"/><path d="M842.313,432.14a10.169,10.169,0,0,1,7.151,2.936.666.666,0,0,1,.256.51.656.656,0,0,1-1.15.415,9.053,9.053,0,0,0-6.257-2.585,8.938,8.938,0,1,0,6.257,15.322.666.666,0,0,1,.511-.255.64.64,0,0,1,.639.638.65.65,0,0,1-.192.479,10.219,10.219,0,1,1-7.214-17.461Z" transform="translate(-657.491 -432.14)" fill="#ff6f02" style="mix-blend-mode:multiply;isolation:isolate"/><path d="M902.481,432.778a.64.64,0,0,1,.639-.638h9.64a6.225,6.225,0,0,1,0,12.449h-.128l6.831,6.832a.716.716,0,0,1,.255.51.64.64,0,0,1-.638.638.723.723,0,0,1-.511-.255l-7.725-7.725h-7.087v7.342a.638.638,0,0,1-1.277,0Zm1.277.639v9.895h9a4.948,4.948,0,0,0-.064-9.895Z" transform="translate(-699.719 -432.14)" fill="#ff6f02" style="mix-blend-mode:multiply;isolation:isolate"/></svg>