<?xml version="1.0" encoding="utf-8"?>
<!-- Generator: Adobe Illustrator 16.0.0, SVG Export Plug-In . SVG Version: 6.00 Build 0)  -->
<!DOCTYPE svg PUBLIC "-//W3C//DTD SVG 1.1//EN" "http://www.w3.org/Graphics/SVG/1.1/DTD/svg11.dtd">
<svg version="1.1" id="Layer_1" xmlns="http://www.w3.org/2000/svg" xmlns:xlink="http://www.w3.org/1999/xlink" x="0px" y="0px"
	 width="170px" height="42px" viewBox="0 0 170 42" enable-background="new 0 0 170 42" xml:space="preserve">
<symbol  id="New_Symbol_5" viewBox="-125 -30.13 250 60.26">
	<path d="M-94.873,22.023c5.66,0,11.141-2.271,15.403-6.368c0.89-0.886,1.823-1.28,3.024-1.28c2.236,0,4.055,1.816,4.055,4.053
		c0,1.171-0.542,2.323-1.456,3.108c-5.674,5.542-13.138,8.594-21.026,8.594C-111.484,30.13-125,16.614-125,0
		s13.516-30.129,30.127-30.129c8.073,0,15.631,3.111,21.28,8.761c0.787,0.787,1.202,1.802,1.202,2.938
		c0,2.235-1.818,4.056-4.055,4.056c-1.642,0-2.572-0.922-3.014-1.358c-4.137-4.058-9.611-6.291-15.414-6.291
		c-12.143,0-22.021,9.88-22.021,22.023S-107.016,22.023-94.873,22.023"/>
	<path d="M120.944,30.13c-2.232,0-4.051-1.82-4.051-4.055v-52.151c0-2.236,1.818-4.053,4.051-4.053c2.236,0,4.056,1.816,4.056,4.053
		v52.151C125,28.31,123.181,30.13,120.944,30.13"/>
	<path d="M64.899,28.072c-0.639,1.269-1.996,2.058-3.547,2.058c-1.396,0-2.637-0.66-3.483-1.939L27.87-23.844
		c-0.418-0.63-0.646-1.424-0.646-2.23c0-2.235,1.819-4.056,4.056-4.056c2.151,0,3.199,1.678,3.741,2.553L53.222,4.023l14.98-26.047
		H50.848c-2.235,0-4.053-1.817-4.053-4.051c0-2.235,1.817-4.056,4.053-4.056H91.43c2.233,0,4.051,1.82,4.051,4.056
		c0,0.812-0.229,1.604-0.567,2.111L64.899,28.072z M77.555-22.023L57.901,12.147l3.453,5.995l23.206-40.166H77.555z"/>
	<path d="M1.751,30.129c-2.236,0-4.056-1.819-4.056-4.055V4.052h-39.697v22.022c0,2.235-1.82,4.055-4.057,4.055
		c-2.232,0-4.05-1.819-4.05-4.055v-52.151c0-2.235,1.817-4.053,4.05-4.053c2.236,0,4.057,1.817,4.057,4.053v22.023h39.697v-22.023
		c0-2.235,1.819-4.053,4.056-4.053c2.235,0,4.055,1.817,4.055,4.053v52.151C5.806,28.31,3.986,30.129,1.751,30.129"/>
</symbol>
<use xlink:href="#New_Symbol_5"  width="250" height="60.26" x="-125" y="-30.13" transform="matrix(0.664 0 0 -0.6638 85 21)" overflow="visible"/>
</svg>
