<?xml version="1.0" encoding="utf-8"?>
<!-- Generator: Adobe Illustrator 16.0.0, SVG Export Plug-In . SVG Version: 6.00 Build 0)  -->
<!DOCTYPE svg PUBLIC "-//W3C//DTD SVG 1.1//EN" "http://www.w3.org/Graphics/SVG/1.1/DTD/svg11.dtd">
<svg version="1.1" id="Layer_1" xmlns="http://www.w3.org/2000/svg" xmlns:xlink="http://www.w3.org/1999/xlink" x="0px" y="0px"
	 width="552px" height="352px" viewBox="0 0 552 352" enable-background="new 0 0 552 352" xml:space="preserve">
<g id="Select_Wells_Border" display="none">
</g>
<g id="Dual_Channel_Graph">
</g>
<g id="Single_Channel" display="none">
</g>
<g id="L_Sidebar">
</g>
<g id="Right_Table">
</g>
<g id="Wells-Dual">
</g>
<g id="Wells-Single" display="none">
</g>
<g id="Hover_Crosshairs">
</g>
<g id="Footer" display="none">
</g>
<g id="Header">
</g>
<g id="Sin._Thres">
</g>
<g id="Zoom_Controls">
</g>
<g id="Coord_Hover">
</g>
<g id="Grid" display="none">
</g>
<g id="Baseline" display="none">
</g>
<g id="Isolation_Mode">
</g>
<g id="Layer_1_1_">
</g>
<g id="New_Symbol_2">
</g>
<g>
	<g>
		<path fill="none" d="M299.516,87.25c1.436,2.472,3.207,4.801,5.32,6.915c2.094,2.094,4.418,3.873,6.91,5.327
			c7.971-13.121,22.398-21.905,38.838-21.905c0.002,0,0.002,0,0.002,0c0.002,0,0.002,0,0.002,0c3.736,0,7.365,0.463,10.842,1.318
			c0.732-2.787,1.117-5.686,1.117-8.645c-0.002-9.03-3.518-17.52-9.902-23.904c-6.385-6.385-14.877-9.903-23.904-9.903
			c-2.959,0-5.859,0.385-8.646,1.118c0.854,3.477,1.316,7.105,1.316,10.842C321.41,64.851,312.631,79.278,299.516,87.25z"/>
		<path fill="none" d="M240.254,99.493c2.491-1.455,4.815-3.233,6.909-5.328c2.113-2.114,3.885-4.442,5.32-6.913
			c-13.119-7.972-21.9-22.399-21.9-38.839c0-3.737,0.463-7.366,1.318-10.843c-2.787-0.732-5.686-1.117-8.643-1.117
			c-9.033,0-17.52,3.519-23.904,9.903c-8.804,8.802-11.719,21.291-8.763,32.544c3.47-0.852,7.091-1.313,10.819-1.313
			C217.854,77.587,232.283,86.372,240.254,99.493z"/>
		<path fill="none" d="M256.546,76.036c1.8-10.464-1.321-21.618-9.383-29.679c-1.391-1.391-2.887-2.637-4.461-3.749
			c-0.329,1.888-0.51,3.825-0.51,5.806C242.193,59.814,247.873,69.909,256.546,76.036z"/>
		<path fill="none" d="M223.257,104.068c1.961,0,3.895-0.176,5.789-0.501c-6.125-8.683-16.225-14.37-27.635-14.37
			c-1.978,0-3.913,0.18-5.799,0.508c1.102,1.565,2.344,3.062,3.742,4.46C205.74,100.552,214.226,104.068,223.257,104.068z"/>
		<path fill="none" d="M256.546,169.966c-8.674,6.126-14.354,16.221-14.354,27.623c0,1.981,0.182,3.919,0.51,5.808
			c1.574-1.111,3.07-2.357,4.461-3.748C255.225,191.585,258.346,180.432,256.546,169.966z"/>
		<path fill="none" d="M267.35,81.094c2.763,0.732,5.66,1.126,8.649,1.126c2.989,0,5.887-0.395,8.649-1.126
			c-3.639-14.911,0.355-31.321,11.979-42.946c2.613-2.614,5.492-4.864,8.572-6.737c-5.869-10.039-16.756-16.802-29.2-16.802
			c-12.443,0-23.331,6.763-29.2,16.801c3.08,1.873,5.96,4.124,8.573,6.738C266.995,49.772,270.987,66.182,267.35,81.094z"/>
		<path fill="none" d="M367.59,93.803c-1.873,3.079-4.123,5.957-6.736,8.57c-8.578,8.577-19.98,13.301-32.113,13.301
			c-3.701,0-7.334-0.445-10.84-1.3c-0.158,0.602-0.305,1.208-0.432,1.823c-0.451,2.199-0.688,4.474-0.688,6.804
			s0.236,4.606,0.688,6.805c0.127,0.615,0.273,1.222,0.432,1.825c3.508-0.855,7.139-1.3,10.84-1.3
			c12.133,0,23.535,4.724,32.113,13.301c2.613,2.613,4.863,5.492,6.736,8.57c9.1-5.319,15.508-14.759,16.627-25.749
			c0.117-1.135,0.176-2.287,0.176-3.452s-0.059-2.316-0.176-3.451C383.098,108.562,376.689,99.122,367.59,93.803z"/>
		<path fill="none" d="M223.257,130.328c3.701,0,7.333,0.445,10.84,1.3c0.728-2.756,1.119-5.646,1.119-8.627
			s-0.392-5.871-1.119-8.626c-3.507,0.855-7.139,1.3-10.84,1.3c-12.129,0-23.533-4.724-32.11-13.301
			c-2.637-2.637-4.872-5.524-6.724-8.58c-10.047,5.866-16.818,16.757-16.818,29.208c0,12.452,6.771,23.344,16.818,29.21
			c1.852-3.056,4.087-5.943,6.724-8.58C199.724,135.051,211.128,130.328,223.257,130.328z"/>
		<path fill="none" d="M350.586,168.415c0,0,0,0-0.002,0c-16.439,0-30.867-8.783-38.838-21.904c-2.492,1.454-4.816,3.232-6.91,5.326
			c-2.094,2.095-3.871,4.419-5.326,6.912c13.119,7.971,21.9,22.4,21.9,38.84c0,3.736-0.463,7.366-1.316,10.842
			c2.789,0.733,5.688,1.118,8.646,1.118c9.029,0,17.52-3.516,23.904-9.9c6.385-6.388,9.902-14.877,9.902-23.904
			c0-2.959-0.385-5.859-1.117-8.647c-3.477,0.855-7.105,1.318-10.842,1.318C350.588,168.415,350.588,168.415,350.586,168.415z"/>
		<path fill="none" d="M283.326,175.744c0-3.702,0.445-7.335,1.301-10.842c-2.756-0.728-5.646-1.12-8.627-1.12
			c-2.989,0-5.888,0.395-8.65,1.126c3.639,14.912-0.354,31.321-11.977,42.946c-2.614,2.613-5.494,4.864-8.573,6.737
			c5.868,10.039,16.757,16.804,29.2,16.804c12.444,0,23.333-6.765,29.2-16.805c-3.078-1.873-5.955-4.123-8.568-6.736
			C288.051,199.277,283.326,187.873,283.326,175.744z"/>
		<path fill="none" d="M295.438,169.955c-0.326,1.895-0.502,3.828-0.502,5.789c0,9.027,3.516,17.517,9.9,23.904
			c1.391,1.391,2.885,2.635,4.459,3.747c0.328-1.889,0.51-3.826,0.51-5.807C309.805,186.181,304.119,176.08,295.438,169.955z"/>
		<path fill="none" d="M229.046,142.438c-1.895-0.325-3.828-0.5-5.789-0.5c-9.031,0-17.518,3.516-23.902,9.9
			c-1.399,1.399-2.641,2.897-3.743,4.463c1.886,0.328,3.821,0.508,5.8,0.508C212.822,156.808,222.921,151.121,229.046,142.438z"/>
		<path fill="none" d="M252.483,158.75c-1.436-2.471-3.206-4.799-5.319-6.914c-2.094-2.094-4.418-3.872-6.91-5.326
			c-7.971,13.121-22.399,21.904-38.842,21.904c-3.729,0-7.35-0.461-10.819-1.312c-2.956,11.253-0.041,23.742,8.763,32.546
			c6.385,6.385,14.871,9.9,23.902,9.9c2.958,0,5.856-0.385,8.645-1.116c-0.855-3.478-1.318-7.106-1.318-10.844
			C230.583,181.15,239.365,166.723,252.483,158.75z"/>
		<path fill="none" d="M295.453,76.035c8.672-6.127,14.352-16.221,14.352-27.622c0-1.979-0.182-3.917-0.51-5.804
			c-1.572,1.112-3.068,2.357-4.459,3.748C296.775,54.417,293.654,65.571,295.453,76.035z"/>
		<path fill="none" d="M296.627,102.371c-3.156-3.157-5.74-6.671-7.771-10.409c-4.08,1.206-8.391,1.865-12.856,1.865
			c-4.465,0-8.776-0.658-12.855-1.864c-2.031,3.738-4.614,7.253-7.771,10.411c-3.125,3.125-6.631,5.733-10.406,7.792
			c1.203,4.073,1.859,8.378,1.859,12.835c0,4.458-0.656,8.763-1.859,12.836c3.775,2.061,7.279,4.668,10.406,7.794
			c3.156,3.157,5.74,6.671,7.771,10.409c4.079-1.206,8.392-1.865,12.856-1.865c4.458,0,8.764,0.657,12.836,1.86
			c2.061-3.774,4.668-7.278,7.795-10.404c3.125-3.125,6.629-5.732,10.402-7.792c-0.146-0.499-0.297-0.996-0.426-1.501
			c-0.936-3.625-1.434-7.424-1.434-11.337c0-3.912,0.498-7.711,1.434-11.336c0.129-0.504,0.279-1.001,0.426-1.499
			C303.258,108.105,299.754,105.498,296.627,102.371z"/>
		<path fill="none" d="M328.74,141.937c-1.961,0-3.895,0.176-5.789,0.501c6.125,8.683,16.225,14.37,27.635,14.37
			c1.98,0,3.918-0.181,5.805-0.509c-1.111-1.573-2.355-3.068-3.746-4.458C346.26,145.453,337.77,141.937,328.74,141.937z"/>
		<path fill="none" d="M322.951,103.566c1.895,0.326,3.828,0.501,5.789,0.501c9.027,0,17.52-3.519,23.904-9.903
			c1.391-1.39,2.635-2.885,3.746-4.459c-1.887-0.328-3.824-0.509-5.805-0.509C339.176,89.197,329.076,94.885,322.951,103.566z"/>
		<path fill="#FFC132" d="M276,152.175c-4.465,0-8.777,0.659-12.856,1.865c1.882,3.463,3.291,7.116,4.206,10.868
			c2.763-0.732,5.661-1.126,8.65-1.126c2.981,0,5.872,0.392,8.627,1.12c0.926-3.797,2.342-7.444,4.209-10.867
			C284.764,152.832,280.457,152.175,276,152.175z"/>
		<path fill="#FFC132" d="M276,231.396c-12.443,0-23.332-6.765-29.2-16.804c-3.345,2.034-6.927,3.615-10.674,4.717
			c7.715,14.104,22.694,23.693,39.874,23.693c17.178,0,32.157-9.59,39.872-23.695c-3.746-1.101-7.328-2.682-10.672-4.716
			C299.332,224.631,288.443,231.396,276,231.396z"/>
		<path fill="#FFC132" d="M256.546,169.966c-0.672-3.9-2.022-7.704-4.063-11.216c-13.118,7.972-21.899,22.4-21.899,38.838
			c0,3.737,0.463,7.366,1.318,10.844c3.867-1.016,7.516-2.716,10.801-5.036c-0.328-1.889-0.51-3.826-0.51-5.808
			C242.193,186.188,247.873,176.093,256.546,169.966z"/>
		<path fill="#FFC132" d="M299.51,158.749c-2.016,3.456-3.393,7.24-4.072,11.207c8.682,6.125,14.367,16.226,14.367,27.634
			c0,1.98-0.182,3.918-0.51,5.807c3.285,2.319,6.932,4.02,10.799,5.035c0.854-3.476,1.316-7.105,1.316-10.842
			C321.41,181.148,312.629,166.72,299.51,158.749z"/>
		<path fill="#FFC132" d="M276,14.609c12.444,0,23.331,6.763,29.2,16.802c3.344-2.034,6.926-3.615,10.67-4.716
			C308.156,12.589,293.178,3,276,3c-17.18,0-32.16,9.589-39.874,23.694c3.747,1.101,7.33,2.682,10.674,4.716
			C252.668,21.372,263.556,14.609,276,14.609z"/>
		<path fill="#FFC132" d="M276,93.827c4.465,0,8.776-0.659,12.856-1.865c-1.883-3.462-3.291-7.115-4.207-10.868
			c-2.762,0.732-5.66,1.126-8.649,1.126c-2.989,0-5.887-0.395-8.649-1.126c-0.915,3.752-2.324,7.406-4.206,10.869
			C267.223,93.168,271.535,93.827,276,93.827z"/>
		<path fill="#FFC132" d="M295.453,76.035c0.672,3.899,2.021,7.703,4.062,11.215c13.115-7.972,21.895-22.399,21.895-38.837
			c0-3.736-0.463-7.365-1.316-10.842c-3.867,1.017-7.514,2.717-10.799,5.038c0.328,1.887,0.51,3.825,0.51,5.804
			C309.805,59.814,304.125,69.908,295.453,76.035z"/>
		<path fill="#FFC132" d="M252.484,87.252c2.041-3.513,3.391-7.316,4.062-11.216c-8.674-6.126-14.354-16.221-14.354-27.623
			c0-1.98,0.181-3.918,0.51-5.806c-3.286-2.32-6.934-4.021-10.801-5.037c-0.855,3.477-1.318,7.106-1.318,10.843
			C230.583,64.853,239.365,79.28,252.484,87.252z"/>
		<path fill="#FFC132" d="M350.588,156.808c1.98,0,3.916-0.181,5.805-0.509c0,0-0.002,0-0.002,0
			c-1.887,0.328-3.824,0.509-5.805,0.509C350.588,156.808,350.588,156.808,350.588,156.808z"/>
		<path fill="#FFC132" d="M350.586,89.197c1.98,0,3.918,0.181,5.805,0.509c0.002,0,0.002,0,0.002,0
			c-1.887-0.328-3.824-0.509-5.805-0.509C350.588,89.197,350.588,89.197,350.586,89.197z"/>
		<path fill="#FFC132" d="M307.033,135.839c-0.146-0.499-0.297-0.996-0.426-1.501C306.736,134.843,306.887,135.341,307.033,135.839
			L307.033,135.839z"/>
		<path fill="#FFC132" d="M350.584,168.415c0.002,0,0.002,0,0.002,0c-16.441,0-30.869-8.783-38.84-21.904l0,0
			C319.717,159.632,334.145,168.415,350.584,168.415z"/>
		<path fill="#FFC132" d="M306.607,111.665c0.129-0.504,0.279-1.001,0.426-1.499l0,0
			C306.887,110.664,306.736,111.161,306.607,111.665z"/>
		<path fill="#FFC132" d="M350.586,77.587c0,0,0,0-0.002,0c-16.439,0-30.867,8.784-38.838,21.905l0,0
			C319.717,86.372,334.145,77.588,350.586,77.587z"/>
		<path fill="#FFC132" d="M384.217,119.55c-1.119-10.988-7.527-20.429-16.627-25.748c0,0,0,0,0,0.001
			C376.689,99.122,383.098,108.562,384.217,119.55z"/>
		<path fill="#FFC132" d="M367.59,152.202C367.59,152.202,367.59,152.202,367.59,152.202c9.1-5.318,15.508-14.759,16.627-25.749
			C383.098,137.442,376.689,146.883,367.59,152.202z"/>
		<path fill="#FFC132" d="M240.253,146.511c-3.455-2.017-7.24-3.393-11.207-4.073c-6.125,8.684-16.225,14.371-27.635,14.371
			c-1.979,0-3.914-0.181-5.8-0.508c-2.347,3.333-4.02,6.995-5.02,10.802c3.47,0.851,7.091,1.312,10.819,1.312
			C217.854,168.415,232.283,159.632,240.253,146.511z"/>
		<path fill="#FFC132" d="M246.826,123.001c0-4.457-0.656-8.762-1.859-12.835c-3.424,1.869-7.071,3.283-10.869,4.208
			c0.728,2.755,1.119,5.646,1.119,8.626s-0.392,5.871-1.119,8.627c3.798,0.926,7.445,2.34,10.869,4.209
			C246.169,131.764,246.826,127.459,246.826,123.001z"/>
		<path fill="#FFC132" d="M167.605,123.001c0-12.45,6.771-23.341,16.818-29.208c-2.048-3.381-3.623-6.97-4.711-10.676
			c-14.115,7.711-23.714,22.698-23.714,39.883c0,17.188,9.599,32.173,23.715,39.884c1.087-3.704,2.662-7.293,4.71-10.673
			C174.376,146.345,167.605,135.453,167.605,123.001z"/>
		<path fill="#FFC132" d="M229.046,103.567c3.967-0.681,7.752-2.057,11.208-4.074c-7.972-13.122-22.4-21.906-38.843-21.906
			c-3.729,0-7.35,0.461-10.819,1.313c1,3.808,2.674,7.471,5.021,10.804c1.886-0.328,3.821-0.508,5.799-0.508
			C212.822,89.197,222.921,94.884,229.046,103.567z"/>
		<path fill="#FFC132" d="M393.242,107.403c-3.814-10.395-11.328-19.019-20.936-24.274c0,0,0,0,0,0.001
			C381.914,88.385,389.428,97.008,393.242,107.403z"/>
		<path fill="#FFC132" d="M317.469,116.197c0.127-0.614,0.273-1.221,0.432-1.823l0,0
			C317.742,114.976,317.596,115.583,317.469,116.197z"/>
		<path fill="#FFC132" d="M350.586,77.587c3.738,0,7.367,0.463,10.844,1.319c0,0,0,0,0-0.001c-3.477-0.855-7.105-1.318-10.842-1.318
			C350.588,77.587,350.588,77.587,350.586,77.587z"/>
		<path fill="#FFC132" d="M317.9,131.631c-0.158-0.603-0.305-1.21-0.432-1.825C317.596,130.421,317.742,131.028,317.9,131.631
			L317.9,131.631z"/>
		<path fill="#FFC132" d="M350.586,89.197c0,0,0,0-0.002,0c-11.408,0-21.508,5.687-27.633,14.37l0,0
			C329.076,94.885,339.176,89.197,350.586,89.197z"/>
		<path fill="#FFC132" d="M350.588,168.415c3.736,0,7.365-0.463,10.842-1.318c0,0,0,0,0,0c-3.477,0.855-7.105,1.318-10.844,1.318
			C350.588,168.415,350.588,168.415,350.588,168.415z"/>
		<path fill="#FFC132" d="M322.951,142.438L322.951,142.438c6.125,8.683,16.225,14.37,27.633,14.37c0.002,0,0.002,0,0.002,0
			C339.176,156.808,329.076,151.121,322.951,142.438z"/>
		<path fill="#FFC132" d="M372.307,162.873C372.307,162.874,372.307,162.874,372.307,162.873
			c9.607-5.253,17.121-13.877,20.936-24.272C389.428,148.996,381.914,157.619,372.307,162.873z"/>
		<path fill="#FF9209" d="M311.746,99.492c3.455,2.017,7.238,3.393,11.205,4.074c6.125-8.683,16.225-14.37,27.633-14.37
			c0.002,0,0.002,0,0.002,0c0.002,0,0.002,0,0.002,0c1.98,0,3.918,0.181,5.805,0.509c2.32-3.285,4.021-6.932,5.037-10.799
			c-3.477-0.855-7.105-1.318-10.844-1.319C334.145,77.588,319.717,86.372,311.746,99.492z"/>
		<path fill="#FF9209" d="M350.588,156.808c0,0,0,0-0.002,0c0,0,0,0-0.002,0c-11.408,0-21.508-5.687-27.633-14.37
			c-3.967,0.681-7.75,2.057-11.205,4.073c7.971,13.121,22.398,21.903,38.84,21.904c3.738,0,7.367-0.463,10.844-1.318
			c-1.018-3.866-2.717-7.512-5.037-10.797C354.504,156.627,352.568,156.808,350.588,156.808z"/>
		<path fill="#FF9209" d="M393.242,107.403c-3.814-10.395-11.328-19.018-20.936-24.273c-1.102,3.746-2.682,7.329-4.717,10.672
			c9.1,5.319,15.508,14.759,16.627,25.748c0.117,1.135,0.176,2.286,0.176,3.451s-0.059,2.317-0.176,3.452
			c-1.119,10.99-7.527,20.431-16.627,25.75c2.035,3.343,3.615,6.925,4.717,10.67c9.607-5.254,17.121-13.877,20.936-24.272
			c1.785-4.867,2.76-10.122,2.76-15.6C396.002,117.523,395.027,112.27,393.242,107.403z"/>
		<path fill="#FF9209" d="M307.033,110.166c-0.146,0.498-0.297,0.995-0.426,1.499c-0.936,3.625-1.434,7.424-1.434,11.336
			c0,3.913,0.498,7.712,1.434,11.337c0.129,0.505,0.279,1.003,0.426,1.501c3.424-1.868,7.07-3.283,10.867-4.208
			c-0.158-0.603-0.305-1.21-0.432-1.825c-0.451-2.199-0.688-4.475-0.688-6.805s0.236-4.605,0.688-6.804
			c0.127-0.614,0.273-1.221,0.432-1.823C314.104,113.448,310.457,112.034,307.033,110.166z"/>
		<path fill="#FFC132" d="M328.74,104.068c-1.961,0-3.895-0.176-5.789-0.501c-2.281,3.234-4.014,6.88-5.051,10.808
			c3.506,0.855,7.139,1.3,10.84,1.3c12.133,0,23.535-4.724,32.113-13.301c2.613-2.613,4.863-5.492,6.736-8.57
			c-3.402-1.989-7.178-3.398-11.199-4.097c-1.111,1.574-2.355,3.069-3.746,4.459C346.26,100.549,337.768,104.068,328.74,104.068z"/>
		<path fill="#FFC132" d="M296.627,102.371c3.127,3.127,6.631,5.735,10.406,7.795c0.275-0.933,0.568-1.856,0.9-2.763
			c1.018-2.773,2.299-5.42,3.812-7.911c-2.492-1.454-4.816-3.233-6.91-5.327c-2.113-2.114-3.885-4.443-5.32-6.915
			c-3.301,2.007-6.881,3.594-10.66,4.712C290.887,95.699,293.471,99.214,296.627,102.371z"/>
		<path fill="#FFC132" d="M328.74,36.453c9.027,0,17.52,3.519,23.904,9.903c6.385,6.384,9.9,14.874,9.902,23.904
			c0,2.959-0.385,5.857-1.117,8.645c3.84,0.944,7.49,2.371,10.877,4.224c1.213-4.126,1.848-8.447,1.848-12.868
			c0-12.129-4.725-23.536-13.301-32.113c-8.578-8.577-19.984-13.301-32.113-13.301c-4.422,0-8.744,0.635-12.871,1.847
			c1.854,3.388,3.279,7.039,4.225,10.877C322.881,36.838,325.781,36.453,328.74,36.453z"/>
		<path fill="#FFC132" d="M284.648,81.094c3.928-1.04,7.572-2.775,10.805-5.059c-1.799-10.464,1.322-21.618,9.383-29.679
			c1.391-1.39,2.887-2.636,4.459-3.748c-0.699-4.02-2.107-7.796-4.096-11.198c-3.08,1.874-5.959,4.124-8.572,6.737
			C285.004,49.772,281.01,66.183,284.648,81.094z"/>
		<path fill="#FF9209" d="M299.516,87.25c-2.041-3.512-3.391-7.315-4.062-11.215c-3.232,2.284-6.877,4.019-10.805,5.059
			c0.916,3.753,2.324,7.406,4.207,10.868C292.635,90.844,296.215,89.257,299.516,87.25z"/>
		<path fill="#FF9209" d="M309.295,42.609c3.285-2.32,6.932-4.021,10.799-5.038c-0.945-3.838-2.371-7.489-4.225-10.877
			c-3.744,1.101-7.326,2.683-10.67,4.716C307.188,34.812,308.596,38.589,309.295,42.609z"/>
		<path fill="#FFC132" d="M311.746,99.492L311.746,99.492c-1.514,2.491-2.795,5.138-3.812,7.911
			C308.951,104.63,310.232,101.983,311.746,99.492z"/>
		<path fill="#FFC132" d="M307.033,110.166L307.033,110.166c0.275-0.933,0.568-1.856,0.9-2.763
			C307.602,108.31,307.309,109.233,307.033,110.166z"/>
		<path fill="#FFC132" d="M356.391,89.706c4.021,0.699,7.797,2.108,11.199,4.097c0,0,0,0,0-0.001
			c-3.4-1.989-7.178-3.398-11.197-4.097C356.393,89.706,356.393,89.706,356.391,89.706z"/>
		<path fill="#FFC132" d="M322.951,103.566c-2.281,3.234-4.014,6.88-5.051,10.808l0,0C318.938,110.446,320.67,106.8,322.951,103.566
			L322.951,103.566z"/>
		<path fill="#FFC132" d="M361.43,78.906c3.84,0.944,7.49,2.371,10.877,4.224c0,0,0,0,0-0.001
			C368.92,81.276,365.27,79.85,361.43,78.906C361.43,78.906,361.43,78.906,361.43,78.906z"/>
		<path fill="#FF6F02" d="M307.033,110.166c3.424,1.868,7.07,3.282,10.867,4.208c1.037-3.928,2.77-7.574,5.051-10.808
			c-3.967-0.681-7.75-2.058-11.205-4.074c-1.514,2.491-2.795,5.138-3.812,7.911C307.602,108.31,307.309,109.233,307.033,110.166z"/>
		<path fill="#FF6F02" d="M356.393,89.706c4.02,0.699,7.797,2.108,11.197,4.097c2.035-3.344,3.615-6.926,4.717-10.672
			c-3.387-1.853-7.037-3.279-10.877-4.224C360.414,82.773,358.713,86.42,356.393,89.706z"/>
		<path fill="#FFC132" d="M223.257,141.937c1.961,0,3.895,0.176,5.789,0.5c2.281-3.234,4.013-6.881,5.051-10.81
			c-3.507-0.855-7.139-1.3-10.84-1.3c-12.129,0-23.533,4.724-32.11,13.304c-2.637,2.637-4.872,5.524-6.724,8.58
			c3.399,1.984,7.173,3.391,11.188,4.088c1.103-1.566,2.344-3.063,3.743-4.463C205.74,145.453,214.226,141.937,223.257,141.937z"/>
		<path fill="#FFC132" d="M223.257,209.549c-9.031,0-17.518-3.516-23.902-9.9c-8.804-8.805-11.719-21.293-8.763-32.546
			c-3.839-0.942-7.49-2.366-10.879-4.217c-4.529,15.434-0.72,32.816,11.434,44.97c8.577,8.577,19.981,13.301,32.11,13.301
			c4.42,0,8.742-0.635,12.868-1.847c-1.853-3.388-3.279-7.038-4.224-10.876C229.114,209.164,226.215,209.549,223.257,209.549z"/>
		<path fill="#FFC132" d="M255.373,143.631c-3.127-3.126-6.631-5.734-10.406-7.794c-1.117,3.785-2.705,7.369-4.713,10.674
			c2.492,1.454,4.816,3.232,6.91,5.326c2.113,2.114,3.884,4.442,5.319,6.914c3.301-2.006,6.881-3.593,10.66-4.71
			C261.113,150.303,258.529,146.789,255.373,143.631z"/>
		<path fill="#FFC132" d="M267.349,164.908c-3.926,1.041-7.571,2.775-10.803,5.058c1.8,10.465-1.321,21.619-9.383,29.682
			c-1.391,1.391-2.887,2.637-4.461,3.748c0.699,4.019,2.108,7.795,4.097,11.195c3.079-1.873,5.959-4.124,8.573-6.737
			C266.996,196.229,270.988,179.82,267.349,164.908z"/>
		<path fill="#FF9209" d="M242.703,203.396c-3.285,2.32-6.934,4.021-10.801,5.036c0.944,3.838,2.371,7.488,4.224,10.876
			c3.747-1.102,7.329-2.683,10.674-4.717C244.811,211.191,243.402,207.415,242.703,203.396z"/>
		<path fill="#FF9209" d="M252.483,158.75c2.041,3.512,3.392,7.316,4.063,11.216c3.231-2.283,6.877-4.018,10.803-5.058
			c-0.915-3.752-2.324-7.405-4.206-10.868C259.364,155.158,255.784,156.744,252.483,158.75z"/>
		<path fill="#FF9209" d="M195.612,156.3c-4.016-0.697-7.789-2.104-11.188-4.088c-2.048,3.38-3.623,6.969-4.71,10.673
			c3.389,1.852,7.04,3.275,10.879,4.217C191.592,163.295,193.265,159.633,195.612,156.3z"/>
		<path fill="#FF9209" d="M234.097,131.628c-1.038,3.929-2.77,7.575-5.051,10.81c3.967,0.681,7.752,2.057,11.207,4.073
			c2.008-3.305,3.596-6.889,4.713-10.674C241.542,133.968,237.895,132.554,234.097,131.628z"/>
		<path fill="#FFC132" d="M255.373,102.374c3.157-3.158,5.74-6.673,7.771-10.411c-3.779-1.118-7.359-2.705-10.66-4.71
			c-1.436,2.471-3.207,4.799-5.32,6.913c-2.094,2.095-4.418,3.874-6.909,5.328c2.008,3.305,3.595,6.889,4.712,10.673
			C248.742,108.106,252.248,105.499,255.373,102.374z"/>
		<path fill="#FFC132" d="M223.257,115.674c3.701,0,7.333-0.445,10.84-1.3c-1.038-3.928-2.77-7.574-5.051-10.808
			c-1.895,0.325-3.828,0.501-5.789,0.501c-9.031,0-17.518-3.516-23.902-9.903c-1.398-1.398-2.641-2.895-3.742-4.46
			c-4.016,0.698-7.789,2.104-11.189,4.089c1.852,3.056,4.087,5.943,6.724,8.58C199.724,110.951,211.128,115.674,223.257,115.674z"/>
		<polygon fill="#FFC132" points="223.257,24.847 223.258,24.847 223.259,24.847 		"/>
		<path fill="#FFC132" d="M256.546,76.036c3.232,2.284,6.877,4.018,10.804,5.058c3.637-14.912-0.355-31.322-11.978-42.946
			c-2.613-2.614-5.493-4.865-8.573-6.738c-1.989,3.401-3.397,7.178-4.097,11.197c1.574,1.112,3.07,2.358,4.461,3.749
			C255.225,54.418,258.346,65.571,256.546,76.036z"/>
		<path fill="#FFC132" d="M199.355,46.356c6.385-6.385,14.871-9.903,23.904-9.903c2.957,0,5.855,0.385,8.643,1.117
			c0.944-3.839,2.371-7.489,4.224-10.876c-4.126-1.212-8.447-1.847-12.867-1.847c-12.131,0-23.534,4.724-32.111,13.304
			c-12.153,12.151-15.963,29.533-11.435,44.967c3.389-1.851,7.041-3.275,10.88-4.217C187.636,67.647,190.551,55.159,199.355,46.356z
			"/>
		<path fill="#FF9209" d="M267.35,81.094c-3.927-1.04-7.571-2.774-10.804-5.058c-0.672,3.9-2.021,7.704-4.062,11.216
			c3.301,2.006,6.881,3.593,10.66,4.71C265.026,88.5,266.435,84.846,267.35,81.094z"/>
		<path fill="#FF9209" d="M242.703,42.607c0.699-4.02,2.107-7.796,4.097-11.197c-3.344-2.034-6.927-3.615-10.674-4.716
			c-1.853,3.388-3.279,7.038-4.224,10.876C235.769,38.586,239.417,40.287,242.703,42.607z"/>
		<path fill="#FF9209" d="M240.254,99.493c-3.456,2.017-7.241,3.393-11.208,4.074c2.281,3.234,4.013,6.88,5.051,10.808
			c3.798-0.926,7.445-2.34,10.869-4.208C243.849,106.382,242.262,102.798,240.254,99.493z"/>
		<path fill="#FF9209" d="M195.613,89.705c-2.347-3.333-4.021-6.997-5.021-10.804c-3.839,0.942-7.491,2.366-10.88,4.217
			c1.088,3.706,2.663,7.294,4.711,10.676C187.824,91.809,191.597,90.402,195.613,89.705z"/>
		<path fill="#FFC132" d="M294.936,175.744c0-1.961,0.176-3.895,0.502-5.789c-3.234-2.282-6.881-4.015-10.811-5.053
			c-0.855,3.507-1.301,7.14-1.301,10.842c0,12.129,4.725,23.533,13.305,32.11c2.613,2.613,5.49,4.863,8.568,6.736
			c1.988-3.401,3.396-7.177,4.096-11.195c-1.574-1.112-3.068-2.356-4.459-3.747C298.451,193.261,294.936,184.771,294.936,175.744z"
			/>
		<path fill="#FFC132" d="M307.033,135.839c-3.773,2.06-7.277,4.667-10.402,7.792c-3.127,3.125-5.734,6.629-7.795,10.404
			c3.785,1.117,7.369,2.705,10.674,4.713c1.455-2.492,3.232-4.817,5.326-6.912c2.094-2.094,4.418-3.872,6.91-5.326
			c-1.514-2.49-2.795-5.137-3.812-7.91C307.602,137.695,307.309,136.771,307.033,135.839z"/>
		<path fill="#FFC132" d="M362.547,175.744c0,9.027-3.518,17.517-9.902,23.904c-6.385,6.385-14.875,9.9-23.904,9.9
			c-2.959,0-5.857-0.385-8.646-1.118c-0.945,3.839-2.371,7.489-4.223,10.876c4.125,1.214,8.449,1.849,12.869,1.849
			c12.133,0,23.535-4.724,32.113-13.301c8.576-8.577,13.301-19.981,13.301-32.11c0-4.421-0.635-8.744-1.848-12.87
			c-3.389,1.853-7.039,3.279-10.877,4.223C362.162,169.885,362.547,172.785,362.547,175.744z"/>
		<path fill="#FFC132" d="M328.74,141.937c9.029,0,17.52,3.516,23.904,9.903c1.391,1.39,2.635,2.885,3.746,4.458
			c4.021-0.699,7.797-2.108,11.199-4.097c-1.873-3.079-4.123-5.957-6.736-8.57c-8.578-8.577-19.98-13.301-32.113-13.301
			c-3.701,0-7.332,0.445-10.84,1.3c1.039,3.928,2.77,7.573,5.051,10.807C324.846,142.113,326.779,141.937,328.74,141.937z"/>
		<path fill="#FF9209" d="M309.295,203.396c-0.699,4.019-2.107,7.794-4.096,11.195c3.344,2.034,6.926,3.615,10.672,4.716
			c1.852-3.387,3.277-7.037,4.223-10.876C316.227,207.415,312.58,205.715,309.295,203.396z"/>
		<path fill="#FF9209" d="M284.627,164.902c3.93,1.038,7.576,2.771,10.811,5.053c0.68-3.967,2.057-7.751,4.072-11.207
			c-3.305-2.008-6.889-3.596-10.674-4.713C286.969,157.458,285.553,161.104,284.627,164.902z"/>
		<path fill="#FFC132" d="M311.746,146.511L311.746,146.511c-1.514-2.49-2.795-5.137-3.812-7.91
			C308.951,141.374,310.232,144.021,311.746,146.511z"/>
		<path fill="#FFC132" d="M356.391,156.299c0,0,0.002,0,0.002,0c4.02-0.699,7.797-2.108,11.197-4.097c0,0,0,0,0-0.001
			C364.188,154.19,360.412,155.6,356.391,156.299z"/>
		<path fill="#FFC132" d="M307.934,138.601c-0.332-0.906-0.625-1.83-0.9-2.761l0,0C307.309,136.771,307.602,137.695,307.934,138.601
			z"/>
		<path fill="#FFC132" d="M322.951,142.438L322.951,142.438c-2.281-3.234-4.012-6.879-5.051-10.807l0,0
			C318.939,135.559,320.67,139.204,322.951,142.438z"/>
		<path fill="#FFC132" d="M361.43,167.096C361.43,167.097,361.43,167.097,361.43,167.096c3.838-0.943,7.488-2.37,10.877-4.222
			c0,0,0,0,0-0.001C368.918,164.726,365.268,166.152,361.43,167.096z"/>
		<path fill="#FF6F02" d="M361.43,167.096c3.838-0.944,7.488-2.371,10.877-4.223c-1.102-3.746-2.682-7.327-4.717-10.67
			c-3.4,1.989-7.178,3.398-11.197,4.097C358.713,159.584,360.412,163.23,361.43,167.096z"/>
		<path fill="#FF6F02" d="M307.033,135.839c0.275,0.932,0.568,1.855,0.9,2.761c1.018,2.773,2.299,5.42,3.812,7.91
			c3.455-2.016,7.238-3.392,11.205-4.073c-2.281-3.234-4.012-6.879-5.051-10.807C314.104,132.557,310.457,133.971,307.033,135.839z"
			/>
	</g>
	<path fill="#444444" d="M26.548,298.142c14.123,0,25.535,11.41,25.535,25.534c0,14.125-11.412,25.535-25.535,25.535
		c-14.125,0-25.535-11.41-25.535-25.535C1.013,309.552,12.423,298.142,26.548,298.142z M26.548,346.02
		c12.368,0,22.344-9.976,22.344-22.344c0-12.369-9.976-22.343-22.344-22.343c-12.369,0-22.345,9.974-22.345,22.343
		C4.204,336.044,14.179,346.02,26.548,346.02z"/>
	<path fill="#444444" d="M78.416,299.736c0-0.878,0.721-1.595,1.598-1.595h24.1c8.538,0.078,15.4,7.021,15.4,15.559
		c0,8.62-6.862,15.482-15.4,15.562H81.61v18.354c0,0.878-0.72,1.595-1.597,1.595s-1.598-0.717-1.598-1.595V299.736z M81.61,301.333
		v24.736h22.343c6.863,0,12.371-5.506,12.371-12.369c0-6.781-5.428-12.288-12.211-12.367H81.61z"/>
	<path fill="#444444" d="M146.645,299.736c0-0.878,0.718-1.595,1.597-1.595h39.898c0.879,0,1.596,0.717,1.596,1.595
		c0,0.879-0.717,1.597-1.596,1.597h-38.303v20.747h30.322c0.879,0,1.598,0.719,1.598,1.596c0,0.878-0.719,1.597-1.598,1.597h-30.322
		v20.747h38.303c0.879,0,1.596,0.718,1.596,1.597c0,0.878-0.717,1.595-1.596,1.595h-39.898c-0.879,0-1.597-0.717-1.597-1.595
		V299.736z"/>
	<path fill="#444444" d="M216.869,299.736c0-0.878,0.719-1.595,1.598-1.595c0.478,0,0.877,0.237,1.275,0.637l45.006,45.007v-44.049
		c0-0.878,0.719-1.595,1.596-1.595c0.879,0,1.597,0.717,1.597,1.595v47.88c0,0.878-0.718,1.595-1.597,1.595
		c-0.557,0-0.957-0.319-1.275-0.638l-45.007-45.007v44.05c0,0.878-0.718,1.595-1.595,1.595c-0.879,0-1.598-0.717-1.598-1.595
		V299.736z"/>
	<path fill="#FF6F02" d="M336.727,342.827c-4.549,3.99-10.453,6.384-16.916,6.384c-14.125,0-25.537-11.41-25.537-25.535
		c0-14.124,11.412-25.534,25.537-25.534c14.123,0,25.533,11.41,25.533,25.534c0,6.544-2.393,12.448-6.381,16.917l5.902,5.905
		c0.641,0.639,0.641,1.597,0,2.235c-0.637,0.639-1.594,0.639-2.232,0L336.727,342.827z M325.715,329.582
		c0.639-0.639,1.596-0.639,2.234,0l8.697,8.777c3.432-3.91,5.508-9.019,5.508-14.684c0-12.369-9.977-22.343-22.344-22.343
		c-12.369,0-22.344,9.974-22.344,22.343c0,12.368,9.975,22.344,22.344,22.344c5.586,0,10.693-2.075,14.604-5.427
		c-8.619-8.697-8.699-8.697-8.699-8.777C325.076,331.177,325.076,330.22,325.715,329.582z"/>
	<path fill="#FF6F02" d="M371.68,299.736c0-0.878,0.717-1.595,1.596-1.595h24.1c8.537,0.078,15.4,7.021,15.4,15.559
		c0,8.62-6.863,15.482-15.4,15.562h-22.504v18.354c0,0.878-0.717,1.595-1.596,1.595s-1.596-0.717-1.596-1.595V299.736z
		 M374.871,301.333v24.736h22.344c6.861,0,12.369-5.506,12.369-12.369c0-6.781-5.426-12.288-12.209-12.367H374.871z"/>
	<path fill="#FF6F02" d="M463.049,298.142c6.941,0,13.246,2.792,17.875,7.341c0.398,0.319,0.639,0.797,0.639,1.276
		c0,0.878-0.719,1.596-1.596,1.596c-0.559,0-0.879-0.159-1.277-0.559c-4.07-3.91-9.576-6.463-15.641-6.463
		c-12.369,0-22.344,9.974-22.344,22.343c0,12.368,9.975,22.344,22.344,22.344c6.064,0,11.57-2.394,15.641-6.385
		c0.398-0.398,0.719-0.637,1.277-0.637c0.877,0,1.596,0.718,1.596,1.595c0,0.48-0.16,0.878-0.479,1.198
		c-4.629,4.627-11.014,7.42-18.035,7.42c-14.125,0-25.537-11.41-25.537-25.535C437.512,309.552,448.924,298.142,463.049,298.142z"/>
	<path fill="#FF6F02" d="M507.895,299.736c0-0.878,0.719-1.595,1.598-1.595h24.1c8.539,0.078,15.4,7.021,15.4,15.559
		c0,8.62-6.861,15.482-15.4,15.562h-0.32l17.078,17.077c0.398,0.397,0.637,0.797,0.637,1.276c0,0.878-0.717,1.595-1.594,1.595
		c-0.561,0-0.959-0.319-1.279-0.638l-19.311-19.311h-17.715v18.354c0,0.878-0.719,1.595-1.596,1.595
		c-0.879,0-1.598-0.717-1.598-1.595V299.736z M511.088,301.333v24.736h22.504c6.783-0.079,12.209-5.506,12.209-12.369
		c0-6.861-5.508-12.367-12.369-12.367H511.088z"/>
</g>
</svg>
